<?xml version="1.0" encoding="utf-8" standalone="no"?>
<!DOCTYPE svg PUBLIC "-//W3C//DTD SVG 1.1//EN"
  "http://www.w3.org/Graphics/SVG/1.1/DTD/svg11.dtd">
<svg version="1.1" width="100%" height="100%" viewBox="0 0 576 360" xmlns="http://www.w3.org/2000/svg" xmlns:xlink="http://www.w3.org/1999/xlink">
 <metadata>
  <rdf:RDF xmlns:cc="http://creativecommons.org/ns#" xmlns:dc="http://purl.org/dc/elements/1.1/" xmlns:rdf="http://www.w3.org/1999/02/22-rdf-syntax-ns#">
   <cc:Work>
    <dc:type rdf:resource="http://purl.org/dc/dcmitype/StillImage"/>
    <dc:date>2022-05-07T09:44:07.115867</dc:date>
    <dc:format>image/svg+xml</dc:format>
    <dc:creator>
     <cc:Agent>
      <dc:title>Matplotlib v3.4.3, https://matplotlib.org/</dc:title>
     </cc:Agent>
    </dc:creator>
   </cc:Work>
  </rdf:RDF>
 </metadata>
 <defs>
  <style type="text/css">*{stroke-linecap:butt;stroke-linejoin:round;}</style>
 </defs>
 <g id="figure_1">
  <g id="patch_1">
   <path d="M 0 360 
L 576 360 
L 576 0 
L 0 0 
z
" style="fill:none;"/>
  </g>
  <g id="axes_1">
   <g id="patch_2">
    <path d="M 72 315 
L 518.4 315 
L 518.4 43.2 
L 72 43.2 
z
" style="fill:none;"/>
   </g>
   <g id="PathCollection_1">
    <defs>
     <path d="M 0 1.581139 
C 0.419323 1.581139 0.821528 1.41454 1.118034 1.118034 
C 1.41454 0.821528 1.581139 0.419323 1.581139 0 
C 1.581139 -0.419323 1.41454 -0.821528 1.118034 -1.118034 
C 0.821528 -1.41454 0.419323 -1.581139 0 -1.581139 
C -0.419323 -1.581139 -0.821528 -1.41454 -1.118034 -1.118034 
C -1.41454 -0.821528 -1.581139 -0.419323 -1.581139 0 
C -1.581139 0.419323 -1.41454 0.821528 -1.118034 1.118034 
C -0.821528 1.41454 -0.419323 1.581139 0 1.581139 
z
" id="m580ba5a652" style="stroke:#ffc0cb;"/>
    </defs>
    <g clip-path="url(#p02b50fd98f)">
     <use style="fill:#ffc0cb;stroke:#ffc0cb;" x="92.290909" xlink:href="#m580ba5a652" y="103.1772"/>
     <use style="fill:#ffc0cb;stroke:#ffc0cb;" x="99.169183" xlink:href="#m580ba5a652" y="98.2848"/>
     <use style="fill:#ffc0cb;stroke:#ffc0cb;" x="106.047458" xlink:href="#m580ba5a652" y="99.1908"/>
     <use style="fill:#ffc0cb;stroke:#ffc0cb;" x="112.925732" xlink:href="#m580ba5a652" y="89.9496"/>
     <use style="fill:#ffc0cb;stroke:#ffc0cb;" x="119.804006" xlink:href="#m580ba5a652" y="95.748"/>
     <use style="fill:#ffc0cb;stroke:#ffc0cb;" x="126.68228" xlink:href="#m580ba5a652" y="100.6404"/>
     <use style="fill:#ffc0cb;stroke:#ffc0cb;" x="133.560555" xlink:href="#m580ba5a652" y="87.4128"/>
     <use style="fill:#ffc0cb;stroke:#ffc0cb;" x="140.438829" xlink:href="#m580ba5a652" y="79.2588"/>
     <use style="fill:#ffc0cb;stroke:#ffc0cb;" x="147.317103" xlink:href="#m580ba5a652" y="81.252"/>
     <use style="fill:#ffc0cb;stroke:#ffc0cb;" x="154.195378" xlink:href="#m580ba5a652" y="81.0708"/>
     <use style="fill:#ffc0cb;stroke:#ffc0cb;" x="161.073652" xlink:href="#m580ba5a652" y="78.1716"/>
     <use style="fill:#ffc0cb;stroke:#ffc0cb;" x="167.951926" xlink:href="#m580ba5a652" y="82.8828"/>
     <use style="fill:#ffc0cb;stroke:#ffc0cb;" x="174.8302" xlink:href="#m580ba5a652" y="79.0776"/>
     <use style="fill:#ffc0cb;stroke:#ffc0cb;" x="181.708475" xlink:href="#m580ba5a652" y="78.7152"/>
     <use style="fill:#ffc0cb;stroke:#ffc0cb;" x="188.586749" xlink:href="#m580ba5a652" y="81.7956"/>
     <use style="fill:#ffc0cb;stroke:#ffc0cb;" x="195.465023" xlink:href="#m580ba5a652" y="77.0844"/>
     <use style="fill:#ffc0cb;stroke:#ffc0cb;" x="202.343297" xlink:href="#m580ba5a652" y="82.158"/>
     <use style="fill:#ffc0cb;stroke:#ffc0cb;" x="209.221572" xlink:href="#m580ba5a652" y="84.1512"/>
     <use style="fill:#ffc0cb;stroke:#ffc0cb;" x="216.099846" xlink:href="#m580ba5a652" y="82.7016"/>
     <use style="fill:#ffc0cb;stroke:#ffc0cb;" x="222.97812" xlink:href="#m580ba5a652" y="81.0708"/>
     <use style="fill:#ffc0cb;stroke:#ffc0cb;" x="229.856394" xlink:href="#m580ba5a652" y="86.688"/>
     <use style="fill:#ffc0cb;stroke:#ffc0cb;" x="236.734669" xlink:href="#m580ba5a652" y="89.0436"/>
     <use style="fill:#ffc0cb;stroke:#ffc0cb;" x="243.612943" xlink:href="#m580ba5a652" y="84.5136"/>
     <use style="fill:#ffc0cb;stroke:#ffc0cb;" x="250.491217" xlink:href="#m580ba5a652" y="87.7752"/>
     <use style="fill:#ffc0cb;stroke:#ffc0cb;" x="257.369492" xlink:href="#m580ba5a652" y="87.4128"/>
     <use style="fill:#ffc0cb;stroke:#ffc0cb;" x="264.247766" xlink:href="#m580ba5a652" y="87.9564"/>
     <use style="fill:#ffc0cb;stroke:#ffc0cb;" x="271.12604" xlink:href="#m580ba5a652" y="89.5872"/>
     <use style="fill:#ffc0cb;stroke:#ffc0cb;" x="278.004314" xlink:href="#m580ba5a652" y="92.8488"/>
     <use style="fill:#ffc0cb;stroke:#ffc0cb;" x="284.882589" xlink:href="#m580ba5a652" y="90.1308"/>
     <use style="fill:#ffc0cb;stroke:#ffc0cb;" x="291.760863" xlink:href="#m580ba5a652" y="92.6676"/>
     <use style="fill:#ffc0cb;stroke:#ffc0cb;" x="298.639137" xlink:href="#m580ba5a652" y="95.0232"/>
     <use style="fill:#ffc0cb;stroke:#ffc0cb;" x="305.517411" xlink:href="#m580ba5a652" y="98.6472"/>
     <use style="fill:#ffc0cb;stroke:#ffc0cb;" x="312.395686" xlink:href="#m580ba5a652" y="95.9292"/>
     <use style="fill:#ffc0cb;stroke:#ffc0cb;" x="319.27396" xlink:href="#m580ba5a652" y="101.9088"/>
     <use style="fill:#ffc0cb;stroke:#ffc0cb;" x="326.152234" xlink:href="#m580ba5a652" y="101.7276"/>
     <use style="fill:#ffc0cb;stroke:#ffc0cb;" x="333.030508" xlink:href="#m580ba5a652" y="104.9892"/>
     <use style="fill:#ffc0cb;stroke:#ffc0cb;" x="339.908783" xlink:href="#m580ba5a652" y="99.9156"/>
     <use style="fill:#ffc0cb;stroke:#ffc0cb;" x="346.787057" xlink:href="#m580ba5a652" y="105.714"/>
     <use style="fill:#ffc0cb;stroke:#ffc0cb;" x="353.665331" xlink:href="#m580ba5a652" y="108.9756"/>
     <use style="fill:#ffc0cb;stroke:#ffc0cb;" x="360.543606" xlink:href="#m580ba5a652" y="111.6936"/>
     <use style="fill:#ffc0cb;stroke:#ffc0cb;" x="367.42188" xlink:href="#m580ba5a652" y="114.5928"/>
     <use style="fill:#ffc0cb;stroke:#ffc0cb;" x="374.300154" xlink:href="#m580ba5a652" y="112.5996"/>
     <use style="fill:#ffc0cb;stroke:#ffc0cb;" x="381.178428" xlink:href="#m580ba5a652" y="111.8748"/>
     <use style="fill:#ffc0cb;stroke:#ffc0cb;" x="388.056703" xlink:href="#m580ba5a652" y="119.304"/>
     <use style="fill:#ffc0cb;stroke:#ffc0cb;" x="394.934977" xlink:href="#m580ba5a652" y="113.6868"/>
     <use style="fill:#ffc0cb;stroke:#ffc0cb;" x="401.813251" xlink:href="#m580ba5a652" y="120.3912"/>
     <use style="fill:#ffc0cb;stroke:#ffc0cb;" x="408.691525" xlink:href="#m580ba5a652" y="112.4184"/>
     <use style="fill:#ffc0cb;stroke:#ffc0cb;" x="415.5698" xlink:href="#m580ba5a652" y="126.7332"/>
     <use style="fill:#ffc0cb;stroke:#ffc0cb;" x="422.448074" xlink:href="#m580ba5a652" y="132.894"/>
     <use style="fill:#ffc0cb;stroke:#ffc0cb;" x="429.326348" xlink:href="#m580ba5a652" y="126.552"/>
     <use style="fill:#ffc0cb;stroke:#ffc0cb;" x="436.204622" xlink:href="#m580ba5a652" y="134.1624"/>
     <use style="fill:#ffc0cb;stroke:#ffc0cb;" x="443.082897" xlink:href="#m580ba5a652" y="132.894"/>
     <use style="fill:#ffc0cb;stroke:#ffc0cb;" x="449.961171" xlink:href="#m580ba5a652" y="125.2836"/>
     <use style="fill:#ffc0cb;stroke:#ffc0cb;" x="456.839445" xlink:href="#m580ba5a652" y="143.4036"/>
     <use style="fill:#ffc0cb;stroke:#ffc0cb;" x="463.71772" xlink:href="#m580ba5a652" y="143.5848"/>
     <use style="fill:#ffc0cb;stroke:#ffc0cb;" x="470.595994" xlink:href="#m580ba5a652" y="144.4908"/>
     <use style="fill:#ffc0cb;stroke:#ffc0cb;" x="477.474268" xlink:href="#m580ba5a652" y="151.5576"/>
     <use style="fill:#ffc0cb;stroke:#ffc0cb;" x="484.352542" xlink:href="#m580ba5a652" y="149.5644"/>
     <use style="fill:#ffc0cb;stroke:#ffc0cb;" x="491.230817" xlink:href="#m580ba5a652" y="154.4568"/>
     <use style="fill:#ffc0cb;stroke:#ffc0cb;" x="498.109091" xlink:href="#m580ba5a652" y="148.4772"/>
    </g>
   </g>
   <g id="PathCollection_2">
    <defs>
     <path d="M 0 1.581139 
C 0.419323 1.581139 0.821528 1.41454 1.118034 1.118034 
C 1.41454 0.821528 1.581139 0.419323 1.581139 0 
C 1.581139 -0.419323 1.41454 -0.821528 1.118034 -1.118034 
C 0.821528 -1.41454 0.419323 -1.581139 0 -1.581139 
C -0.419323 -1.581139 -0.821528 -1.41454 -1.118034 -1.118034 
C -1.41454 -0.821528 -1.581139 -0.419323 -1.581139 0 
C -1.581139 0.419323 -1.41454 0.821528 -1.118034 1.118034 
C -0.821528 1.41454 -0.419323 1.581139 0 1.581139 
z
" id="me368819908" style="stroke:#add8e6;"/>
    </defs>
    <g clip-path="url(#p02b50fd98f)">
     <use style="fill:#add8e6;stroke:#add8e6;" x="92.290909" xlink:href="#me368819908" y="210.2664"/>
     <use style="fill:#add8e6;stroke:#add8e6;" x="99.169183" xlink:href="#me368819908" y="222.0444"/>
     <use style="fill:#add8e6;stroke:#add8e6;" x="106.047458" xlink:href="#me368819908" y="210.2664"/>
     <use style="fill:#add8e6;stroke:#add8e6;" x="112.925732" xlink:href="#me368819908" y="217.152"/>
     <use style="fill:#add8e6;stroke:#add8e6;" x="119.804006" xlink:href="#me368819908" y="218.6016"/>
     <use style="fill:#add8e6;stroke:#add8e6;" x="126.68228" xlink:href="#me368819908" y="222.0444"/>
     <use style="fill:#add8e6;stroke:#add8e6;" x="133.560555" xlink:href="#me368819908" y="215.5212"/>
     <use style="fill:#add8e6;stroke:#add8e6;" x="140.438829" xlink:href="#me368819908" y="208.6356"/>
     <use style="fill:#add8e6;stroke:#add8e6;" x="147.317103" xlink:href="#me368819908" y="214.6152"/>
     <use style="fill:#add8e6;stroke:#add8e6;" x="154.195378" xlink:href="#me368819908" y="221.5008"/>
     <use style="fill:#add8e6;stroke:#add8e6;" x="161.073652" xlink:href="#me368819908" y="218.2392"/>
     <use style="fill:#add8e6;stroke:#add8e6;" x="167.951926" xlink:href="#me368819908" y="224.0376"/>
     <use style="fill:#add8e6;stroke:#add8e6;" x="174.8302" xlink:href="#me368819908" y="219.6888"/>
     <use style="fill:#add8e6;stroke:#add8e6;" x="181.708475" xlink:href="#me368819908" y="219.87"/>
     <use style="fill:#add8e6;stroke:#add8e6;" x="188.586749" xlink:href="#me368819908" y="214.0716"/>
     <use style="fill:#add8e6;stroke:#add8e6;" x="195.465023" xlink:href="#me368819908" y="218.058"/>
     <use style="fill:#add8e6;stroke:#add8e6;" x="202.343297" xlink:href="#me368819908" y="202.4748"/>
     <use style="fill:#add8e6;stroke:#add8e6;" x="209.221572" xlink:href="#me368819908" y="234.7284"/>
     <use style="fill:#add8e6;stroke:#add8e6;" x="216.099846" xlink:href="#me368819908" y="232.7352"/>
     <use style="fill:#add8e6;stroke:#add8e6;" x="222.97812" xlink:href="#me368819908" y="227.118"/>
     <use style="fill:#add8e6;stroke:#add8e6;" x="229.856394" xlink:href="#me368819908" y="236.178"/>
     <use style="fill:#add8e6;stroke:#add8e6;" x="236.734669" xlink:href="#me368819908" y="253.5732"/>
     <use style="fill:#add8e6;stroke:#add8e6;" x="243.612943" xlink:href="#me368819908" y="238.1712"/>
     <use style="fill:#add8e6;stroke:#add8e6;" x="250.491217" xlink:href="#me368819908" y="230.742"/>
     <use style="fill:#add8e6;stroke:#add8e6;" x="257.369492" xlink:href="#me368819908" y="256.2912"/>
     <use style="fill:#add8e6;stroke:#add8e6;" x="264.247766" xlink:href="#me368819908" y="239.2584"/>
     <use style="fill:#add8e6;stroke:#add8e6;" x="271.12604" xlink:href="#me368819908" y="253.2108"/>
     <use style="fill:#add8e6;stroke:#add8e6;" x="278.004314" xlink:href="#me368819908" y="265.8948"/>
     <use style="fill:#add8e6;stroke:#add8e6;" x="284.882589" xlink:href="#me368819908" y="252.6672"/>
     <use style="fill:#add8e6;stroke:#add8e6;" x="291.760863" xlink:href="#me368819908" y="269.1564"/>
     <use style="fill:#add8e6;stroke:#add8e6;" x="298.639137" xlink:href="#me368819908" y="267.7068"/>
     <use style="fill:#add8e6;stroke:#add8e6;" x="305.517411" xlink:href="#me368819908" y="258.1032"/>
     <use style="fill:#add8e6;stroke:#add8e6;" x="312.395686" xlink:href="#me368819908" y="271.1496"/>
     <use style="fill:#add8e6;stroke:#add8e6;" x="319.27396" xlink:href="#me368819908" y="264.264"/>
     <use style="fill:#add8e6;stroke:#add8e6;" x="326.152234" xlink:href="#me368819908" y="266.4384"/>
     <use style="fill:#add8e6;stroke:#add8e6;" x="333.030508" xlink:href="#me368819908" y="248.6808"/>
     <use style="fill:#add8e6;stroke:#add8e6;" x="339.908783" xlink:href="#me368819908" y="240.8892"/>
     <use style="fill:#add8e6;stroke:#add8e6;" x="346.787057" xlink:href="#me368819908" y="250.3116"/>
     <use style="fill:#add8e6;stroke:#add8e6;" x="353.665331" xlink:href="#me368819908" y="250.4928"/>
     <use style="fill:#add8e6;stroke:#add8e6;" x="360.543606" xlink:href="#me368819908" y="256.4724"/>
     <use style="fill:#add8e6;stroke:#add8e6;" x="367.42188" xlink:href="#me368819908" y="247.2312"/>
     <use style="fill:#add8e6;stroke:#add8e6;" x="374.300154" xlink:href="#me368819908" y="260.2776"/>
     <use style="fill:#add8e6;stroke:#add8e6;" x="381.178428" xlink:href="#me368819908" y="249.2244"/>
     <use style="fill:#add8e6;stroke:#add8e6;" x="388.056703" xlink:href="#me368819908" y="253.392"/>
     <use style="fill:#add8e6;stroke:#add8e6;" x="394.934977" xlink:href="#me368819908" y="240.8892"/>
     <use style="fill:#add8e6;stroke:#add8e6;" x="401.813251" xlink:href="#me368819908" y="250.3116"/>
     <use style="fill:#add8e6;stroke:#add8e6;" x="408.691525" xlink:href="#me368819908" y="236.178"/>
     <use style="fill:#add8e6;stroke:#add8e6;" x="415.5698" xlink:href="#me368819908" y="254.8416"/>
     <use style="fill:#add8e6;stroke:#add8e6;" x="422.448074" xlink:href="#me368819908" y="245.4192"/>
     <use style="fill:#add8e6;stroke:#add8e6;" x="429.326348" xlink:href="#me368819908" y="239.6208"/>
     <use style="fill:#add8e6;stroke:#add8e6;" x="436.204622" xlink:href="#me368819908" y="253.392"/>
     <use style="fill:#add8e6;stroke:#add8e6;" x="443.082897" xlink:href="#me368819908" y="250.3116"/>
     <use style="fill:#add8e6;stroke:#add8e6;" x="449.961171" xlink:href="#me368819908" y="238.1712"/>
     <use style="fill:#add8e6;stroke:#add8e6;" x="456.839445" xlink:href="#me368819908" y="251.3988"/>
     <use style="fill:#add8e6;stroke:#add8e6;" x="463.71772" xlink:href="#me368819908" y="254.6604"/>
     <use style="fill:#add8e6;stroke:#add8e6;" x="470.595994" xlink:href="#me368819908" y="248.6808"/>
     <use style="fill:#add8e6;stroke:#add8e6;" x="477.474268" xlink:href="#me368819908" y="243.7884"/>
     <use style="fill:#add8e6;stroke:#add8e6;" x="484.352542" xlink:href="#me368819908" y="249.2244"/>
     <use style="fill:#add8e6;stroke:#add8e6;" x="491.230817" xlink:href="#me368819908" y="249.0432"/>
     <use style="fill:#add8e6;stroke:#add8e6;" x="498.109091" xlink:href="#me368819908" y="239.9832"/>
    </g>
   </g>
   <g id="matplotlib.axis_1">
    <g id="xtick_1">
     <g id="line2d_1">
      <path clip-path="url(#p02b50fd98f)" d="M 88.851772 315 
L 88.851772 43.2 
" style="fill:none;stroke:#b0b0b0;stroke-dasharray:2.4,2.4;stroke-dashoffset:0;stroke-width:0.4;"/>
     </g>
     <g id="line2d_2">
      <defs>
       <path d="M 0 0 
L 0 3.5 
" id="mfee55b656d" style="stroke:#000000;stroke-width:0.8;"/>
      </defs>
      <g>
       <use style="stroke:#000000;stroke-width:0.8;" x="88.851772" xlink:href="#mfee55b656d" y="315"/>
      </g>
     </g>
     <g id="text_1">
      <!-- 0.2 -->
      <g transform="translate(82.601772 328.94375)scale(0.1 -0.1)">
       <defs>
        <path d="M 231 2094 
Q 231 2819 450 3342 
Q 669 3866 1031 4122 
Q 1313 4325 1613 4325 
Q 2100 4325 2488 3828 
Q 2972 3213 2972 2159 
Q 2972 1422 2759 906 
Q 2547 391 2217 158 
Q 1888 -75 1581 -75 
Q 975 -75 572 641 
Q 231 1244 231 2094 
z
M 844 2016 
Q 844 1141 1059 588 
Q 1238 122 1591 122 
Q 1759 122 1940 273 
Q 2122 425 2216 781 
Q 2359 1319 2359 2297 
Q 2359 3022 2209 3506 
Q 2097 3866 1919 4016 
Q 1791 4119 1609 4119 
Q 1397 4119 1231 3928 
Q 1006 3669 925 3112 
Q 844 2556 844 2016 
z
" id="TimesNewRomanPSMT-30" transform="scale(0.015625)"/>
        <path d="M 800 606 
Q 947 606 1047 504 
Q 1147 403 1147 259 
Q 1147 116 1045 14 
Q 944 -88 800 -88 
Q 656 -88 554 14 
Q 453 116 453 259 
Q 453 406 554 506 
Q 656 606 800 606 
z
" id="TimesNewRomanPSMT-2e" transform="scale(0.015625)"/>
        <path d="M 2934 816 
L 2638 0 
L 138 0 
L 138 116 
Q 1241 1122 1691 1759 
Q 2141 2397 2141 2925 
Q 2141 3328 1894 3587 
Q 1647 3847 1303 3847 
Q 991 3847 742 3664 
Q 494 3481 375 3128 
L 259 3128 
Q 338 3706 661 4015 
Q 984 4325 1469 4325 
Q 1984 4325 2329 3994 
Q 2675 3663 2675 3213 
Q 2675 2891 2525 2569 
Q 2294 2063 1775 1497 
Q 997 647 803 472 
L 1909 472 
Q 2247 472 2383 497 
Q 2519 522 2628 598 
Q 2738 675 2819 816 
L 2934 816 
z
" id="TimesNewRomanPSMT-32" transform="scale(0.015625)"/>
       </defs>
       <use xlink:href="#TimesNewRomanPSMT-30"/>
       <use x="50" xlink:href="#TimesNewRomanPSMT-2e"/>
       <use x="75" xlink:href="#TimesNewRomanPSMT-32"/>
      </g>
     </g>
    </g>
    <g id="xtick_2">
     <g id="line2d_3">
      <path clip-path="url(#p02b50fd98f)" d="M 157.634515 315 
L 157.634515 43.2 
" style="fill:none;stroke:#b0b0b0;stroke-dasharray:2.4,2.4;stroke-dashoffset:0;stroke-width:0.4;"/>
     </g>
     <g id="line2d_4">
      <g>
       <use style="stroke:#000000;stroke-width:0.8;" x="157.634515" xlink:href="#mfee55b656d" y="315"/>
      </g>
     </g>
     <g id="text_2">
      <!-- 0.3 -->
      <g transform="translate(151.384515 328.94375)scale(0.1 -0.1)">
       <defs>
        <path d="M 325 3431 
Q 506 3859 782 4092 
Q 1059 4325 1472 4325 
Q 1981 4325 2253 3994 
Q 2459 3747 2459 3466 
Q 2459 3003 1878 2509 
Q 2269 2356 2469 2072 
Q 2669 1788 2669 1403 
Q 2669 853 2319 450 
Q 1863 -75 997 -75 
Q 569 -75 414 31 
Q 259 138 259 259 
Q 259 350 332 419 
Q 406 488 509 488 
Q 588 488 669 463 
Q 722 447 909 348 
Q 1097 250 1169 231 
Q 1284 197 1416 197 
Q 1734 197 1970 444 
Q 2206 691 2206 1028 
Q 2206 1275 2097 1509 
Q 2016 1684 1919 1775 
Q 1784 1900 1550 2001 
Q 1316 2103 1072 2103 
L 972 2103 
L 972 2197 
Q 1219 2228 1467 2375 
Q 1716 2522 1828 2728 
Q 1941 2934 1941 3181 
Q 1941 3503 1739 3701 
Q 1538 3900 1238 3900 
Q 753 3900 428 3381 
L 325 3431 
z
" id="TimesNewRomanPSMT-33" transform="scale(0.015625)"/>
       </defs>
       <use xlink:href="#TimesNewRomanPSMT-30"/>
       <use x="50" xlink:href="#TimesNewRomanPSMT-2e"/>
       <use x="75" xlink:href="#TimesNewRomanPSMT-33"/>
      </g>
     </g>
    </g>
    <g id="xtick_3">
     <g id="line2d_5">
      <path clip-path="url(#p02b50fd98f)" d="M 226.417257 315 
L 226.417257 43.2 
" style="fill:none;stroke:#b0b0b0;stroke-dasharray:2.4,2.4;stroke-dashoffset:0;stroke-width:0.4;"/>
     </g>
     <g id="line2d_6">
      <g>
       <use style="stroke:#000000;stroke-width:0.8;" x="226.417257" xlink:href="#mfee55b656d" y="315"/>
      </g>
     </g>
     <g id="text_3">
      <!-- 0.4 -->
      <g transform="translate(220.167257 328.94375)scale(0.1 -0.1)">
       <defs>
        <path d="M 2978 1563 
L 2978 1119 
L 2409 1119 
L 2409 0 
L 1894 0 
L 1894 1119 
L 100 1119 
L 100 1519 
L 2066 4325 
L 2409 4325 
L 2409 1563 
L 2978 1563 
z
M 1894 1563 
L 1894 3666 
L 406 1563 
L 1894 1563 
z
" id="TimesNewRomanPSMT-34" transform="scale(0.015625)"/>
       </defs>
       <use xlink:href="#TimesNewRomanPSMT-30"/>
       <use x="50" xlink:href="#TimesNewRomanPSMT-2e"/>
       <use x="75" xlink:href="#TimesNewRomanPSMT-34"/>
      </g>
     </g>
    </g>
    <g id="xtick_4">
     <g id="line2d_7">
      <path clip-path="url(#p02b50fd98f)" d="M 295.2 315 
L 295.2 43.2 
" style="fill:none;stroke:#b0b0b0;stroke-dasharray:2.4,2.4;stroke-dashoffset:0;stroke-width:0.4;"/>
     </g>
     <g id="line2d_8">
      <g>
       <use style="stroke:#000000;stroke-width:0.8;" x="295.2" xlink:href="#mfee55b656d" y="315"/>
      </g>
     </g>
     <g id="text_4">
      <!-- 0.5 -->
      <g transform="translate(288.95 328.94375)scale(0.1 -0.1)">
       <defs>
        <path d="M 2778 4238 
L 2534 3706 
L 1259 3706 
L 981 3138 
Q 1809 3016 2294 2522 
Q 2709 2097 2709 1522 
Q 2709 1188 2573 903 
Q 2438 619 2231 419 
Q 2025 219 1772 97 
Q 1413 -75 1034 -75 
Q 653 -75 479 54 
Q 306 184 306 341 
Q 306 428 378 495 
Q 450 563 559 563 
Q 641 563 702 538 
Q 763 513 909 409 
Q 1144 247 1384 247 
Q 1750 247 2026 523 
Q 2303 800 2303 1197 
Q 2303 1581 2056 1914 
Q 1809 2247 1375 2428 
Q 1034 2569 447 2591 
L 1259 4238 
L 2778 4238 
z
" id="TimesNewRomanPSMT-35" transform="scale(0.015625)"/>
       </defs>
       <use xlink:href="#TimesNewRomanPSMT-30"/>
       <use x="50" xlink:href="#TimesNewRomanPSMT-2e"/>
       <use x="75" xlink:href="#TimesNewRomanPSMT-35"/>
      </g>
     </g>
    </g>
    <g id="xtick_5">
     <g id="line2d_9">
      <path clip-path="url(#p02b50fd98f)" d="M 363.982743 315 
L 363.982743 43.2 
" style="fill:none;stroke:#b0b0b0;stroke-dasharray:2.4,2.4;stroke-dashoffset:0;stroke-width:0.4;"/>
     </g>
     <g id="line2d_10">
      <g>
       <use style="stroke:#000000;stroke-width:0.8;" x="363.982743" xlink:href="#mfee55b656d" y="315"/>
      </g>
     </g>
     <g id="text_5">
      <!-- 0.6 -->
      <g transform="translate(357.732743 328.94375)scale(0.1 -0.1)">
       <defs>
        <path d="M 2869 4325 
L 2869 4209 
Q 2456 4169 2195 4045 
Q 1934 3922 1679 3669 
Q 1425 3416 1258 3105 
Q 1091 2794 978 2366 
Q 1428 2675 1881 2675 
Q 2316 2675 2634 2325 
Q 2953 1975 2953 1425 
Q 2953 894 2631 456 
Q 2244 -75 1606 -75 
Q 1172 -75 869 213 
Q 275 772 275 1663 
Q 275 2231 503 2743 
Q 731 3256 1154 3653 
Q 1578 4050 1965 4187 
Q 2353 4325 2688 4325 
L 2869 4325 
z
M 925 2138 
Q 869 1716 869 1456 
Q 869 1156 980 804 
Q 1091 453 1309 247 
Q 1469 100 1697 100 
Q 1969 100 2183 356 
Q 2397 613 2397 1088 
Q 2397 1622 2184 2012 
Q 1972 2403 1581 2403 
Q 1463 2403 1327 2353 
Q 1191 2303 925 2138 
z
" id="TimesNewRomanPSMT-36" transform="scale(0.015625)"/>
       </defs>
       <use xlink:href="#TimesNewRomanPSMT-30"/>
       <use x="50" xlink:href="#TimesNewRomanPSMT-2e"/>
       <use x="75" xlink:href="#TimesNewRomanPSMT-36"/>
      </g>
     </g>
    </g>
    <g id="xtick_6">
     <g id="line2d_11">
      <path clip-path="url(#p02b50fd98f)" d="M 432.765485 315 
L 432.765485 43.2 
" style="fill:none;stroke:#b0b0b0;stroke-dasharray:2.4,2.4;stroke-dashoffset:0;stroke-width:0.4;"/>
     </g>
     <g id="line2d_12">
      <g>
       <use style="stroke:#000000;stroke-width:0.8;" x="432.765485" xlink:href="#mfee55b656d" y="315"/>
      </g>
     </g>
     <g id="text_6">
      <!-- 0.7 -->
      <g transform="translate(426.515485 328.94375)scale(0.1 -0.1)">
       <defs>
        <path d="M 644 4238 
L 2916 4238 
L 2916 4119 
L 1503 -88 
L 1153 -88 
L 2419 3728 
L 1253 3728 
Q 900 3728 750 3644 
Q 488 3500 328 3200 
L 238 3234 
L 644 4238 
z
" id="TimesNewRomanPSMT-37" transform="scale(0.015625)"/>
       </defs>
       <use xlink:href="#TimesNewRomanPSMT-30"/>
       <use x="50" xlink:href="#TimesNewRomanPSMT-2e"/>
       <use x="75" xlink:href="#TimesNewRomanPSMT-37"/>
      </g>
     </g>
    </g>
    <g id="xtick_7">
     <g id="line2d_13">
      <path clip-path="url(#p02b50fd98f)" d="M 501.548228 315 
L 501.548228 43.2 
" style="fill:none;stroke:#b0b0b0;stroke-dasharray:2.4,2.4;stroke-dashoffset:0;stroke-width:0.4;"/>
     </g>
     <g id="line2d_14">
      <g>
       <use style="stroke:#000000;stroke-width:0.8;" x="501.548228" xlink:href="#mfee55b656d" y="315"/>
      </g>
     </g>
     <g id="text_7">
      <!-- 0.8 -->
      <g transform="translate(495.298228 328.94375)scale(0.1 -0.1)">
       <defs>
        <path d="M 1228 2134 
Q 725 2547 579 2797 
Q 434 3047 434 3316 
Q 434 3728 753 4026 
Q 1072 4325 1600 4325 
Q 2113 4325 2425 4047 
Q 2738 3769 2738 3413 
Q 2738 3175 2569 2928 
Q 2400 2681 1866 2347 
Q 2416 1922 2594 1678 
Q 2831 1359 2831 1006 
Q 2831 559 2490 242 
Q 2150 -75 1597 -75 
Q 994 -75 656 303 
Q 388 606 388 966 
Q 388 1247 577 1523 
Q 766 1800 1228 2134 
z
M 1719 2469 
Q 2094 2806 2194 3001 
Q 2294 3197 2294 3444 
Q 2294 3772 2109 3958 
Q 1925 4144 1606 4144 
Q 1288 4144 1088 3959 
Q 888 3775 888 3528 
Q 888 3366 970 3203 
Q 1053 3041 1206 2894 
L 1719 2469 
z
M 1375 2016 
Q 1116 1797 991 1539 
Q 866 1281 866 981 
Q 866 578 1086 336 
Q 1306 94 1647 94 
Q 1984 94 2187 284 
Q 2391 475 2391 747 
Q 2391 972 2272 1150 
Q 2050 1481 1375 2016 
z
" id="TimesNewRomanPSMT-38" transform="scale(0.015625)"/>
       </defs>
       <use xlink:href="#TimesNewRomanPSMT-30"/>
       <use x="50" xlink:href="#TimesNewRomanPSMT-2e"/>
       <use x="75" xlink:href="#TimesNewRomanPSMT-38"/>
      </g>
     </g>
    </g>
    <g id="text_8">
     <!-- VI -->
     <g transform="translate(505.738125 343.415313)scale(0.12 -0.12)">
      <defs>
       <path d="M 4544 4238 
L 4544 4122 
Q 4319 4081 4203 3978 
Q 4038 3825 3909 3509 
L 2431 -97 
L 2316 -97 
L 728 3556 
Q 606 3838 556 3900 
Q 478 3997 364 4051 
Q 250 4106 56 4122 
L 56 4238 
L 1788 4238 
L 1788 4122 
Q 1494 4094 1406 4022 
Q 1319 3950 1319 3838 
Q 1319 3681 1463 3350 
L 2541 866 
L 3541 3319 
Q 3688 3681 3688 3822 
Q 3688 3913 3597 3995 
Q 3506 4078 3291 4113 
Q 3275 4116 3238 4122 
L 3238 4238 
L 4544 4238 
z
" id="TimesNewRomanPSMT-56" transform="scale(0.015625)"/>
       <path d="M 1975 116 
L 1975 0 
L 159 0 
L 159 116 
L 309 116 
Q 572 116 691 269 
Q 766 369 766 750 
L 766 3488 
Q 766 3809 725 3913 
Q 694 3991 597 4047 
Q 459 4122 309 4122 
L 159 4122 
L 159 4238 
L 1975 4238 
L 1975 4122 
L 1822 4122 
Q 1563 4122 1444 3969 
Q 1366 3869 1366 3488 
L 1366 750 
Q 1366 428 1406 325 
Q 1438 247 1538 191 
Q 1672 116 1822 116 
L 1975 116 
z
" id="TimesNewRomanPSMT-49" transform="scale(0.015625)"/>
      </defs>
      <use xlink:href="#TimesNewRomanPSMT-56"/>
      <use x="72.216797" xlink:href="#TimesNewRomanPSMT-49"/>
     </g>
    </g>
   </g>
   <g id="matplotlib.axis_2">
    <g id="ytick_1">
     <g id="line2d_15">
      <path clip-path="url(#p02b50fd98f)" d="M 72 315 
L 518.4 315 
" style="fill:none;stroke:#b0b0b0;stroke-dasharray:2.4,2.4;stroke-dashoffset:0;stroke-width:0.4;"/>
     </g>
     <g id="line2d_16">
      <defs>
       <path d="M 0 0 
L -3.5 0 
" id="mb3db9ca6c8" style="stroke:#000000;stroke-width:0.8;"/>
      </defs>
      <g>
       <use style="stroke:#000000;stroke-width:0.8;" x="72" xlink:href="#mb3db9ca6c8" y="315"/>
      </g>
     </g>
     <g id="text_9">
      <!-- 280 -->
      <g transform="translate(50 318.471875)scale(0.1 -0.1)">
       <use xlink:href="#TimesNewRomanPSMT-32"/>
       <use x="50" xlink:href="#TimesNewRomanPSMT-38"/>
       <use x="100" xlink:href="#TimesNewRomanPSMT-30"/>
      </g>
     </g>
    </g>
    <g id="ytick_2">
     <g id="line2d_17">
      <path clip-path="url(#p02b50fd98f)" d="M 72 269.7 
L 518.4 269.7 
" style="fill:none;stroke:#b0b0b0;stroke-dasharray:2.4,2.4;stroke-dashoffset:0;stroke-width:0.4;"/>
     </g>
     <g id="line2d_18">
      <g>
       <use style="stroke:#000000;stroke-width:0.8;" x="72" xlink:href="#mb3db9ca6c8" y="269.7"/>
      </g>
     </g>
     <g id="text_10">
      <!-- 285 -->
      <g transform="translate(50 273.171875)scale(0.1 -0.1)">
       <use xlink:href="#TimesNewRomanPSMT-32"/>
       <use x="50" xlink:href="#TimesNewRomanPSMT-38"/>
       <use x="100" xlink:href="#TimesNewRomanPSMT-35"/>
      </g>
     </g>
    </g>
    <g id="ytick_3">
     <g id="line2d_19">
      <path clip-path="url(#p02b50fd98f)" d="M 72 224.4 
L 518.4 224.4 
" style="fill:none;stroke:#b0b0b0;stroke-dasharray:2.4,2.4;stroke-dashoffset:0;stroke-width:0.4;"/>
     </g>
     <g id="line2d_20">
      <g>
       <use style="stroke:#000000;stroke-width:0.8;" x="72" xlink:href="#mb3db9ca6c8" y="224.4"/>
      </g>
     </g>
     <g id="text_11">
      <!-- 290 -->
      <g transform="translate(50 227.871875)scale(0.1 -0.1)">
       <defs>
        <path d="M 338 -88 
L 338 28 
Q 744 34 1094 217 
Q 1444 400 1770 856 
Q 2097 1313 2225 1859 
Q 1734 1544 1338 1544 
Q 891 1544 572 1889 
Q 253 2234 253 2806 
Q 253 3363 572 3797 
Q 956 4325 1575 4325 
Q 2097 4325 2469 3894 
Q 2925 3359 2925 2575 
Q 2925 1869 2578 1258 
Q 2231 647 1613 244 
Q 1109 -88 516 -88 
L 338 -88 
z
M 2275 2091 
Q 2331 2497 2331 2741 
Q 2331 3044 2228 3395 
Q 2125 3747 1936 3934 
Q 1747 4122 1506 4122 
Q 1228 4122 1018 3872 
Q 809 3622 809 3128 
Q 809 2469 1088 2097 
Q 1291 1828 1588 1828 
Q 1731 1828 1928 1897 
Q 2125 1966 2275 2091 
z
" id="TimesNewRomanPSMT-39" transform="scale(0.015625)"/>
       </defs>
       <use xlink:href="#TimesNewRomanPSMT-32"/>
       <use x="50" xlink:href="#TimesNewRomanPSMT-39"/>
       <use x="100" xlink:href="#TimesNewRomanPSMT-30"/>
      </g>
     </g>
    </g>
    <g id="ytick_4">
     <g id="line2d_21">
      <path clip-path="url(#p02b50fd98f)" d="M 72 179.1 
L 518.4 179.1 
" style="fill:none;stroke:#b0b0b0;stroke-dasharray:2.4,2.4;stroke-dashoffset:0;stroke-width:0.4;"/>
     </g>
     <g id="line2d_22">
      <g>
       <use style="stroke:#000000;stroke-width:0.8;" x="72" xlink:href="#mb3db9ca6c8" y="179.1"/>
      </g>
     </g>
     <g id="text_12">
      <!-- 295 -->
      <g transform="translate(50 182.571875)scale(0.1 -0.1)">
       <use xlink:href="#TimesNewRomanPSMT-32"/>
       <use x="50" xlink:href="#TimesNewRomanPSMT-39"/>
       <use x="100" xlink:href="#TimesNewRomanPSMT-35"/>
      </g>
     </g>
    </g>
    <g id="ytick_5">
     <g id="line2d_23">
      <path clip-path="url(#p02b50fd98f)" d="M 72 133.8 
L 518.4 133.8 
" style="fill:none;stroke:#b0b0b0;stroke-dasharray:2.4,2.4;stroke-dashoffset:0;stroke-width:0.4;"/>
     </g>
     <g id="line2d_24">
      <g>
       <use style="stroke:#000000;stroke-width:0.8;" x="72" xlink:href="#mb3db9ca6c8" y="133.8"/>
      </g>
     </g>
     <g id="text_13">
      <!-- 300 -->
      <g transform="translate(50 137.271875)scale(0.1 -0.1)">
       <use xlink:href="#TimesNewRomanPSMT-33"/>
       <use x="50" xlink:href="#TimesNewRomanPSMT-30"/>
       <use x="100" xlink:href="#TimesNewRomanPSMT-30"/>
      </g>
     </g>
    </g>
    <g id="ytick_6">
     <g id="line2d_25">
      <path clip-path="url(#p02b50fd98f)" d="M 72 88.5 
L 518.4 88.5 
" style="fill:none;stroke:#b0b0b0;stroke-dasharray:2.4,2.4;stroke-dashoffset:0;stroke-width:0.4;"/>
     </g>
     <g id="line2d_26">
      <g>
       <use style="stroke:#000000;stroke-width:0.8;" x="72" xlink:href="#mb3db9ca6c8" y="88.5"/>
      </g>
     </g>
     <g id="text_14">
      <!-- 305 -->
      <g transform="translate(50 91.971875)scale(0.1 -0.1)">
       <use xlink:href="#TimesNewRomanPSMT-33"/>
       <use x="50" xlink:href="#TimesNewRomanPSMT-30"/>
       <use x="100" xlink:href="#TimesNewRomanPSMT-35"/>
      </g>
     </g>
    </g>
    <g id="ytick_7">
     <g id="line2d_27">
      <path clip-path="url(#p02b50fd98f)" d="M 72 43.2 
L 518.4 43.2 
" style="fill:none;stroke:#b0b0b0;stroke-dasharray:2.4,2.4;stroke-dashoffset:0;stroke-width:0.4;"/>
     </g>
     <g id="line2d_28">
      <g>
       <use style="stroke:#000000;stroke-width:0.8;" x="72" xlink:href="#mb3db9ca6c8" y="43.2"/>
      </g>
     </g>
     <g id="text_15">
      <!-- 310 -->
      <g transform="translate(50 46.671875)scale(0.1 -0.1)">
       <defs>
        <path d="M 750 3822 
L 1781 4325 
L 1884 4325 
L 1884 747 
Q 1884 391 1914 303 
Q 1944 216 2037 169 
Q 2131 122 2419 116 
L 2419 0 
L 825 0 
L 825 116 
Q 1125 122 1212 167 
Q 1300 213 1334 289 
Q 1369 366 1369 747 
L 1369 3034 
Q 1369 3497 1338 3628 
Q 1316 3728 1258 3775 
Q 1200 3822 1119 3822 
Q 1003 3822 797 3725 
L 750 3822 
z
" id="TimesNewRomanPSMT-31" transform="scale(0.015625)"/>
       </defs>
       <use xlink:href="#TimesNewRomanPSMT-33"/>
       <use x="50" xlink:href="#TimesNewRomanPSMT-31"/>
       <use x="100" xlink:href="#TimesNewRomanPSMT-30"/>
      </g>
     </g>
    </g>
    <g id="text_16">
     <!-- LST(K) -->
     <g transform="translate(43.433125 81.189375)rotate(-90)scale(0.12 -0.12)">
      <defs>
       <path d="M 3669 1172 
L 3772 1150 
L 3409 0 
L 128 0 
L 128 116 
L 288 116 
Q 556 116 672 291 
Q 738 391 738 753 
L 738 3488 
Q 738 3884 650 3984 
Q 528 4122 288 4122 
L 128 4122 
L 128 4238 
L 2047 4238 
L 2047 4122 
Q 1709 4125 1573 4059 
Q 1438 3994 1388 3894 
Q 1338 3794 1338 3416 
L 1338 753 
Q 1338 494 1388 397 
Q 1425 331 1503 300 
Q 1581 269 1991 269 
L 2300 269 
Q 2788 269 2984 341 
Q 3181 413 3343 595 
Q 3506 778 3669 1172 
z
" id="TimesNewRomanPSMT-4c" transform="scale(0.015625)"/>
       <path d="M 2934 4334 
L 2934 2869 
L 2819 2869 
Q 2763 3291 2617 3541 
Q 2472 3791 2203 3937 
Q 1934 4084 1647 4084 
Q 1322 4084 1109 3886 
Q 897 3688 897 3434 
Q 897 3241 1031 3081 
Q 1225 2847 1953 2456 
Q 2547 2138 2764 1967 
Q 2981 1797 3098 1565 
Q 3216 1334 3216 1081 
Q 3216 600 2842 251 
Q 2469 -97 1881 -97 
Q 1697 -97 1534 -69 
Q 1438 -53 1133 45 
Q 828 144 747 144 
Q 669 144 623 97 
Q 578 50 556 -97 
L 441 -97 
L 441 1356 
L 556 1356 
Q 638 900 775 673 
Q 913 447 1195 297 
Q 1478 147 1816 147 
Q 2206 147 2432 353 
Q 2659 559 2659 841 
Q 2659 997 2573 1156 
Q 2488 1316 2306 1453 
Q 2184 1547 1640 1851 
Q 1097 2156 867 2337 
Q 638 2519 519 2737 
Q 400 2956 400 3219 
Q 400 3675 750 4004 
Q 1100 4334 1641 4334 
Q 1978 4334 2356 4169 
Q 2531 4091 2603 4091 
Q 2684 4091 2736 4139 
Q 2788 4188 2819 4334 
L 2934 4334 
z
" id="TimesNewRomanPSMT-53" transform="scale(0.015625)"/>
       <path d="M 3703 4238 
L 3750 3244 
L 3631 3244 
Q 3597 3506 3538 3619 
Q 3441 3800 3280 3886 
Q 3119 3972 2856 3972 
L 2259 3972 
L 2259 734 
Q 2259 344 2344 247 
Q 2463 116 2709 116 
L 2856 116 
L 2856 0 
L 1059 0 
L 1059 116 
L 1209 116 
Q 1478 116 1591 278 
Q 1659 378 1659 734 
L 1659 3972 
L 1150 3972 
Q 853 3972 728 3928 
Q 566 3869 450 3700 
Q 334 3531 313 3244 
L 194 3244 
L 244 4238 
L 3703 4238 
z
" id="TimesNewRomanPSMT-54" transform="scale(0.015625)"/>
       <path d="M 1988 -1253 
L 1988 -1369 
Q 1516 -1131 1200 -813 
Q 750 -359 506 256 
Q 263 872 263 1534 
Q 263 2503 741 3301 
Q 1219 4100 1988 4444 
L 1988 4313 
Q 1603 4100 1356 3731 
Q 1109 3363 987 2797 
Q 866 2231 866 1616 
Q 866 947 969 400 
Q 1050 -31 1165 -292 
Q 1281 -553 1476 -793 
Q 1672 -1034 1988 -1253 
z
" id="TimesNewRomanPSMT-28" transform="scale(0.015625)"/>
       <path d="M 1913 2350 
L 3475 797 
Q 3859 413 4131 273 
Q 4403 134 4675 116 
L 4675 0 
L 2659 0 
L 2659 116 
Q 2841 116 2920 177 
Q 3000 238 3000 313 
Q 3000 388 2970 447 
Q 2941 506 2775 669 
L 1313 2116 
L 1313 750 
Q 1313 428 1353 325 
Q 1384 247 1484 191 
Q 1619 116 1769 116 
L 1913 116 
L 1913 0 
L 106 0 
L 106 116 
L 256 116 
Q 519 116 638 269 
Q 713 369 713 750 
L 713 3488 
Q 713 3809 672 3916 
Q 641 3991 544 4047 
Q 406 4122 256 4122 
L 106 4122 
L 106 4238 
L 1913 4238 
L 1913 4122 
L 1769 4122 
Q 1622 4122 1484 4050 
Q 1388 4000 1350 3900 
Q 1313 3800 1313 3488 
L 1313 2191 
Q 1375 2250 1741 2588 
Q 2669 3438 2863 3722 
Q 2947 3847 2947 3941 
Q 2947 4013 2881 4067 
Q 2816 4122 2659 4122 
L 2563 4122 
L 2563 4238 
L 4119 4238 
L 4119 4122 
Q 3981 4119 3868 4084 
Q 3756 4050 3593 3951 
Q 3431 3853 3194 3634 
Q 3125 3572 2559 2994 
L 1913 2350 
z
" id="TimesNewRomanPSMT-4b" transform="scale(0.015625)"/>
       <path d="M 144 4313 
L 144 4444 
Q 619 4209 934 3891 
Q 1381 3434 1625 2820 
Q 1869 2206 1869 1541 
Q 1869 572 1392 -226 
Q 916 -1025 144 -1369 
L 144 -1253 
Q 528 -1038 776 -670 
Q 1025 -303 1145 264 
Q 1266 831 1266 1447 
Q 1266 2113 1163 2663 
Q 1084 3094 967 3353 
Q 850 3613 656 3853 
Q 463 4094 144 4313 
z
" id="TimesNewRomanPSMT-29" transform="scale(0.015625)"/>
      </defs>
      <use xlink:href="#TimesNewRomanPSMT-4c"/>
      <use x="61.083984" xlink:href="#TimesNewRomanPSMT-53"/>
      <use x="116.699219" xlink:href="#TimesNewRomanPSMT-54"/>
      <use x="177.783203" xlink:href="#TimesNewRomanPSMT-28"/>
      <use x="211.083984" xlink:href="#TimesNewRomanPSMT-4b"/>
      <use x="283.300781" xlink:href="#TimesNewRomanPSMT-29"/>
     </g>
    </g>
   </g>
   <g id="line2d_29">
    <path clip-path="url(#p02b50fd98f)" d="M 92.290909 72.133184 
L 99.169183 73.222378 
L 106.047458 74.311572 
L 112.925732 75.400766 
L 119.804006 76.489959 
L 126.68228 77.579153 
L 133.560555 78.668347 
L 140.438829 79.757541 
L 147.317103 80.846734 
L 154.195378 81.935928 
L 161.073652 83.025122 
L 167.951926 84.114316 
L 174.8302 85.203509 
L 181.708475 86.292703 
L 188.586749 87.381897 
L 195.465023 88.471091 
L 202.343297 89.560284 
L 209.221572 90.649478 
L 216.099846 91.738672 
L 222.97812 92.827866 
L 229.856394 93.917059 
L 236.734669 95.006253 
L 243.612943 96.095447 
L 250.491217 97.184641 
L 257.369492 98.273834 
L 264.247766 99.363028 
L 271.12604 100.452222 
L 278.004314 101.541416 
L 284.882589 102.630609 
L 291.760863 103.719803 
L 298.639137 104.808997 
L 305.517411 105.898191 
L 312.395686 106.987384 
L 319.27396 108.076578 
L 326.152234 109.165772 
L 333.030508 110.254966 
L 339.908783 111.344159 
L 346.787057 112.433353 
L 353.665331 113.522547 
L 360.543606 114.611741 
L 367.42188 115.700934 
L 374.300154 116.790128 
L 381.178428 117.879322 
L 388.056703 118.968516 
L 394.934977 120.057709 
L 401.813251 121.146903 
L 408.691525 122.236097 
L 415.5698 123.325291 
L 422.448074 124.414484 
L 429.326348 125.503678 
L 436.204622 126.592872 
L 443.082897 127.682066 
L 449.961171 128.771259 
L 456.839445 129.860453 
L 463.71772 130.949647 
L 470.595994 132.038841 
L 477.474268 133.128034 
L 484.352542 134.217228 
L 491.230817 135.306422 
L 498.109091 136.395616 
" style="fill:none;stroke:#ff0000;stroke-linecap:square;stroke-width:1.5;"/>
   </g>
   <g id="line2d_30">
    <path clip-path="url(#p02b50fd98f)" d="M 92.290909 219.681077 
L 99.169183 220.368363 
L 106.047458 221.055649 
L 112.925732 221.742935 
L 119.804006 222.430222 
L 126.68228 223.117508 
L 133.560555 223.804794 
L 140.438829 224.49208 
L 147.317103 225.179366 
L 154.195378 225.866653 
L 161.073652 226.553939 
L 167.951926 227.241225 
L 174.8302 227.928511 
L 181.708475 228.615797 
L 188.586749 229.303084 
L 195.465023 229.99037 
L 202.343297 230.677656 
L 209.221572 231.364942 
L 216.099846 232.052229 
L 222.97812 232.739515 
L 229.856394 233.426801 
L 236.734669 234.114087 
L 243.612943 234.801373 
L 250.491217 235.48866 
L 257.369492 236.175946 
L 264.247766 236.863232 
L 271.12604 237.550518 
L 278.004314 238.237804 
L 284.882589 238.925091 
L 291.760863 239.612377 
L 298.639137 240.299663 
L 305.517411 240.986949 
L 312.395686 241.674236 
L 319.27396 242.361522 
L 326.152234 243.048808 
L 333.030508 243.736094 
L 339.908783 244.42338 
L 346.787057 245.110667 
L 353.665331 245.797953 
L 360.543606 246.485239 
L 367.42188 247.172525 
L 374.300154 247.859811 
L 381.178428 248.547098 
L 388.056703 249.234384 
L 394.934977 249.92167 
L 401.813251 250.608956 
L 408.691525 251.296243 
L 415.5698 251.983529 
L 422.448074 252.670815 
L 429.326348 253.358101 
L 436.204622 254.045387 
L 443.082897 254.732674 
L 449.961171 255.41996 
L 456.839445 256.107246 
L 463.71772 256.794532 
L 470.595994 257.481818 
L 477.474268 258.169105 
L 484.352542 258.856391 
L 491.230817 259.543677 
L 498.109091 260.230963 
" style="fill:none;stroke:#0000ff;stroke-linecap:square;stroke-width:1.5;"/>
   </g>
   <g id="patch_3">
    <path d="M 72 315 
L 72 43.2 
" style="fill:none;stroke:#000000;stroke-linecap:square;stroke-linejoin:miter;stroke-width:0.8;"/>
   </g>
   <g id="patch_4">
    <path d="M 518.4 315 
L 518.4 43.2 
" style="fill:none;stroke:#000000;stroke-linecap:square;stroke-linejoin:miter;stroke-width:0.8;"/>
   </g>
   <g id="patch_5">
    <path d="M 72 315 
L 518.4 315 
" style="fill:none;stroke:#000000;stroke-linecap:square;stroke-linejoin:miter;stroke-width:0.8;"/>
   </g>
   <g id="patch_6">
    <path d="M 72 43.2 
L 518.4 43.2 
" style="fill:none;stroke:#000000;stroke-linecap:square;stroke-linejoin:miter;stroke-width:0.8;"/>
   </g>
   <g id="text_17">
    <!-- Dry: y = -12.0220 * VI + 309.2710 -->
    <g style="fill:#ff0000;" transform="translate(350.226194 73.050781)scale(0.1 -0.1)">
     <defs>
      <path d="M 109 0 
L 109 116 
L 269 116 
Q 538 116 650 288 
Q 719 391 719 750 
L 719 3488 
Q 719 3884 631 3984 
Q 509 4122 269 4122 
L 109 4122 
L 109 4238 
L 1834 4238 
Q 2784 4238 3279 4022 
Q 3775 3806 4076 3303 
Q 4378 2800 4378 2141 
Q 4378 1256 3841 663 
Q 3238 0 2003 0 
L 109 0 
z
M 1319 306 
Q 1716 219 1984 219 
Q 2709 219 3187 728 
Q 3666 1238 3666 2109 
Q 3666 2988 3187 3494 
Q 2709 4000 1959 4000 
Q 1678 4000 1319 3909 
L 1319 306 
z
" id="TimesNewRomanPSMT-44" transform="scale(0.015625)"/>
      <path d="M 1038 2947 
L 1038 2303 
Q 1397 2947 1775 2947 
Q 1947 2947 2059 2842 
Q 2172 2738 2172 2600 
Q 2172 2478 2090 2393 
Q 2009 2309 1897 2309 
Q 1788 2309 1652 2417 
Q 1516 2525 1450 2525 
Q 1394 2525 1328 2463 
Q 1188 2334 1038 2041 
L 1038 669 
Q 1038 431 1097 309 
Q 1138 225 1241 169 
Q 1344 113 1538 113 
L 1538 0 
L 72 0 
L 72 113 
Q 291 113 397 181 
Q 475 231 506 341 
Q 522 394 522 644 
L 522 1753 
Q 522 2253 501 2348 
Q 481 2444 426 2487 
Q 372 2531 291 2531 
Q 194 2531 72 2484 
L 41 2597 
L 906 2947 
L 1038 2947 
z
" id="TimesNewRomanPSMT-72" transform="scale(0.015625)"/>
      <path d="M 38 2863 
L 1372 2863 
L 1372 2747 
L 1306 2747 
Q 1166 2747 1095 2686 
Q 1025 2625 1025 2534 
Q 1025 2413 1128 2197 
L 1825 753 
L 2466 2334 
Q 2519 2463 2519 2588 
Q 2519 2644 2497 2672 
Q 2472 2706 2419 2726 
Q 2366 2747 2231 2747 
L 2231 2863 
L 3163 2863 
L 3163 2747 
Q 3047 2734 2984 2696 
Q 2922 2659 2847 2556 
Q 2819 2513 2741 2316 
L 1575 -541 
Q 1406 -956 1132 -1168 
Q 859 -1381 606 -1381 
Q 422 -1381 303 -1275 
Q 184 -1169 184 -1031 
Q 184 -900 270 -820 
Q 356 -741 506 -741 
Q 609 -741 788 -809 
Q 913 -856 944 -856 
Q 1038 -856 1148 -759 
Q 1259 -663 1372 -384 
L 1575 113 
L 547 2272 
Q 500 2369 397 2513 
Q 319 2622 269 2659 
Q 197 2709 38 2747 
L 38 2863 
z
" id="TimesNewRomanPSMT-79" transform="scale(0.015625)"/>
      <path d="M 903 2950 
Q 1047 2950 1148 2848 
Q 1250 2747 1250 2603 
Q 1250 2459 1148 2357 
Q 1047 2256 903 2256 
Q 759 2256 657 2357 
Q 556 2459 556 2603 
Q 556 2747 657 2848 
Q 759 2950 903 2950 
z
M 897 609 
Q 1044 609 1145 506 
Q 1247 403 1247 259 
Q 1247 116 1144 14 
Q 1041 -88 897 -88 
Q 753 -88 651 14 
Q 550 116 550 259 
Q 550 403 651 506 
Q 753 609 897 609 
z
" id="TimesNewRomanPSMT-3a" transform="scale(0.015625)"/>
      <path id="TimesNewRomanPSMT-20" transform="scale(0.015625)"/>
      <path d="M 116 2759 
L 3488 2759 
L 3488 2503 
L 116 2503 
L 116 2759 
z
M 116 1741 
L 3488 1741 
L 3488 1484 
L 116 1484 
L 116 1741 
z
" id="TimesNewRomanPSMT-3d" transform="scale(0.015625)"/>
      <path d="M 259 1672 
L 1875 1672 
L 1875 1200 
L 259 1200 
L 259 1672 
z
" id="TimesNewRomanPSMT-2d" transform="scale(0.015625)"/>
      <path d="M 1544 3263 
Q 1531 3478 1456 3691 
Q 1350 3997 1350 4113 
Q 1350 4275 1426 4359 
Q 1503 4444 1616 4444 
Q 1713 4444 1784 4359 
Q 1856 4275 1856 4119 
Q 1856 3978 1773 3726 
Q 1691 3475 1672 3263 
Q 1844 3372 1981 3528 
Q 2194 3775 2297 3834 
Q 2400 3894 2506 3894 
Q 2609 3894 2679 3823 
Q 2750 3753 2750 3656 
Q 2750 3541 2647 3450 
Q 2544 3359 2131 3269 
Q 1891 3216 1731 3147 
Q 1894 3063 2128 3019 
Q 2506 2950 2623 2847 
Q 2741 2744 2741 2622 
Q 2741 2528 2670 2459 
Q 2600 2391 2506 2391 
Q 2413 2391 2298 2456 
Q 2184 2522 1991 2750 
Q 1863 2903 1672 3038 
Q 1678 2859 1744 2650 
Q 1856 2281 1856 2147 
Q 1856 2022 1781 1936 
Q 1706 1850 1622 1850 
Q 1506 1850 1413 1941 
Q 1347 2006 1347 2150 
Q 1347 2300 1419 2511 
Q 1491 2722 1509 2801 
Q 1528 2881 1544 3038 
Q 1359 2916 1222 2766 
Q 994 2509 878 2441 
Q 797 2391 709 2391 
Q 603 2391 528 2462 
Q 453 2534 453 2622 
Q 453 2700 517 2786 
Q 581 2872 709 2928 
Q 794 2966 1094 3028 
Q 1288 3069 1472 3147 
Q 1303 3231 1069 3278 
Q 684 3359 594 3425 
Q 453 3528 453 3675 
Q 453 3759 523 3829 
Q 594 3900 688 3900 
Q 791 3900 906 3834 
Q 1022 3769 1194 3570 
Q 1366 3372 1544 3263 
z
" id="TimesNewRomanPSMT-2a" transform="scale(0.015625)"/>
      <path d="M 1672 441 
L 1672 2000 
L 116 2000 
L 116 2256 
L 1672 2256 
L 1672 3809 
L 1922 3809 
L 1922 2256 
L 3484 2256 
L 3484 2000 
L 1922 2000 
L 1922 441 
L 1672 441 
z
" id="TimesNewRomanPSMT-2b" transform="scale(0.015625)"/>
     </defs>
     <use xlink:href="#TimesNewRomanPSMT-44"/>
     <use x="72.216797" xlink:href="#TimesNewRomanPSMT-72"/>
     <use x="105.517578" xlink:href="#TimesNewRomanPSMT-79"/>
     <use x="155.517578" xlink:href="#TimesNewRomanPSMT-3a"/>
     <use x="183.300781" xlink:href="#TimesNewRomanPSMT-20"/>
     <use x="208.300781" xlink:href="#TimesNewRomanPSMT-79"/>
     <use x="258.300781" xlink:href="#TimesNewRomanPSMT-20"/>
     <use x="283.300781" xlink:href="#TimesNewRomanPSMT-3d"/>
     <use x="339.697266" xlink:href="#TimesNewRomanPSMT-20"/>
     <use x="364.697266" xlink:href="#TimesNewRomanPSMT-2d"/>
     <use x="397.998047" xlink:href="#TimesNewRomanPSMT-31"/>
     <use x="447.998047" xlink:href="#TimesNewRomanPSMT-32"/>
     <use x="497.998047" xlink:href="#TimesNewRomanPSMT-2e"/>
     <use x="522.998047" xlink:href="#TimesNewRomanPSMT-30"/>
     <use x="572.998047" xlink:href="#TimesNewRomanPSMT-32"/>
     <use x="622.998047" xlink:href="#TimesNewRomanPSMT-32"/>
     <use x="672.998047" xlink:href="#TimesNewRomanPSMT-30"/>
     <use x="722.998047" xlink:href="#TimesNewRomanPSMT-20"/>
     <use x="747.998047" xlink:href="#TimesNewRomanPSMT-2a"/>
     <use x="797.998047" xlink:href="#TimesNewRomanPSMT-20"/>
     <use x="821.248047" xlink:href="#TimesNewRomanPSMT-56"/>
     <use x="893.464844" xlink:href="#TimesNewRomanPSMT-49"/>
     <use x="926.765625" xlink:href="#TimesNewRomanPSMT-20"/>
     <use x="951.765625" xlink:href="#TimesNewRomanPSMT-2b"/>
     <use x="1008.162109" xlink:href="#TimesNewRomanPSMT-20"/>
     <use x="1033.162109" xlink:href="#TimesNewRomanPSMT-33"/>
     <use x="1083.162109" xlink:href="#TimesNewRomanPSMT-30"/>
     <use x="1133.162109" xlink:href="#TimesNewRomanPSMT-39"/>
     <use x="1183.162109" xlink:href="#TimesNewRomanPSMT-2e"/>
     <use x="1208.162109" xlink:href="#TimesNewRomanPSMT-32"/>
     <use x="1258.162109" xlink:href="#TimesNewRomanPSMT-37"/>
     <use x="1308.162109" xlink:href="#TimesNewRomanPSMT-31"/>
     <use x="1358.162109" xlink:href="#TimesNewRomanPSMT-30"/>
    </g>
    <!--         $R^2$ = 0.7377783738025172 -->
    <g style="fill:#ff0000;" transform="translate(350.226194 88.5)scale(0.1 -0.1)">
     <defs>
      <path d="M 4325 0 
L 3194 0 
L 1759 1981 
Q 1600 1975 1500 1975 
Q 1459 1975 1412 1976 
Q 1366 1978 1316 1981 
L 1316 750 
Q 1316 350 1403 253 
Q 1522 116 1759 116 
L 1925 116 
L 1925 0 
L 109 0 
L 109 116 
L 269 116 
Q 538 116 653 291 
Q 719 388 719 750 
L 719 3488 
Q 719 3888 631 3984 
Q 509 4122 269 4122 
L 109 4122 
L 109 4238 
L 1653 4238 
Q 2328 4238 2648 4139 
Q 2969 4041 3192 3777 
Q 3416 3513 3416 3147 
Q 3416 2756 3161 2468 
Q 2906 2181 2372 2063 
L 3247 847 
Q 3547 428 3762 290 
Q 3978 153 4325 116 
L 4325 0 
z
M 1316 2178 
Q 1375 2178 1419 2176 
Q 1463 2175 1491 2175 
Q 2097 2175 2405 2437 
Q 2713 2700 2713 3106 
Q 2713 3503 2464 3751 
Q 2216 4000 1806 4000 
Q 1625 4000 1316 3941 
L 1316 2178 
z
" id="TimesNewRomanPSMT-52" transform="scale(0.015625)"/>
     </defs>
     <use transform="translate(0 0.582813)" xlink:href="#TimesNewRomanPSMT-20"/>
     <use transform="translate(25 0.582813)" xlink:href="#TimesNewRomanPSMT-20"/>
     <use transform="translate(50 0.582813)" xlink:href="#TimesNewRomanPSMT-20"/>
     <use transform="translate(75 0.582813)" xlink:href="#TimesNewRomanPSMT-20"/>
     <use transform="translate(100 0.582813)" xlink:href="#TimesNewRomanPSMT-20"/>
     <use transform="translate(125 0.582813)" xlink:href="#TimesNewRomanPSMT-20"/>
     <use transform="translate(150 0.582813)" xlink:href="#TimesNewRomanPSMT-20"/>
     <use transform="translate(175 0.582813)" xlink:href="#TimesNewRomanPSMT-20"/>
     <use transform="translate(200 0.582813)" xlink:href="#TimesNewRomanPSMT-52"/>
     <use transform="translate(268.202031 60.695312)scale(0.7)" xlink:href="#TimesNewRomanPSMT-32"/>
     <use transform="translate(307.495781 0.582813)" xlink:href="#TimesNewRomanPSMT-20"/>
     <use transform="translate(332.495781 0.582813)" xlink:href="#TimesNewRomanPSMT-3d"/>
     <use transform="translate(388.892266 0.582813)" xlink:href="#TimesNewRomanPSMT-20"/>
     <use transform="translate(413.892266 0.582813)" xlink:href="#TimesNewRomanPSMT-30"/>
     <use transform="translate(463.892266 0.582813)" xlink:href="#TimesNewRomanPSMT-2e"/>
     <use transform="translate(488.892266 0.582813)" xlink:href="#TimesNewRomanPSMT-37"/>
     <use transform="translate(538.892266 0.582813)" xlink:href="#TimesNewRomanPSMT-33"/>
     <use transform="translate(588.892266 0.582813)" xlink:href="#TimesNewRomanPSMT-37"/>
     <use transform="translate(638.892266 0.582813)" xlink:href="#TimesNewRomanPSMT-37"/>
     <use transform="translate(688.892266 0.582813)" xlink:href="#TimesNewRomanPSMT-37"/>
     <use transform="translate(738.892266 0.582813)" xlink:href="#TimesNewRomanPSMT-38"/>
     <use transform="translate(788.892266 0.582813)" xlink:href="#TimesNewRomanPSMT-33"/>
     <use transform="translate(838.892266 0.582813)" xlink:href="#TimesNewRomanPSMT-37"/>
     <use transform="translate(888.892266 0.582813)" xlink:href="#TimesNewRomanPSMT-33"/>
     <use transform="translate(938.892266 0.582813)" xlink:href="#TimesNewRomanPSMT-38"/>
     <use transform="translate(988.892266 0.582813)" xlink:href="#TimesNewRomanPSMT-30"/>
     <use transform="translate(1038.892266 0.582813)" xlink:href="#TimesNewRomanPSMT-32"/>
     <use transform="translate(1088.892266 0.582813)" xlink:href="#TimesNewRomanPSMT-35"/>
     <use transform="translate(1138.892266 0.582813)" xlink:href="#TimesNewRomanPSMT-31"/>
     <use transform="translate(1188.892266 0.582813)" xlink:href="#TimesNewRomanPSMT-37"/>
     <use transform="translate(1237.142266 0.582813)" xlink:href="#TimesNewRomanPSMT-32"/>
    </g>
   </g>
   <g id="text_18">
    <!-- Wet: y = -7.5859 * VI + 292.0760 -->
    <g style="fill:#0000ff;" transform="translate(350.226194 199.890781)scale(0.1 -0.1)">
     <defs>
      <path d="M 5991 4238 
L 5991 4122 
Q 5825 4122 5722 4062 
Q 5619 4003 5525 3841 
Q 5463 3731 5328 3319 
L 4147 -97 
L 4022 -97 
L 3056 2613 
L 2097 -97 
L 1984 -97 
L 725 3422 
Q 584 3816 547 3888 
Q 484 4006 376 4064 
Q 269 4122 84 4122 
L 84 4238 
L 1653 4238 
L 1653 4122 
L 1578 4122 
Q 1413 4122 1325 4047 
Q 1238 3972 1238 3866 
Q 1238 3756 1375 3363 
L 2209 984 
L 2913 3006 
L 2788 3363 
L 2688 3647 
Q 2622 3803 2541 3922 
Q 2500 3981 2441 4022 
Q 2363 4078 2284 4103 
Q 2225 4122 2097 4122 
L 2097 4238 
L 3747 4238 
L 3747 4122 
L 3634 4122 
Q 3459 4122 3378 4047 
Q 3297 3972 3297 3844 
Q 3297 3684 3438 3288 
L 4250 984 
L 5056 3319 
Q 5194 3706 5194 3856 
Q 5194 3928 5148 3990 
Q 5103 4053 5034 4078 
Q 4916 4122 4725 4122 
L 4725 4238 
L 5991 4238 
z
" id="TimesNewRomanPSMT-57" transform="scale(0.015625)"/>
      <path d="M 681 1784 
Q 678 1147 991 784 
Q 1303 422 1725 422 
Q 2006 422 2214 576 
Q 2422 731 2563 1106 
L 2659 1044 
Q 2594 616 2278 264 
Q 1963 -88 1488 -88 
Q 972 -88 605 314 
Q 238 716 238 1394 
Q 238 2128 614 2539 
Q 991 2950 1559 2950 
Q 2041 2950 2350 2633 
Q 2659 2316 2659 1784 
L 681 1784 
z
M 681 1966 
L 2006 1966 
Q 1991 2241 1941 2353 
Q 1863 2528 1708 2628 
Q 1553 2728 1384 2728 
Q 1125 2728 920 2526 
Q 716 2325 681 1966 
z
" id="TimesNewRomanPSMT-65" transform="scale(0.015625)"/>
      <path d="M 1031 3803 
L 1031 2863 
L 1700 2863 
L 1700 2644 
L 1031 2644 
L 1031 788 
Q 1031 509 1111 412 
Q 1191 316 1316 316 
Q 1419 316 1516 380 
Q 1613 444 1666 569 
L 1788 569 
Q 1678 263 1478 108 
Q 1278 -47 1066 -47 
Q 922 -47 784 33 
Q 647 113 581 261 
Q 516 409 516 719 
L 516 2644 
L 63 2644 
L 63 2747 
Q 234 2816 414 2980 
Q 594 3144 734 3369 
Q 806 3488 934 3803 
L 1031 3803 
z
" id="TimesNewRomanPSMT-74" transform="scale(0.015625)"/>
     </defs>
     <use xlink:href="#TimesNewRomanPSMT-57"/>
     <use x="86.384766" xlink:href="#TimesNewRomanPSMT-65"/>
     <use x="130.769531" xlink:href="#TimesNewRomanPSMT-74"/>
     <use x="158.552734" xlink:href="#TimesNewRomanPSMT-3a"/>
     <use x="186.335938" xlink:href="#TimesNewRomanPSMT-20"/>
     <use x="211.335938" xlink:href="#TimesNewRomanPSMT-79"/>
     <use x="261.335938" xlink:href="#TimesNewRomanPSMT-20"/>
     <use x="286.335938" xlink:href="#TimesNewRomanPSMT-3d"/>
     <use x="342.732422" xlink:href="#TimesNewRomanPSMT-20"/>
     <use x="367.732422" xlink:href="#TimesNewRomanPSMT-2d"/>
     <use x="401.033203" xlink:href="#TimesNewRomanPSMT-37"/>
     <use x="451.033203" xlink:href="#TimesNewRomanPSMT-2e"/>
     <use x="476.033203" xlink:href="#TimesNewRomanPSMT-35"/>
     <use x="526.033203" xlink:href="#TimesNewRomanPSMT-38"/>
     <use x="576.033203" xlink:href="#TimesNewRomanPSMT-35"/>
     <use x="626.033203" xlink:href="#TimesNewRomanPSMT-39"/>
     <use x="676.033203" xlink:href="#TimesNewRomanPSMT-20"/>
     <use x="701.033203" xlink:href="#TimesNewRomanPSMT-2a"/>
     <use x="751.033203" xlink:href="#TimesNewRomanPSMT-20"/>
     <use x="774.283203" xlink:href="#TimesNewRomanPSMT-56"/>
     <use x="846.5" xlink:href="#TimesNewRomanPSMT-49"/>
     <use x="879.800781" xlink:href="#TimesNewRomanPSMT-20"/>
     <use x="904.800781" xlink:href="#TimesNewRomanPSMT-2b"/>
     <use x="961.197266" xlink:href="#TimesNewRomanPSMT-20"/>
     <use x="986.197266" xlink:href="#TimesNewRomanPSMT-32"/>
     <use x="1036.197266" xlink:href="#TimesNewRomanPSMT-39"/>
     <use x="1086.197266" xlink:href="#TimesNewRomanPSMT-32"/>
     <use x="1136.197266" xlink:href="#TimesNewRomanPSMT-2e"/>
     <use x="1161.197266" xlink:href="#TimesNewRomanPSMT-30"/>
     <use x="1211.197266" xlink:href="#TimesNewRomanPSMT-37"/>
     <use x="1261.197266" xlink:href="#TimesNewRomanPSMT-36"/>
     <use x="1311.197266" xlink:href="#TimesNewRomanPSMT-30"/>
    </g>
    <!--         $R^2$ = 0.45617647594547733 -->
    <g style="fill:#0000ff;" transform="translate(350.226194 215.34)scale(0.1 -0.1)">
     <use transform="translate(0 0.582813)" xlink:href="#TimesNewRomanPSMT-20"/>
     <use transform="translate(25 0.582813)" xlink:href="#TimesNewRomanPSMT-20"/>
     <use transform="translate(50 0.582813)" xlink:href="#TimesNewRomanPSMT-20"/>
     <use transform="translate(75 0.582813)" xlink:href="#TimesNewRomanPSMT-20"/>
     <use transform="translate(100 0.582813)" xlink:href="#TimesNewRomanPSMT-20"/>
     <use transform="translate(125 0.582813)" xlink:href="#TimesNewRomanPSMT-20"/>
     <use transform="translate(150 0.582813)" xlink:href="#TimesNewRomanPSMT-20"/>
     <use transform="translate(175 0.582813)" xlink:href="#TimesNewRomanPSMT-20"/>
     <use transform="translate(200 0.582813)" xlink:href="#TimesNewRomanPSMT-52"/>
     <use transform="translate(268.202031 60.695312)scale(0.7)" xlink:href="#TimesNewRomanPSMT-32"/>
     <use transform="translate(307.495781 0.582813)" xlink:href="#TimesNewRomanPSMT-20"/>
     <use transform="translate(332.495781 0.582813)" xlink:href="#TimesNewRomanPSMT-3d"/>
     <use transform="translate(388.892266 0.582813)" xlink:href="#TimesNewRomanPSMT-20"/>
     <use transform="translate(413.892266 0.582813)" xlink:href="#TimesNewRomanPSMT-30"/>
     <use transform="translate(463.892266 0.582813)" xlink:href="#TimesNewRomanPSMT-2e"/>
     <use transform="translate(488.892266 0.582813)" xlink:href="#TimesNewRomanPSMT-34"/>
     <use transform="translate(538.892266 0.582813)" xlink:href="#TimesNewRomanPSMT-35"/>
     <use transform="translate(588.892266 0.582813)" xlink:href="#TimesNewRomanPSMT-36"/>
     <use transform="translate(638.892266 0.582813)" xlink:href="#TimesNewRomanPSMT-31"/>
     <use transform="translate(688.892266 0.582813)" xlink:href="#TimesNewRomanPSMT-37"/>
     <use transform="translate(738.892266 0.582813)" xlink:href="#TimesNewRomanPSMT-36"/>
     <use transform="translate(788.892266 0.582813)" xlink:href="#TimesNewRomanPSMT-34"/>
     <use transform="translate(838.892266 0.582813)" xlink:href="#TimesNewRomanPSMT-37"/>
     <use transform="translate(888.892266 0.582813)" xlink:href="#TimesNewRomanPSMT-35"/>
     <use transform="translate(930.892266 0.582813)" xlink:href="#TimesNewRomanPSMT-39"/>
     <use transform="translate(980.892266 0.582813)" xlink:href="#TimesNewRomanPSMT-34"/>
     <use transform="translate(1030.892266 0.582813)" xlink:href="#TimesNewRomanPSMT-35"/>
     <use transform="translate(1080.892266 0.582813)" xlink:href="#TimesNewRomanPSMT-34"/>
     <use transform="translate(1130.892266 0.582813)" xlink:href="#TimesNewRomanPSMT-37"/>
     <use transform="translate(1180.892266 0.582813)" xlink:href="#TimesNewRomanPSMT-37"/>
     <use transform="translate(1230.892266 0.582813)" xlink:href="#TimesNewRomanPSMT-33"/>
     <use transform="translate(1280.892266 0.582813)" xlink:href="#TimesNewRomanPSMT-33"/>
    </g>
   </g>
  </g>
 </g>
 <defs>
  <clipPath id="p02b50fd98f">
   <rect height="271.8" width="446.4" x="72" y="43.2"/>
  </clipPath>
 </defs>
</svg>
