<?xml version="1.0" encoding="UTF-8" standalone="no"?>
<!DOCTYPE svg PUBLIC "-//W3C//DTD SVG 1.1//EN" "http://www.w3.org/Graphics/SVG/1.1/DTD/svg11.dtd">
<!-- 由 Microsoft Visio, SVG Export 生成 vector2.svg RasterOperation -->
<svg xmlns="http://www.w3.org/2000/svg" xmlns:xlink="http://www.w3.org/1999/xlink" xmlns:ev="http://www.w3.org/2001/xml-events"
		width="100%" height="100%" viewBox="0 0 509.756 500" xml:space="preserve" color-interpolation-filters="sRGB"
		class="st25">
	<style type="text/css">
	<![CDATA[
		.st1 {fill:#ffffff;stroke:#000000;stroke-linecap:round;stroke-linejoin:round;stroke-width:0.24}
		.st2 {fill:#000000;font-family:宋体;font-size:0.833336em}
		.st3 {font-family:Times New Roman;font-size:1em}
		.st4 {marker-end:url(#mrkr5-11);stroke:#000000;stroke-linecap:round;stroke-linejoin:round;stroke-width:0.75}
		.st5 {fill:#000000;fill-opacity:1;stroke:#000000;stroke-opacity:1;stroke-width:0.22935779816514}
		.st6 {fill:none;stroke:none;stroke-linecap:butt;stroke-width:0.75}
		.st7 {fill:#305497;font-family:Times New Roman;font-size:0.666664em}
		.st8 {fill:#fff2cc;stroke:#000000;stroke-linecap:round;stroke-linejoin:round;stroke-width:0.24}
		.st9 {fill:#000000;font-family:宋体;font-size:0.833336em;font-weight:bold}
		.st10 {fill:#b7dde8;stroke:#000000;stroke-linecap:round;stroke-linejoin:round;stroke-width:0.24}
		.st11 {fill:none;stroke:none;stroke-linecap:round;stroke-linejoin:round;stroke-width:0.75}
		.st12 {fill:#000000;font-family:宋体;font-size:0.666664em}
		.st13 {marker-start:url(#mrkr5-86);stroke:#000000;stroke-linecap:round;stroke-linejoin:round;stroke-width:0.75}
		.st14 {fill:#dbeef3}
		.st15 {stroke:#d8d8d8;stroke-linecap:round;stroke-linejoin:round;stroke-width:0.24}
		.st16 {fill:#0070c0;font-family:Times New Roman;font-size:0.499992em}
		.st17 {fill:#000000;font-family:微软雅黑;font-size:1em}
		.st18 {fill:none;stroke:#7f7f7f;stroke-linecap:round;stroke-linejoin:round;stroke-width:0.5}
		.st19 {font-size:1em}
		.st20 {fill:none;stroke:#7f7f7f;stroke-dasharray:3.5,2.5;stroke-linecap:round;stroke-linejoin:round;stroke-width:0.5}
		.st21 {fill:#f2f2f2}
		.st22 {fill:#000000;font-size:1em}
		.st23 {fill:#c0fdca}
		.st24 {stroke:#000000;stroke-linecap:round;stroke-linejoin:round;stroke-width:0.75}
		.st25 {fill:none;fill-rule:evenodd;font-size:12px;overflow:visible;stroke-linecap:square;stroke-miterlimit:3}
	]]>
	</style>

	<defs id="Markers">
		<g id="lend5">
			<path d="M 2 1 L 0 0 L 1.98117 -0.993387 C 1.67173 -0.364515 1.67301 0.372641 1.98465 1.00043 " style="stroke:none"/>
		</g>
		<marker id="mrkr5-11" class="st5" refX="-7.63" orient="auto" markerUnits="strokeWidth" overflow="visible">
			<use xlink:href="#lend5" transform="scale(-4.36,-4.36) "/>
		</marker>
		<marker id="mrkr5-86" class="st5" refX="7.15" orient="auto" markerUnits="strokeWidth" overflow="visible">
			<use xlink:href="#lend5" transform="scale(4.36) "/>
		</marker>
	</defs>
	<g>
		<title>RasterOperation</title>
		<g id="shape182-1" transform="translate(160.412,-451.12)">
			<title>圆角的矩形</title>
			<desc>矢量文件-File</desc>
			<path d="M11.87 500 L106.82 500 A11.8686 11.8686 -180 0 0 118.69 488.13 L118.69 481.49 A11.8686 11.8686 -180 0 0 106.82
						 469.62 L11.87 469.62 A11.8686 11.8686 -180 0 0 -0 481.49 L0 488.13 A11.8686 11.8686 -180 0 0 11.87 500 Z"
					class="st1"/>
			<text x="29.9" y="488.1" class="st2">矢量文件<tspan class="st3">-</tspan><tspan class="st3">File</tspan></text>		</g>
		<g id="shape222-6" transform="translate(160.412,-466.307)">
			<title>动态连接线.222</title>
			<path d="M0 500 L-85.6 500 L-85.6 520.46" class="st4"/>
		</g>
		<g id="shape233-12" transform="translate(97.7558,-466.91)">
			<title>工作表.233</title>
			<desc>Open</desc>
			<rect x="0" y="488.32" width="24.75" height="11.6798" class="st6"/>
			<text x="3.71" y="496.56" class="st7">Open</text>		</g>
		<g id="shape252-15" transform="translate(158.506,-316.375)">
			<title>圆角的矩形.252</title>
			<desc>矢量图层-Layer</desc>
			<path d="M11.02 500 L99.22 500 A11.0248 11.0248 -180 0 0 110.25 488.97 L110.25 480.65 A11.0248 11.0248 -180 0 0 99.22
						 469.62 L11.02 469.62 A11.0248 11.0248 -180 0 0 -0 480.65 L0 488.97 A11.0248 11.0248 -180 0 0 11.02 500 Z"
					class="st8"/>
			<text x="20.61" y="488.12" class="st9">矢量图层<tspan class="st3">-</tspan><tspan class="st3">Layer</tspan></text>		</g>
		<g id="shape1003-20" transform="translate(272.813,-409.664)">
			<title>圆角的矩形.1003</title>
			<desc>栅格数据集- DataSet</desc>
			<path d="M6.64 500 L59.74 500 A6.63739 6.63739 -180 0 0 66.37 493.36 L66.37 475.6 A6.63739 6.63739 -180 0 0 59.74 468.96
						 L6.64 468.96 A6.63739 6.63739 -180 0 0 0 475.6 L0 493.36 A6.63739 6.63739 -180 0 0 6.64 500 Z"
					class="st10"/>
			<text x="6.52" y="481.77" class="st2">栅格数据集<tspan class="st3">- </tspan><tspan x="17.36" dy="1.229em" class="st3">DataSet</tspan></text>		</g>
		<g id="shape1004-25" transform="translate(203.631,-451.12)">
			<title>动态连接线.1004</title>
			<path d="M-8.88 500 L-9.11 598.65" class="st4"/>
		</g>
		<g id="shape1005-30" transform="translate(183.5,-381.538)">
			<title>工作表.1005</title>
			<desc>ReadVector</desc>
			<rect x="0" y="453.669" width="11" height="46.331" class="st6"/>
			<text x="-4.39" y="-495.94" writing-mode="tb-rl" transform="rotate(180)" class="st7">ReadVector</text>		</g>
		<g id="shape1016-33" transform="translate(158.506,-322.562)">
			<title>动态连接线.1016</title>
			<path d="M0 491 L-25.37 491" class="st4"/>
		</g>
		<g id="shape1017-38" transform="translate(124.306,-220.75)">
			<title>工作表.1017</title>
			<desc>属性</desc>
			<rect x="0" y="485.375" width="44.8523" height="14.625" class="st11"/>
			<text x="14.43" y="495.32" class="st12">属性</text>		</g>
		<g id="shape1019-41" transform="translate(229.5,-425.863)">
			<title>工作表.1019</title>
			<desc>ToDataSet</desc>
			<rect x="0" y="488.32" width="40.5" height="11.6798" class="st6"/>
			<text x="3.14" y="496.56" class="st7">ToDataSet</text>		</g>
		<g id="shape1030-44" transform="translate(268.756,-322.562)">
			<title>动态连接线.1030</title>
			<path d="M0 491 L70.15 491" class="st4"/>
		</g>
		<g id="shape1032-49" transform="translate(276.705,-219.625)">
			<title>工作表.1032</title>
			<desc>方法</desc>
			<rect x="0" y="485.375" width="33.6023" height="14.625" class="st11"/>
			<text x="8.8" y="495.32" class="st12">方法</text>		</g>
		<g id="shape1042-52" transform="translate(202.727,-346.75)">
			<title>动态连接线.1042</title>
			<path d="M8.77 500 L9.2 401.35" class="st4"/>
		</g>
		<g id="shape1043-57" transform="translate(200.813,-384.023)">
			<title>工作表.1043</title>
			<desc>SaveAs</desc>
			<rect x="0" y="461.32" width="12.375" height="38.6798" class="st6"/>
			<text x="-5.08" y="-492.88" writing-mode="tb-rl" transform="rotate(180)" class="st7">SaveAs</text>		</g>
		<g id="shape1044-60" transform="translate(163.006,-202.75)">
			<title>圆角的矩形.1044</title>
			<desc>矢量要素-Feature</desc>
			<path d="M11.02 500 L99.22 500 A11.0248 11.0248 -180 0 0 110.25 488.97 L110.25 480.65 A11.0248 11.0248 -180 0 0 99.22
						 469.62 L11.02 469.62 A11.0248 11.0248 -180 0 0 -0 480.65 L0 488.97 A11.0248 11.0248 -180 0 0 11.02 500 Z"
					class="st8"/>
			<text x="16.72" y="488.12" class="st9">矢量要素<tspan class="st3">-</tspan><tspan class="st3">Feature</tspan></text>		</g>
		<g id="shape1045-65" transform="translate(228.256,-316.375)">
			<title>动态连接线.1045</title>
			<path d="M-9 500 L-9 577.53" class="st4"/>
		</g>
		<g id="shape1046-70" transform="translate(220.631,-253.413)">
			<title>工作表.1046</title>
			<desc>GetFeature</desc>
			<rect x="0" y="457.325" width="12.125" height="42.6748" class="st6"/>
			<text x="7.17" y="460.89" writing-mode="tb-rl" class="st7">GetFeature</text>		</g>
		<g id="shape1064-73" transform="translate(163.006,-208.937)">
			<title>动态连接线.1064</title>
			<path d="M0 491 L-29.38 491" class="st4"/>
		</g>
		<g id="shape1077-78" transform="translate(127.006,-66.3438)">
			<title>工作表.1077</title>
			<desc>几何测试</desc>
			<rect x="0" y="488.187" width="63" height="11.8125" class="st11"/>
			<text x="15.5" y="496.73" class="st12">几何测试</text>		</g>
		<g id="shape1087-81" transform="translate(203.506,-316.375)">
			<title>动态连接线.1087</title>
			<path d="M-9 505.36 L-9 505.72 L-9 583.25" class="st13"/>
		</g>
		<g id="group1089-87" transform="translate(226.006,-71.7031)">
			<title>工作表.1089</title>
			<g id="shape1078-88" transform="translate(7.87501,-98.1761)">
				<title>子流程.1078</title>
				<desc>Difference-差集</desc>
				<path d="M0 500 L92.25 500 L92.25 485.94 L0 485.94 L0 500 Z" class="st14"/>
				<path d="M0 500 L92.25 500 L92.25 485.94 L0 485.94 L0 500" class="st15"/>
				<path d="M8.5 500 L8.5 485.94" class="st15"/>
				<path d="M83.75 500 L83.75 485.94" class="st15"/>
				<text x="26.3" y="494.77" class="st16">Difference-<tspan class="st17">差集</tspan></text>			</g>
			<g id="shape1081-95" transform="translate(7.87501,-42.9489)">
				<title>Subprocess.1081</title>
				<desc>Reproject-重投影</desc>
				<path d="M0 500 L92.25 500 L92.25 485.94 L0 485.94 L0 500 Z" class="st14"/>
				<path d="M0 500 L92.25 500 L92.25 485.94 L0 485.94 L0 500" class="st15"/>
				<path d="M8.5 500 L8.5 485.94" class="st15"/>
				<path d="M83.75 500 L83.75 485.94" class="st15"/>
				<text x="24.46" y="494.77" class="st16">Reproject-<tspan class="st17">重投影</tspan></text>			</g>
			<g id="shape1082-102" transform="translate(7.87501,-61.358)">
				<title>子流程.1082</title>
				<desc>Intersection-相交</desc>
				<path d="M0 500 L92.25 500 L92.25 485.94 L0 485.94 L0 500 Z" class="st14"/>
				<path d="M0 500 L92.25 500 L92.25 485.94 L0 485.94 L0 500" class="st15"/>
				<path d="M8.5 500 L8.5 485.94" class="st15"/>
				<path d="M83.75 500 L83.75 485.94" class="st15"/>
				<text x="24.97" y="494.77" class="st16">Intersection-<tspan class="st17">相交</tspan></text>			</g>
			<g id="shape1083-109" transform="translate(7.87501,-24.821)">
				<title>子流程.1083</title>
				<desc>Simplify-简化</desc>
				<path d="M0 500 L92.25 500 L92.25 485.94 L0 485.94 L0 500 Z" class="st14"/>
				<path d="M0 500 L92.25 500 L92.25 485.94 L0 485.94 L0 500" class="st15"/>
				<path d="M8.5 500 L8.5 485.94" class="st15"/>
				<path d="M83.75 500 L83.75 485.94" class="st15"/>
				<text x="28.62" y="494.77" class="st16">Simplify-<tspan class="st17">简化</tspan></text>			</g>
			<g id="shape1084-116" transform="translate(7.87501,-6.41193)">
				<title>子流程.1084</title>
				<desc>SymDifference-交集取反</desc>
				<path d="M0 500 L92.25 500 L92.25 485.94 L0 485.94 L0 500 Z" class="st14"/>
				<path d="M0 500 L92.25 500 L92.25 485.94 L0 485.94 L0 500" class="st15"/>
				<path d="M8.5 500 L8.5 485.94" class="st15"/>
				<path d="M83.75 500 L83.75 485.94" class="st15"/>
				<text x="14.8" y="494.77" class="st16">SymDifference-<tspan class="st17">交集取反</tspan></text>			</g>
			<g id="shape1086-123" transform="translate(7.875,-79.8437)">
				<title>子流程.1086</title>
				<desc>Union-联合</desc>
				<path d="M0 500 L92.25 500 L92.25 485.94 L0 485.94 L0 500 Z" class="st14"/>
				<path d="M0 500 L92.25 500 L92.25 485.94 L0 485.94 L0 500" class="st15"/>
				<path d="M8.5 500 L8.5 485.94" class="st15"/>
				<path d="M83.75 500 L83.75 485.94" class="st15"/>
				<text x="31.63" y="494.77" class="st16">Union-<tspan class="st17">联合</tspan></text>			</g>
			<g id="shape1079-130">
				<title>工作表.1079</title>
				<rect x="0" y="384.375" width="108" height="115.625" class="st18"/>
			</g>
		</g>
		<g id="shape1095-132" transform="translate(188.881,-202.75)">
			<title>动态连接线.1095</title>
			<path d="M0 500 L0 643.73 L-55.74 643.73" class="st4"/>
		</g>
		<g id="shape1098-137" transform="translate(201.256,-64.9375)">
			<title>工作表.1098</title>
			<desc>其他工具</desc>
			<rect x="0" y="458.375" width="18" height="41.625" class="st11"/>
			<text x="5" y="466.72" class="st12">其<tspan x="5" dy="1.2em" class="st19">他</tspan><tspan x="5" dy="1.2em" class="st19">工</tspan><tspan
						x="5" dy="1.287em" class="st19">具</tspan></text>		</g>
		<g id="shape1006-143" transform="translate(19.4149,-279.25)">
			<title>工作表.1006</title>
			<path d="M0 500 L108 500 L108 385.25 L0 385.25 L0 500 Z" class="st20"/>
		</g>
		<g id="shape1007-145" transform="translate(23.5058,-283.75)">
			<title>子流程.1007</title>
			<desc>AttributeTable-属性表 Boundary-四至范围FeatureCount-要素数量 FieldsInfo-...</desc>
			<path d="M0 500 L99 500 L99 393.69 L0 393.69 L0 500 Z" class="st21"/>
			<path d="M0 500 L99 500 L99 393.69 L0 393.69 L0 500" class="st15"/>
			<path d="M8.5 500 L8.5 393.69" class="st15"/>
			<path d="M90.5 500 L90.5 393.69" class="st15"/>
			<text x="21.84" y="401.82" class="st16">AttributeTable-<tspan class="st17">属性表 </tspan><tspan x="24.67" dy="2.001em"
						class="st19">Boundary</tspan>-<tspan class="st17">四至范围</tspan><tspan x="20.17" dy="2.001em" class="st19">FeatureCount</tspan>-<tspan
						class="st17">要素数量 </tspan><tspan x="24.17" dy="2.001em" class="st19">FieldsInfo</tspan>-<tspan class="st17">字段信息 </tspan><tspan
						x="23.01" dy="2.001em" class="st19">GeomType</tspan>-<tspan class="st17">几何类型 </tspan><tspan x="28.34"
						dy="2.001em" class="st19">Metadata</tspan>-<tspan class="st17">元数据 </tspan><tspan x="32.34" dy="2.001em"
						class="st19">Name</tspan>-<tspan class="st17">图层名 </tspan><tspan x="17.34" dy="2.001em" class="st19">Projection</tspan>-<tspan
						class="st17">投影</tspan><tspan class="st17">（</tspan><tspan class="st22">WKT</tspan><tspan class="st17">） </tspan><tspan
						x="31.5" dy="2.001em" class="st19">Info</tspan>-<tspan class="st17">图层信息</tspan></text>		</g>
		<g id="shape1048-171" transform="translate(19.9058,-108.25)">
			<title>工作表.1048</title>
			<path d="M0 500 L108 500 L108 338.47 L0 338.47 L0 500 Z" class="st20"/>
		</g>
		<g id="shape1049-173" transform="translate(24.4058,-115)">
			<title>子流程.1049</title>
			<desc>Area-面积 Boundary-四至范围 FID-要素序号 FieldsInfo-字段信息 GeomType-几何类型 ...</desc>
			<path d="M0 500 L99 500 L99 350.37 L0 350.37 L0 500 Z" class="st21"/>
			<path d="M0 500 L99 500 L99 350.37 L0 350.37 L0 500" class="st15"/>
			<path d="M8.5 500 L8.5 350.37" class="st15"/>
			<path d="M90.5 500 L90.5 350.37" class="st15"/>
			<text x="36.67" y="362.16" class="st16">Area-<tspan class="st17">面积 </tspan><tspan x="24.67" dy="2.001em" class="st19">Boundary</tspan>-<tspan
						class="st17">四至范围 </tspan><tspan x="31.67" dy="2.001em" class="st19">FID</tspan>-<tspan class="st17">要素序号 </tspan><tspan
						x="24.17" dy="2.001em" class="st19">FieldsInfo</tspan>-<tspan class="st17">字段信息 </tspan><tspan x="23.01"
						dy="2.001em" class="st19">GeomType</tspan>-<tspan class="st17">几何类型 </tspan><tspan x="29.17" dy="2.001em"
						class="st19">Fields</tspan>-<tspan class="st17">字段数据 </tspan><tspan x="18.67" dy="2.001em" class="st19">GeomPoints</tspan>-<tspan
						class="st17">几何坐标点 </tspan><tspan x="15.84" dy="2.001em" class="st19">GeometricCenter</tspan>-<tspan
						class="st17">地理中心 </tspan><tspan x="14.17" dy="2.001em" class="st19">GeometryCount</tspan>-<tspan
						class="st17">几何体数量 </tspan><tspan x="34" dy="2.001em" class="st19">Length</tspan>-<tspan class="st17">长度 </tspan><tspan
						x="18.67" dy="2.001em" class="st19">Points2D</tspan>-<tspan class="st22">2D</tspan><tspan class="st17">几何坐标点 </tspan><tspan
						x="17.34" dy="2.001em" class="st19">Projection</tspan>-<tspan class="st17">投影</tspan><tspan class="st17">（</tspan><tspan
						class="st22">WKT</tspan><tspan class="st17">）</tspan></text>		</g>
		<g id="shape1104-206" transform="translate(261,-287.703)">
			<title>子流程.1104</title>
			<desc>Preview-预览Layer</desc>
			<path d="M0 500 L78.75 500 L78.75 485.94 L0 485.94 L0 500 Z" class="st23"/>
			<path d="M0 500 L78.75 500 L78.75 485.94 L0 485.94 L0 500" class="st15"/>
			<path d="M8.5 500 L8.5 485.94" class="st15"/>
			<path d="M70.25 500 L70.25 485.94" class="st15"/>
			<text x="15.55" y="494.77" class="st16">Preview-<tspan class="st17">预览</tspan><tspan class="st22">Layer</tspan></text>		</g>
		<g id="shape1106-214" transform="translate(261,-260.703)">
			<title>子流程.1106</title>
			<desc>[slice, slice]-提取/赋值</desc>
			<path d="M0 500 L78.75 500 L78.75 485.94 L0 485.94 L0 500 Z" class="st23"/>
			<path d="M0 500 L78.75 500 L78.75 485.94 L0 485.94 L0 500" class="st15"/>
			<path d="M8.5 500 L8.5 485.94" class="st15"/>
			<path d="M70.25 500 L70.25 485.94" class="st15"/>
			<text x="11.05" y="494.77" class="st16">[slice, slice]-<tspan class="st17">提取</tspan><tspan class="st22">/</tspan><tspan
						class="st17">赋值</tspan></text>		</g>
		<g id="shape1107-223" transform="translate(239.4,-316.375)">
			<title>动态连接线.1107</title>
			<path d="M0 500 L0 548.64 L15.88 548.64" class="st4"/>
		</g>
		<g id="shape1108-228" transform="translate(239.4,-316.375)">
			<title>动态连接线.1108</title>
			<path d="M0 500 L0 521.64 L15.88 521.64" class="st4"/>
		</g>
		<g id="shape1110-233" transform="translate(18.12,-409.75)">
			<title>圆角的矩形.186</title>
			<desc>地理数据库-GeoDataBase</desc>
			<path d="M4.5 500 L108 500 A5.38574 5.38574 -180 0 0 113.39 494.61 L113.39 475.01 A5.38574 5.38574 -180 0 0 108 469.62
						 L4.5 469.62 A4.49993 4.49993 -180 0 0 0 474.12 L0 495.5 A4.49993 4.49993 -180 0 0 4.5 500 Z" class="st8"/>
			<text x="30.03" y="482.1" class="st2">地理数据库<tspan class="st3">-</tspan><tspan x="29.2" dy="1.229em" class="st3">GeoDataBase</tspan></text>		</g>
		<g id="group1111-238" transform="translate(344.631,-19.375)">
			<title>工作表.1111</title>
			<g id="shape1021-239">
				<title>工作表.1021</title>
				<rect x="0" y="37.625" width="146.875" height="462.375" class="st18"/>
			</g>
			<g id="shape1022-241" transform="translate(4,-4.5)">
				<title>子流程.1022</title>
				<desc>FixGeometry-修复几何 ToOtherGeomType-几何类型转换 GeomSelfTest-几何自检 Fix...</desc>
				<path d="M0 500 L139.5 500 L139.5 46.62 L0 46.62 L0 500 Z" class="st14"/>
				<path d="M0 500 L139.5 500 L139.5 46.62 L0 46.62 L0 500" class="st15"/>
				<path d="M8.5 500 L8.5 46.62" class="st15"/>
				<path d="M131 500 L131 46.62" class="st15"/>
				<text x="40.75" y="60.22" class="st16">FixGeometry-<tspan class="st17">修复几何 </tspan><tspan x="27.09" dy="2.001em"
							class="st19">ToOtherGeomType</tspan>-<tspan class="st17">几何类型转换 </tspan><tspan x="39.42" dy="2.001em"
							class="st19">GeomSelfTest</tspan>-<tspan class="st17">几何自检 </tspan><tspan x="40.75" dy="2.001em"
							class="st19">FixGeometry</tspan>-<tspan class="st17">修复几何 </tspan><tspan x="48.09" dy="2.001em"
							class="st19">Reproject</tspan>-<tspan class="st17">重投影 </tspan><tspan x="52.25" dy="2.001em"
							class="st19">Simplify</tspan>-<tspan class="st17">简化 </tspan><tspan x="25.09" dy="2.001em" class="st19">RemoveRepeatedPoints</tspan>-<tspan
							class="st17">删除重复点 </tspan><tspan x="29.92" dy="2.001em" class="st19">VerticesToPoints</tspan>-<tspan
							class="st17">要素折点转点 </tspan><tspan x="51.92" dy="2.001em" class="st19">Buffer</tspan>-<tspan
							class="st17">缓冲区 </tspan><tspan x="46.25" dy="2.001em" class="st19">Centroid</tspan>-<tspan
							class="st17">生成重心 </tspan><tspan x="48.09" dy="2.001em" class="st19">Collect</tspan>-<tspan
							class="st17">集合几何 </tspan><tspan x="40.92" dy="2.001em" class="st19">ConcaveHull</tspan>-<tspan
							class="st17">几何凹包 </tspan><tspan x="42.09" dy="2.001em" class="st19">ConvexHull</tspan>-<tspan
							class="st17">几何凸包 </tspan><tspan x="22.93" dy="2.001em" class="st19">DelaunayTriangulation</tspan>-<tspan
							class="st17">德劳内三角化 </tspan><tspan x="52.25" dy="2.001em" class="st19">Dissolve</tspan>-<tspan
							class="st17">融合 </tspan><tspan x="51.42" dy="2.001em" class="st19">Envelope</tspan>-<tspan class="st17">边框 </tspan><tspan
							x="52.75" dy="2.001em" class="st19">Explode</tspan>-<tspan class="st17">边界 </tspan><tspan x="51.92"
							dy="2.001em" class="st19">Extent</tspan>-<tspan class="st17">外边框 </tspan><tspan x="44.09" dy="2.001em"
							class="st19">ExteriorRing</tspan>-<tspan class="st17">外边界 </tspan><tspan x="46.25" dy="2.001em"
							class="st19">GenGrid</tspan>-<tspan class="st17">生成网格 </tspan><tspan x="47.08" dy="2.001em"
							class="st19">Multi</tspan>-<tspan class="st17">提升多部件 </tspan><tspan x="40.59" dy="2.001em" class="st19">PointOnSurface</tspan>-<tspan
							class="st17">表面点 </tspan><tspan x="52.08" dy="2.001em" class="st19">Single</tspan>-<tspan class="st17">简单化 </tspan><tspan
							x="33.26" dy="2.001em" class="st19">VoronojDiagram</tspan>-<tspan class="st17">泰森多边形 </tspan><tspan
							x="43.92" dy="2.001em" class="st19">SQLQuery</tspan>-<tspan class="st22">SQL</tspan><tspan class="st17">查询 </tspan><tspan
							x="39.09" dy="2.001em" class="st19">SelectIntersect</tspan>-<tspan class="st17">筛选相交 </tspan><tspan
							x="38.43" dy="2.001em" class="st19">SelectWhere</tspan>-<tspan class="st17">按条件筛选 </tspan><tspan
							x="57.58" dy="2.001em" class="st19">Clip</tspan>-<tspan class="st17">裁剪 </tspan><tspan x="56.09"
							dy="2.001em" class="st19">Erase</tspan>-<tspan class="st17">擦除 </tspan><tspan x="53.42" dy="2.001em"
							class="st19">Identity</tspan>-<tspan class="st17">标识 </tspan><tspan x="48.59" dy="2.001em" class="st19">Intersection</tspan>-<tspan
							class="st17">相交 </tspan><tspan x="38.43" dy="2.001em" class="st19">SymDifference</tspan>-<tspan
							class="st17">交集取反 </tspan><tspan x="55.25" dy="2.001em" class="st19">Union</tspan>-<tspan class="st17">联合 </tspan><tspan
							x="54.09" dy="2.001em" class="st19">Update</tspan>-<tspan class="st17">更新 </tspan><tspan x="16.92"
							dy="2.001em" class="st19">CalculateSummaryStatistics</tspan>-<tspan class="st17">汇总统计分析 </tspan><tspan
							x="34.59" dy="2.001em" class="st19">XYTableToPoint</tspan>-<tspan class="st22">XY</tspan><tspan
							class="st17">表转点 </tspan><tspan x="39.09" dy="2.001em" class="st19">MergeTable</tspan>-<tspan
							class="st17">合并属性表</tspan></text>			</g>
		</g>
		<g id="shape1112-322" transform="translate(182.381,-253.413)">
			<title>工作表.1112</title>
			<desc>ToLayer</desc>
			<rect x="0" y="457.325" width="12.125" height="42.6748" class="st6"/>
			<text x="7.17" y="464.89" writing-mode="tb-rl" class="st7">ToLayer</text>		</g>
		<g id="shape1113-325" transform="translate(122.654,-333.25)">
			<title>工作表.1113</title>
			<desc>属性</desc>
			<rect x="0" y="485.375" width="44.8523" height="14.625" class="st11"/>
			<text x="14.43" y="495.32" class="st12">属性</text>		</g>
		<g id="group1115-328" transform="translate(226.006,-19.375)">
			<title>工作表.1115</title>
			<g id="shape1080-329" transform="translate(8.12501,-25.7344)">
				<title>子流程.1080</title>
				<desc>Distance-距离</desc>
				<path d="M0 500 L92.25 500 L92.25 485.94 L0 485.94 L0 500 Z" class="st14"/>
				<path d="M0 500 L92.25 500 L92.25 485.94 L0 485.94 L0 500" class="st15"/>
				<path d="M8.5 500 L8.5 485.94" class="st15"/>
				<path d="M83.75 500 L83.75 485.94" class="st15"/>
				<text x="28.63" y="494.77" class="st16">Distance-<tspan class="st17">距离</tspan></text>			</g>
			<g id="shape1085-336" transform="translate(8.12501,-5.20313)">
				<title>子流程.1085</title>
				<desc>ExportGeom-导出几何体</desc>
				<path d="M0 500 L92.25 500 L92.25 485.94 L0 485.94 L0 500 Z" class="st14"/>
				<path d="M0 500 L92.25 500 L92.25 485.94 L0 485.94 L0 500" class="st15"/>
				<path d="M8.5 500 L8.5 485.94" class="st15"/>
				<path d="M83.75 500 L83.75 485.94" class="st15"/>
				<text x="14.63" y="494.77" class="st16">ExportGeom-<tspan class="st17">导出几何体</tspan></text>			</g>
			<g id="shape1096-343">
				<title>工作表.1096</title>
				<rect x="0" y="454.375" width="108" height="45.625" class="st18"/>
			</g>
		</g>
		<g id="shape1116-345" transform="translate(226.006,-42.1875)">
			<title>动态连接线.1116</title>
			<path d="M-5.36 500 L-5.72 500 L-24.3 500 L-24.3 339.44" class="st13"/>
		</g>
		<g id="shape1117-350" transform="translate(273.256,-217.937)">
			<title>动态连接线.1117</title>
			<path d="M0 500 L36 500 L36 524.89" class="st4"/>
		</g>
		<g id="shape1120-355" transform="translate(131.506,-424.937)">
			<title>动态连接线.1120</title>
			<path d="M0 500 L45 500 L45 578.19" class="st24"/>
		</g>
		<g id="shape1121-358" transform="translate(165.256,-363.419)">
			<title>工作表.1121</title>
			<desc>GetLayer</desc>
			<rect x="0" y="453.669" width="11" height="46.331" class="st6"/>
			<text x="6.61" y="461.73" writing-mode="tb-rl" class="st7">GetLayer</text>		</g>
		<g id="shape1122-361" transform="translate(272.813,-359.703)">
			<title>圆角的矩形.1122</title>
			<desc>数据帧- DataFrame</desc>
			<path d="M6.64 500 L59.74 500 A6.63739 6.63739 -180 0 0 66.37 493.36 L66.37 475.6 A6.63739 6.63739 -180 0 0 59.74 468.96
						 L6.64 468.96 A6.63739 6.63739 -180 0 0 0 475.6 L0 493.36 A6.63739 6.63739 -180 0 0 6.64 500 Z"
					class="st10"/>
			<text x="16.52" y="481.77" class="st2">数据帧<tspan class="st3">- </tspan><tspan x="10.98" dy="1.229em" class="st3">DataFrame</tspan></text>		</g>
		<g id="shape1123-366" transform="translate(225,-346.75)">
			<title>动态连接线.1123</title>
			<path d="M0 500 L0 421.57 L47.81 421.57" class="st24"/>
		</g>
		<g id="shape1124-369" transform="translate(225,-346.75)">
			<title>动态连接线.1124</title>
			<path d="M0 500 L0 471.53 L47.81 471.53" class="st24"/>
		</g>
		<g id="shape1125-372" transform="translate(225,-375.023)">
			<title>工作表.1125</title>
			<desc>ToDataFrame</desc>
			<rect x="0" y="488.32" width="47.25" height="11.6798" class="st6"/>
			<text x="1.41" y="496.56" class="st7">ToDataFrame</text>		</g>
		<g id="group1126-375" transform="translate(19.4149,-18.25)">
			<title>工作表.1126</title>
			<g id="shape1067-376" transform="translate(3.52841,-4.5)">
				<title>子流程.1067</title>
				<desc>IsContains-包含关系测试 IsIntersection-相交测试 IsOverlaps-重叠测试 IsRing-...</desc>
				<path d="M0 500 L100.69 500 L100.69 428.81 L0 428.81 L0 500 Z" class="st14"/>
				<path d="M0 500 L100.69 500 L100.69 428.81 L0 428.81 L0 500" class="st15"/>
				<path d="M8.5 500 L8.5 428.81" class="st15"/>
				<path d="M92.18 500 L92.18 428.81" class="st15"/>
				<text x="18.51" y="437.39" class="st16">IsContains-<tspan class="st17">包含关系测试 </tspan><tspan x="21.02" dy="2.001em"
							class="st19">Is</tspan>Intersection-<tspan class="st17">相交测试 </tspan><tspan x="24.35" dy="2.001em"
							class="st19">Is</tspan>Overlaps-<tspan class="st17">重叠测试 </tspan><tspan x="29.34" dy="2.001em"
							class="st19">Is</tspan>Ring-<tspan class="st17">环形测试 </tspan><tspan x="25.02" dy="2.001em" class="st19">Is</tspan>Touches-<tspan
							class="st17">接触测试 </tspan><tspan x="25.51" dy="2.001em" class="st19">Is</tspan>Valid-<tspan
							class="st17">有效性测试</tspan></text>			</g>
			<g id="shape1066-393">
				<title>工作表.1066</title>
				<rect x="0" y="418.453" width="108" height="81.5469" class="st18"/>
			</g>
		</g>
	</g>
</svg>
