<?xml version="1.0" encoding="UTF-8" standalone="no"?>
<!DOCTYPE svg PUBLIC "-//W3C//DTD SVG 1.1//EN" "http://www.w3.org/Graphics/SVG/1.1/DTD/svg11.dtd">
<!-- 由 Microsoft Visio, SVG Export 生成 矢量文件-组成.svg Page-1 -->
<svg xmlns="http://www.w3.org/2000/svg" xmlns:xlink="http://www.w3.org/1999/xlink" xmlns:ev="http://www.w3.org/2001/xml-events"
		width="100%" height="100%" viewBox="0 0 523.967 486.095" xml:space="preserve" color-interpolation-filters="sRGB"
		class="st19">
	<style type="text/css">
	<![CDATA[
		.st1 {fill:none;stroke:#7f7f7f;stroke-linecap:round;stroke-linejoin:round;stroke-width:0.75}
		.st2 {fill:#ebf1df;stroke:#595959;stroke-linecap:round;stroke-linejoin:round;stroke-width:0.5}
		.st3 {fill:#fcebdd;stroke:#7f7f7f;stroke-linecap:round;stroke-linejoin:round;stroke-width:0.25}
		.st4 {fill:#c4d6a0;stroke:#7f7f7f;stroke-linecap:round;stroke-linejoin:round;stroke-width:0.25}
		.st5 {fill:none;stroke:none;stroke-linecap:round;stroke-linejoin:round;stroke-width:0.75}
		.st6 {fill:#000000;font-family:宋体;font-size:1.00001em}
		.st7 {font-size:1em}
		.st8 {font-family:Times New Roman;font-size:1em}
		.st9 {fill:#eeeaf2;stroke:#595959;stroke-linecap:round;stroke-linejoin:round;stroke-width:0.5}
		.st10 {fill:#92cddc;stroke:#7f7f7f;stroke-linecap:round;stroke-linejoin:round;stroke-width:0.25}
		.st11 {fill:#000000;font-family:宋体;font-size:1.00001em;font-weight:bold}
		.st12 {fill:none;stroke:#7f7f7f;stroke-linecap:round;stroke-linejoin:round;stroke-width:1}
		.st13 {fill:#ffffff;stroke:#000000;stroke-linecap:round;stroke-linejoin:round;stroke-width:0.75}
		.st14 {fill:#000000;font-family:Times New Roman;font-size:1.00001em}
		.st15 {marker-end:url(#mrkr5-75);stroke:#000000;stroke-linecap:round;stroke-linejoin:round;stroke-width:1}
		.st16 {fill:#000000;fill-opacity:1;stroke:#000000;stroke-opacity:1;stroke-width:0.20161290322581}
		.st17 {stroke:#0070c0;stroke-dasharray:10.5,7.5;stroke-linecap:round;stroke-linejoin:round;stroke-width:1.5}
		.st18 {fill:#000000;font-family:宋体;font-size:1.16666em}
		.st19 {fill:none;fill-rule:evenodd;font-size:12px;overflow:visible;stroke-linecap:square;stroke-miterlimit:3}
	]]>
	</style>

	<defs id="Markers">
		<g id="lend5">
			<path d="M 2 1 L 0 0 L 1.98117 -0.993387 C 1.67173 -0.364515 1.67301 0.372641 1.98465 1.00043 " style="stroke:none"/>
		</g>
		<marker id="mrkr5-75" class="st16" refX="-8.68" orient="auto" markerUnits="strokeWidth" overflow="visible">
			<use xlink:href="#lend5" transform="scale(-4.96,-4.96) "/>
		</marker>
	</defs>
	<g>
		<title>页-1</title>
		<g id="shape49-1" transform="translate(161.928,-306.038)">
			<title>工作表.49</title>
			<rect x="0" y="324.413" width="293.682" height="161.682" class="st1"/>
		</g>
		<g id="shape16-3" transform="translate(184.605,-339.001)">
			<title>工作表.16</title>
			<rect x="0" y="377.821" width="228.485" height="108.274" class="st2"/>
		</g>
		<g id="shape17-5" transform="translate(208.996,-386.891)">
			<title>工作表.17</title>
			<rect x="0" y="436.122" width="90.7087" height="49.9726" class="st3"/>
		</g>
		<g id="shape18-7" transform="translate(305.374,-391.055)">
			<title>工作表.18</title>
			<ellipse cx="49.6063" cy="465.273" rx="49.6063" ry="20.8219" class="st3"/>
		</g>
		<g id="shape19-9" transform="translate(228.839,-351.494)">
			<title>工作表.19</title>
			<rect x="0" y="463.191" width="155.906" height="22.9041" class="st4"/>
		</g>
		<g id="shape20-11" transform="translate(183.051,-400.073)">
			<title>工作表.20</title>
			<desc>图层 2</desc>
			<rect x="0" y="444.451" width="20.117" height="41.6438" class="st5"/>
			<text x="4.06" y="453.78" class="st6">图<tspan x="4.06" dy="1.287em" class="st7">层</tspan><tspan class="st8"> </tspan><tspan
						x="7.06" dy="1.229em" class="st8">2</tspan></text>		</g>
		<g id="shape12-17" transform="translate(212.952,-314.014)">
			<title>工作表.12</title>
			<rect x="0" y="377.821" width="228.485" height="108.274" class="st9"/>
		</g>
		<g id="shape4-19" transform="translate(237.343,-363.079)">
			<title>工作表.4</title>
			<rect x="0" y="436.122" width="90.7087" height="49.9726" class="st10"/>
		</g>
		<g id="shape10-21" transform="translate(333.72,-367.244)">
			<title>工作表.10</title>
			<ellipse cx="49.6063" cy="465.273" rx="49.6063" ry="20.8219" class="st10"/>
		</g>
		<g id="shape11-23" transform="translate(257.185,-327.682)">
			<title>工作表.11</title>
			<rect x="0" y="463.191" width="155.906" height="22.9041" class="st10"/>
		</g>
		<g id="shape14-25" transform="translate(212.677,-373.582)">
			<title>工作表.14</title>
			<desc>图层 1</desc>
			<rect x="0" y="444.451" width="20.117" height="41.6438" class="st5"/>
			<text x="4.06" y="453.78" class="st6">图<tspan x="4.06" dy="1.287em" class="st7">层</tspan><tspan class="st8"> </tspan><tspan
						x="7.06" dy="1.229em" class="st8">1</tspan></text>		</g>
		<g id="shape24-31" transform="translate(191.988,-151.603)">
			<title>工作表.24</title>
			<rect x="0" y="377.821" width="235.276" height="108.274" class="st9"/>
		</g>
		<g id="shape25-33" transform="translate(223.169,-200.668)">
			<title>工作表.25</title>
			<desc>要素1</desc>
			<rect x="0" y="436.122" width="90.7087" height="49.9726" class="st10"/>
			<text x="30.35" y="465.06" class="st6">要素<tspan class="st8">1</tspan></text>		</g>
		<g id="shape26-37" transform="translate(319.547,-204.833)">
			<title>工作表.26</title>
			<desc>要素2</desc>
			<ellipse cx="49.6063" cy="465.273" rx="49.6063" ry="20.8219" class="st10"/>
			<text x="34.61" y="469.22" class="st6">要素<tspan class="st8">2</tspan></text>		</g>
		<g id="shape27-41" transform="translate(243.012,-165.271)">
			<title>工作表.27</title>
			<desc>要素3</desc>
			<rect x="0" y="463.191" width="155.906" height="22.9041" class="st10"/>
			<text x="62.95" y="478.59" class="st6">要素<tspan class="st8">3</tspan></text>		</g>
		<g id="shape28-45" transform="translate(191.988,-218.233)">
			<title>工作表.28</title>
			<desc>图层</desc>
			<rect x="0" y="444.451" width="20.117" height="41.6438" class="st5"/>
			<text x="4.04" y="460.95" class="st11">图<tspan x="4.04" dy="1.291em" class="st7">层</tspan></text>		</g>
		<g id="shape29-49" transform="translate(169.311,-42.5482)">
			<title>工作表.29</title>
			<rect x="0" y="418.064" width="90.7087" height="68.0315" class="st12"/>
		</g>
		<g id="shape30-51" transform="translate(328.051,-74.438)">
			<title>工作表.30</title>
			<desc>Shape</desc>
			<rect x="0" y="464.835" width="70.8661" height="21.2598" class="st13"/>
			<text x="20.77" y="479.07" class="st14">Shape</text>		</g>
		<g id="shape32-54" transform="translate(398.917,-74.438)">
			<title>工作表.32</title>
			<desc>Area</desc>
			<rect x="0" y="464.835" width="70.8661" height="21.2598" class="st13"/>
			<text x="23.78" y="479.07" class="st14">Area</text>		</g>
		<g id="shape33-57" transform="translate(328.051,-53.1782)">
			<title>工作表.33</title>
			<desc>Rectangle</desc>
			<rect x="0" y="464.835" width="70.8661" height="21.2598" class="st13"/>
			<text x="11.44" y="479.07" class="st14">Rectangle</text>		</g>
		<g id="shape34-60" transform="translate(398.917,-53.1782)">
			<title>工作表.34</title>
			<desc>4</desc>
			<rect x="0" y="464.835" width="70.8661" height="21.2598" class="st13"/>
			<text x="32.43" y="479.07" class="st14">4</text>		</g>
		<g id="shape35-63" transform="translate(169.311,-18.375)">
			<title>工作表.35</title>
			<desc>几何体</desc>
			<rect x="0" y="466.095" width="90.7087" height="20" class="st5"/>
			<text x="27.35" y="480.04" class="st6">几何体</text>		</g>
		<g id="shape36-66" transform="translate(350.728,-18.375)">
			<title>工作表.36</title>
			<desc>字段/属性表</desc>
			<rect x="0" y="466.095" width="90.7087" height="20" class="st5"/>
			<text x="13.69" y="480.04" class="st6">字段<tspan class="st8">/</tspan>属性表</text>		</g>
		<g id="shape41-70" transform="translate(236.811,-200.668)">
			<title>动态连接线</title>
			<path d="M-7.09 486.1 L-7.09 567.5" class="st15"/>
		</g>
		<g id="shape42-76" transform="translate(229.724,-142.056)">
			<title>动态连接线.42</title>
			<path d="M0 486.1 L133.76 486.1 L133.76 523.77" class="st15"/>
		</g>
		<g id="shape43-81" transform="translate(309.626,-314.014)">
			<title>动态连接线.43</title>
			<path d="M7.09 486.1 L7.09 531.55" class="st15"/>
		</g>
		<g id="shape44-86" transform="translate(18.75,-292.151)">
			<title>工作表.44</title>
			<path d="M0 486.1 L486.47 486.1" class="st17"/>
		</g>
		<g id="shape45-89" transform="translate(18.75,-128.631)">
			<title>工作表.45</title>
			<path d="M0 486.1 L486.47 486.1" class="st17"/>
		</g>
		<g id="shape46-92" transform="translate(20.1959,-359.822)">
			<title>工作表.46</title>
			<desc>数据资源 DataSource</desc>
			<rect x="0" y="444.451" width="127.855" height="41.6438" class="st5"/>
			<text x="35.93" y="460.53" class="st18">数据资源 <tspan x="31.28" dy="1.536em" class="st8">DataSource</tspan></text>		</g>
		<g id="shape47-96" transform="translate(20.1959,-184.64)">
			<title>工作表.47</title>
			<desc>矢量图层 Layer</desc>
			<rect x="0" y="444.451" width="127.855" height="41.6438" class="st5"/>
			<text x="35.93" y="460.53" class="st18">矢量图层 <tspan x="47.61" dy="1.536em" class="st8">Layer</tspan></text>		</g>
		<g id="shape48-100" transform="translate(20.1959,-57.5973)">
			<title>工作表.48</title>
			<desc>矢量要素 Feature</desc>
			<rect x="0" y="444.451" width="127.855" height="41.6438" class="st5"/>
			<text x="35.93" y="460.53" class="st18">矢量要素 <tspan x="42.94" dy="1.536em" class="st8">Feature</tspan></text>		</g>
		<g id="shape50-104" transform="translate(158.677,-449.241)">
			<title>工作表.50</title>
			<desc>数据资源</desc>
			<rect x="0" y="471.404" width="70.1614" height="14.691" class="st5"/>
			<text x="10.99" y="482.71" class="st11">数据资源</text>		</g>
	</g>
</svg>
