<?xml version="1.0" encoding="UTF-8" standalone="no"?>
<!DOCTYPE svg PUBLIC "-//W3C//DTD SVG 1.1//EN" "http://www.w3.org/Graphics/SVG/1.1/DTD/svg11.dtd">
<!-- 由 Microsoft Visio, SVG Export 生成 构建思路.svg Page-1 -->
<svg xmlns="http://www.w3.org/2000/svg" xmlns:xlink="http://www.w3.org/1999/xlink" xmlns:ev="http://www.w3.org/2001/xml-events"
		width="12.6792in" height="6.82833in" viewBox="0 0 912.905 491.64" xml:space="preserve" color-interpolation-filters="sRGB"
		class="st12">
	<style type="text/css">
	<![CDATA[
		.st1 {fill:#bdd0e9;stroke:#c7c8c8;stroke-width:0.25}
		.st2 {fill:#000000;font-family:微软雅黑;font-size:1.5em}
		.st3 {fill:#e2efd9;stroke:#c7c8c8;stroke-width:0.25}
		.st4 {fill:#fbe5d5;stroke:#c7c8c8;stroke-width:0.25}
		.st5 {fill:#cbffff;stroke:#c7c8c8;stroke-width:0.25}
		.st6 {marker-end:url(#mrkr4-39);stroke:#000000;stroke-linecap:round;stroke-linejoin:round;stroke-width:1}
		.st7 {fill:#000000;fill-opacity:1;stroke:#000000;stroke-opacity:1;stroke-width:0.28409090909091}
		.st8 {stroke:#7f7f7f;stroke-dasharray:7,5;stroke-linecap:round;stroke-linejoin:round;stroke-width:1}
		.st9 {fill:#f2f2f2;stroke:#c7c8c8;stroke-width:0.25}
		.st10 {fill:none;stroke:none;stroke-width:0.25}
		.st11 {fill:#7f7f7f;font-family:微软雅黑;font-size:1.5em}
		.st12 {fill:none;fill-rule:evenodd;font-size:12px;overflow:visible;stroke-linecap:square;stroke-miterlimit:3}
	]]>
	</style>

	<defs id="Markers">
		<g id="lend4">
			<path d="M 2 1 L 0 0 L 2 -1 L 2 1 " style="stroke:none"/>
		</g>
		<marker id="mrkr4-39" class="st7" refX="-7.04" orient="auto" markerUnits="strokeWidth" overflow="visible">
			<use xlink:href="#lend4" transform="scale(-3.52,-3.52) "/>
		</marker>
	</defs>
	<g>
		<title>页-1</title>
		<g id="shape2-1" transform="translate(563.761,-430.87)">
			<title>圆角矩形</title>
			<desc>库</desc>
			<path d="M9.59 491.64 L86.34 491.64 A9.59326 9.59326 -180 0 0 95.93 482.05 L95.93 458.71 A9.59326 9.59326 -180 0 0 86.34
						 449.12 L9.59 449.12 A9.59326 9.59326 -180 0 0 -0 458.71 L0 482.05 A9.59326 9.59326 -180 0 0 9.59 491.64
						 Z" class="st1"/>
			<text x="38.97" y="475.78" class="st2">库</text>		</g>
		<g id="shape3-4" transform="translate(419.86,-327.051)">
			<title>圆角矩形.3</title>
			<desc>模块1</desc>
			<path d="M9.59 491.64 L86.34 491.64 A9.59326 9.59326 -180 0 0 95.93 482.05 L95.93 458.71 A9.59326 9.59326 -180 0 0 86.34
						 449.12 L9.59 449.12 A9.59326 9.59326 -180 0 0 -0 458.71 L0 482.05 A9.59326 9.59326 -180 0 0 9.59 491.64
						 Z" class="st3"/>
			<text x="24.69" y="475.78" class="st2">模块1</text>		</g>
		<g id="shape4-7" transform="translate(563.761,-327.051)">
			<title>圆角矩形.4</title>
			<desc>模块2</desc>
			<path d="M9.59 491.64 L86.34 491.64 A9.59326 9.59326 -180 0 0 95.93 482.05 L95.93 458.71 A9.59326 9.59326 -180 0 0 86.34
						 449.12 L9.59 449.12 A9.59326 9.59326 -180 0 0 -0 458.71 L0 482.05 A9.59326 9.59326 -180 0 0 9.59 491.64
						 Z" class="st3"/>
			<text x="24.69" y="475.78" class="st2">模块2</text>		</g>
		<g id="shape5-10" transform="translate(707.662,-327.051)">
			<title>圆角矩形.5</title>
			<desc>模块3</desc>
			<path d="M9.59 491.64 L86.34 491.64 A9.59326 9.59326 -180 0 0 95.93 482.05 L95.93 458.71 A9.59326 9.59326 -180 0 0 86.34
						 449.12 L9.59 449.12 A9.59326 9.59326 -180 0 0 -0 458.71 L0 482.05 A9.59326 9.59326 -180 0 0 9.59 491.64
						 Z" class="st3"/>
			<text x="24.69" y="475.78" class="st2">模块3</text>		</g>
		<g id="shape13-13" transform="translate(349.108,-219.335)">
			<title>圆角矩形.13</title>
			<desc>类1</desc>
			<path d="M9.59 491.64 L86.34 491.64 A9.59326 9.59326 -180 0 0 95.93 482.05 L95.93 458.71 A9.59326 9.59326 -180 0 0 86.34
						 449.12 L9.59 449.12 A9.59326 9.59326 -180 0 0 -0 458.71 L0 482.05 A9.59326 9.59326 -180 0 0 9.59 491.64
						 Z" class="st4"/>
			<text x="33.69" y="475.78" class="st2">类1</text>		</g>
		<g id="shape14-16" transform="translate(493.009,-219.335)">
			<title>圆角矩形.14</title>
			<desc>函数1</desc>
			<path d="M9.59 491.64 L86.34 491.64 A9.59326 9.59326 -180 0 0 95.93 482.05 L95.93 458.71 A9.59326 9.59326 -180 0 0 86.34
						 449.12 L9.59 449.12 A9.59326 9.59326 -180 0 0 -0 458.71 L0 482.05 A9.59326 9.59326 -180 0 0 9.59 491.64
						 Z" class="st4"/>
			<text x="24.69" y="475.78" class="st2">函数1</text>		</g>
		<g id="shape15-19" transform="translate(636.911,-219.335)">
			<title>圆角矩形.15</title>
			<desc>……</desc>
			<path d="M9.59 491.64 L86.34 491.64 A9.59326 9.59326 -180 0 0 95.93 482.05 L95.93 458.71 A9.59326 9.59326 -180 0 0 86.34
						 449.12 L9.59 449.12 A9.59326 9.59326 -180 0 0 -0 458.71 L0 482.05 A9.59326 9.59326 -180 0 0 9.59 491.64
						 Z" class="st4"/>
			<text x="33.32" y="475.78" class="st2">……</text>		</g>
		<g id="shape16-22" transform="translate(349.108,-110.201)">
			<title>圆角矩形.16</title>
			<desc>属性1</desc>
			<path d="M9.59 491.64 L86.34 491.64 A9.59326 9.59326 -180 0 0 95.93 482.05 L95.93 458.71 A9.59326 9.59326 -180 0 0 86.34
						 449.12 L9.59 449.12 A9.59326 9.59326 -180 0 0 -0 458.71 L0 482.05 A9.59326 9.59326 -180 0 0 9.59 491.64
						 Z" class="st5"/>
			<text x="24.69" y="475.78" class="st2">属性1</text>		</g>
		<g id="shape17-25" transform="translate(493.009,-110.201)">
			<title>圆角矩形.17</title>
			<desc>子类1</desc>
			<path d="M9.59 491.64 L86.34 491.64 A9.59326 9.59326 -180 0 0 95.93 482.05 L95.93 458.71 A9.59326 9.59326 -180 0 0 86.34
						 449.12 L9.59 449.12 A9.59326 9.59326 -180 0 0 -0 458.71 L0 482.05 A9.59326 9.59326 -180 0 0 9.59 491.64
						 Z" class="st5"/>
			<text x="24.69" y="475.78" class="st2">子类1</text>		</g>
		<g id="shape18-28" transform="translate(636.911,-110.201)">
			<title>圆角矩形.18</title>
			<desc>……</desc>
			<path d="M9.59 491.64 L86.34 491.64 A9.59326 9.59326 -180 0 0 95.93 482.05 L95.93 458.71 A9.59326 9.59326 -180 0 0 86.34
						 449.12 L9.59 449.12 A9.59326 9.59326 -180 0 0 -0 458.71 L0 482.05 A9.59326 9.59326 -180 0 0 9.59 491.64
						 Z" class="st5"/>
			<text x="33.32" y="475.78" class="st2">……</text>		</g>
		<g id="shape19-31" transform="translate(205.207,-110.201)">
			<title>圆角矩形.19</title>
			<desc>方法1</desc>
			<path d="M9.59 491.64 L86.34 491.64 A9.59326 9.59326 -180 0 0 95.93 482.05 L95.93 458.71 A9.59326 9.59326 -180 0 0 86.34
						 449.12 L9.59 449.12 A9.59326 9.59326 -180 0 0 -0 458.71 L0 482.05 A9.59326 9.59326 -180 0 0 9.59 491.64
						 Z" class="st5"/>
			<text x="24.69" y="475.78" class="st2">方法1</text>		</g>
		<g id="shape20-34" transform="translate(618.815,-430.87)">
			<title>动态连接线</title>
			<path d="M-7.09 491.64 L-7.09 545.9" class="st6"/>
		</g>
		<g id="shape21-40" transform="translate(611.728,-430.87)">
			<title>动态连接线.21</title>
			<path d="M0 491.64 L0 522.04 L-143.9 522.04 L-143.9 545.9" class="st6"/>
		</g>
		<g id="shape22-45" transform="translate(611.728,-430.87)">
			<title>动态连接线.22</title>
			<path d="M0 491.64 L0 522.04 L143.9 522.04 L143.9 545.9" class="st6"/>
		</g>
		<g id="shape23-50" transform="translate(467.827,-327.051)">
			<title>动态连接线.23</title>
			<path d="M0 491.64 L0 524.24 L-70.75 524.24 L-70.75 549.8" class="st6"/>
		</g>
		<g id="shape24-55" transform="translate(467.827,-327.051)">
			<title>动态连接线.24</title>
			<path d="M0 491.64 L0 524.24 L73.15 524.24 L73.15 549.8" class="st6"/>
		</g>
		<g id="shape25-60" transform="translate(389.989,-219.335)">
			<title>动态连接线.25</title>
			<path d="M7.09 491.64 L7.09 551.21" class="st6"/>
		</g>
		<g id="shape26-65" transform="translate(397.075,-219.335)">
			<title>动态连接线.26</title>
			<path d="M0 491.64 L0 527.25 L-143.9 527.25 L-143.9 551.21" class="st6"/>
		</g>
		<g id="shape27-70" transform="translate(397.075,-219.335)">
			<title>动态连接线.27</title>
			<path d="M0 491.64 L0 527.07 L143.9 527.07 L143.9 551.21" class="st6"/>
		</g>
		<g id="shape28-75" transform="translate(20.3044,-410.848)">
			<title>工作表.28</title>
			<path d="M0 491.64 L874.1 491.64" class="st8"/>
		</g>
		<g id="shape29-78" transform="translate(18.5,-311.636)">
			<title>工作表.29</title>
			<path d="M0 491.64 L875.91 491.64" class="st8"/>
		</g>
		<g id="shape30-81" transform="translate(18.5,-198.25)">
			<title>工作表.30</title>
			<path d="M0 491.64 L875.91 491.64" class="st8"/>
		</g>
		<g id="shape31-84" transform="translate(25.3557,-84.8642)">
			<title>工作表.31</title>
			<path d="M0 491.64 L869.05 491.64" class="st8"/>
		</g>
		<g id="shape32-87" transform="translate(349.108,-18.25)">
			<title>圆角矩形.32</title>
			<desc>……</desc>
			<path d="M9.59 491.64 L86.34 491.64 A9.59326 9.59326 -180 0 0 95.93 482.05 L95.93 458.71 A9.59326 9.59326 -180 0 0 86.34
						 449.12 L9.59 449.12 A9.59326 9.59326 -180 0 0 -0 458.71 L0 482.05 A9.59326 9.59326 -180 0 0 9.59 491.64
						 Z" class="st9"/>
			<text x="33.32" y="475.78" class="st2">……</text>		</g>
		<g id="shape1000-90" transform="translate(79.3658,-417.122)">
			<title>工作表.1000</title>
			<desc>库</desc>
			<rect x="0" y="449.12" width="90.7129" height="42.5197" class="st10"/>
			<text x="36.36" y="475.78" class="st11">库</text>		</g>
		<g id="shape1001-93" transform="translate(79.3658,-332.083)">
			<title>工作表.1001</title>
			<desc>模块</desc>
			<rect x="0" y="460.38" width="90.7129" height="31.2598" class="st10"/>
			<text x="27.36" y="481.41" class="st11">模块</text>		</g>
		<g id="shape1002-96" transform="translate(79.3658,-229.957)">
			<title>工作表.1002</title>
			<desc>功能</desc>
			<rect x="0" y="460.38" width="90.7129" height="31.2598" class="st10"/>
			<text x="27.36" y="481.41" class="st11">功能</text>		</g>
		<g id="shape1003-99" transform="translate(79.3658,-113.386)">
			<title>工作表.1003</title>
			<desc>子功能</desc>
			<rect x="0" y="460.38" width="90.7129" height="31.2598" class="st10"/>
			<text x="18.36" y="481.41" class="st11">子功能</text>		</g>
	</g>
</svg>
