<svg id="书" xmlns="http://www.w3.org/2000/svg" baseProfile="full" width="100%" height="100%" viewBox="0 0 1408 1395">
  <defs>
    <style>
      .cls-1 {
        fill: #4671c6;
      }

      .cls-1, .cls-11, .cls-2, .cls-3, .cls-5, .cls-8, .cls-9 {
        stroke: #3762cc;
      }

      .cls-1, .cls-2 {
        stroke-width: 16px;
      }

      .cls-2, .cls-5 {
        fill: #e0ebfc;
      }

      .cls-2, .cls-3, .cls-4, .cls-6, .cls-7, .cls-8, .cls-9 {
        fill-rule: evenodd;
      }

      .cls-10, .cls-11, .cls-3 {
        fill: none;
      }

      .cls-11, .cls-3, .cls-5, .cls-6 {
        stroke-width: 20px;
      }

      .cls-4 {
        fill: #b9befc;
      }

      .cls-6, .cls-7 {
        fill: #6bdddd;
      }

      .cls-6 {
        stroke: #6bdddd;
      }

      .cls-8 {
        fill: #a4c9ff;
      }

      .cls-8, .cls-9 {
        stroke-width: 10px;
      }

      .cls-9 {
        fill: #ffea92;
      }

      .cls-10 {
        stroke: #c9c9c9;
        stroke-width: 30px;
      }
    </style>
  </defs>
  <rect id="外框" class="cls-1" x="112" y="576.938" width="1181" height="721.062" rx="30" ry="30"/>
  <path id="内框" class="cls-2" d="M193.819,587.548l512.449-183.9,505.992,183.9a21.583,21.583,0,0,1,21.53,21.635v616.6a21.587,21.587,0,0,1-21.53,21.64H193.819a21.587,21.587,0,0,1-21.531-21.64v-616.6A21.583,21.583,0,0,1,193.819,587.548Z"/>
  <path id="书页_左" data-name="书页 左" class="cls-3" d="M695,1284s-0.2-42.9,0-57c0.883-61.7-61.723-108.03-134-107-209.855,2.99-385,81-385,81"/>
  <path id="书页_右" data-name="书页 右" class="cls-3" d="M697,1270s0.2-39.9,0-54c-0.883-61.7,70.244-105.2,148-106,153.368-1.58,388,70,388,70"/>
  <path id="书_中线" data-name="书 中线" class="cls-3" d="M695.5,1291.54V410.108"/>
  <g id="内容">
    <g id="左">
      <path id="内容_左_1" data-name="内容 左 1" class="cls-4" d="M234.693,1014.07c135.154-47.451,310.836-82.4,402.21-36.02,11.576,6.242,1.215,28.05-9,28.02-22.651-.07-82-57.078-381.2,37.02C226.567,1049.42,216.124,1020.59,234.693,1014.07Z"/>
      <path id="内容_左_2" data-name="内容 左 2" class="cls-4" d="M234.693,898c135.154-47.456,310.836-82.4,402.21-36.024,11.576,6.241,1.215,28.049-9,28.019-22.651-.068-82-57.077-381.2,37.024C226.567,933.348,216.124,904.518,234.693,898Z"/>
      <path id="内容_左_3" data-name="内容 左 3" class="cls-4" d="M234.693,789.927c135.154-47.456,310.836-82.4,402.21-36.024,11.576,6.241,1.215,28.049-9,28.018-22.651-.067-82-57.076-381.2,37.025C226.567,825.277,216.124,796.447,234.693,789.927Z"/>
      <path id="内容_左_4" data-name="内容 左 4" class="cls-4" d="M234.693,673.85c135.154-47.455,310.836-82.4,402.21-36.023,11.576,6.241,1.215,28.048-9,28.018-22.651-.067-82-57.076-381.2,37.025C226.567,709.2,216.124,680.37,234.693,673.85Z"/>
    </g>
    <g id="右">
      <path id="内容_右_1" data-name="内容 右 1" class="cls-4" d="M1158.31,1014.07c-135.16-47.451-310.84-82.4-402.214-36.02-11.575,6.242-1.214,28.05,9,28.02,22.651-.07,82-57.078,381.2,37.02C1166.43,1049.42,1176.88,1020.59,1158.31,1014.07Z"/>
      <path id="内容_右_2" data-name="内容 右 2" class="cls-4" d="M1158.31,898c-135.16-47.456-310.84-82.4-402.214-36.024-11.575,6.241-1.214,28.049,9,28.019,22.651-.068,82-57.077,381.2,37.024C1166.43,933.348,1176.88,904.518,1158.31,898Z"/>
      <path id="内容_右_3" data-name="内容 右 3" class="cls-4" d="M1158.31,789.927c-135.16-47.456-310.84-82.4-402.214-36.024-11.575,6.241-1.214,28.049,9,28.019,22.651-.068,82-57.077,381.2,37.024C1166.43,825.277,1176.88,796.447,1158.31,789.927Z"/>
      <path id="内容_右_4" data-name="内容 右 4" class="cls-4" d="M1158.31,673.85C1023.15,626.4,847.47,591.45,756.1,637.827c-11.575,6.241-1.214,28.048,9,28.018,22.651-.067,82-57.076,381.2,37.025C1166.43,709.2,1176.88,680.37,1158.31,673.85Z"/>
    </g>
  </g>
  <circle id="地球" class="cls-5" cx="700.892" cy="502.656" r="404.798"/>
  <path id="地图_左" data-name="地图 左" class="cls-6" d="M478.417,229.148s-12.12,62.217,47.37,69.955c7.822,1.018,46.292,44.126,46.292,44.126v50.583l-29.067,45.2-49.523,2.153s-30.022-21.772-47.369,21.525c-3.8,9.48,1.287,24.756,6.46,72.107,0.291,2.669-15.886,27-39.834,68.879-7.724,13.508-21.4-2.319-38.756,26.906-2.835,4.772-20.761,21.869,17.225,62.421,2.818,3.008,10.421,20.571,39.833,2.153,10.322-6.464,33.861,12.017,33.374,31.211-0.037,1.452-.293,17.674,19.378,33.363,23.485,18.731,21.966.655,60.288,11.838,4.984,1.455,20.941,12.48,18.3,38.745-1.849,18.407,23.067,32.031,30.144,44.125C603.544,873.255,605.613,875.144,605,875,480.769,845.792,317,716.574,317,502c0-119.838,58.215-233.273,136-294C453.691,208.265,478.417,229.148,478.417,229.148Z">
	  <animateTransform attributeType="XML" attributeName="transform" begin="0s" dur="6s" type="rotate" from="360 700.892 502.656" to="0 700.892 502.656" repeatCount="indefinite"/>
  </path>
  <path id="地图_右" data-name="地图 右" class="cls-6" d="M916.74,239.063s-16.4,16.014-25.838,31.21c-4.159,6.7-17.225,22.6-17.225,22.6s-7.823,4.764,3.23,24.754c5.586,10.1,15.573,15.761,30.144,8.61,11.543-5.666,17.526-19.809,35.527-1.077,9.806,10.2,14.177,30.834-34.45,36.592-37.089,4.392-59.212,53.812-59.212,53.812s-19.779,24.556,16.149,54.888c8.135,6.868,20.438,34.373,38.756,30.134,18.924-4.378,45.175-7.82,68.9-23.677,17.212-11.5,54.768-9.515,72.128,34.44,4.85,12.267-11.25,38.233-40.18,45.772C884.011,588.56,875.88,553.486,859.682,599.6c-5.422,15.436-14.94,28.143-30.144,40.9-7.457,6.255-7.124,5.435,0,43.049,3.393,17.918,12.714,33.247,37.68,36.592,19.957,2.674,31.252,41.383,9.689,68.879-1.436,1.831,5.834,7.13,11.842,27.982,2.561,8.885-7.74,25.464-6.749,25,45.58-21.337,203-126.48,203-341,0-119.808-51.02-208.932-117-275C967.31,226.265,916.74,239.063,916.74,239.063Z">
	  <animateTransform attributeType="XML" attributeName="transform" begin="0s" dur="6s" type="rotate" from="360 700.892 502.656" to="0 700.892 502.656" repeatCount="indefinite"/>
  </path>
  <path id="地图_岛_左" data-name="地图 岛 左" class="cls-7" d="M472.652,618.9c16.134,2.962,30.739,2.176,43.063,19.372,7.26,10.132,23.811,12.426,38.756,12.915,11.51,0.376,27.407,13.353,33.374,31.211,6.282,18.8-3.681,19.306-32.3,15.067-22.534-3.338-41.841-6.442-50.6-19.372-6.443-9.512-14-5.479-19.378-25.83-2.671-10.1-12.554-11.567-25.838-10.762-16.108.976-17.335-14.4-15.8-22.25C444.4,616.851,445.74,613.956,472.652,618.9Z">
	  <animateTransform attributeType="XML" attributeName="transform" begin="0s" dur="6s" type="rotate" from="360 700.892 502.656" to="0 700.892 502.656" repeatCount="indefinite"/>
  </path>
  <path id="地图_岛_右" data-name="地图 岛 右" class="cls-7" d="M750.407,334.771c2.982-2.79,17.352-23.089,32.3-22.6,8.122,0.266,10.727,9.4,14,21.525,1.643,6.1-6.227,22.953-8.613,24.753-14.9,11.252-15.086-5.016-27.99,8.61-13.631,14.394-30.14,25.942-36.6,20.449C712.9,378.5,759.651,326.119,750.407,334.771Z">
	  <animateTransform attributeType="XML" attributeName="transform" begin="0s" dur="6s" type="rotate" from="360 700.892 502.656" to="0 700.892 502.656" repeatCount="indefinite"/>
  </path>
  <path id="手柄" class="cls-8" d="M1094.31,790.557l180.04,171.267c3.82,3.638,3.03,10.674-1.76,15.714l-52.13,54.762c-4.8,5.04-11.79,6.18-15.61,2.54L1024.8,863.575c-3.82-3.638-3.03-10.673,1.77-15.714l52.12-54.764C1083.49,788.057,1090.48,786.919,1094.31,790.557Z"/>
  <path id="手柄_黄" data-name="手柄 黄" class="cls-9" d="M1015.52,729.746l63.45,60.463c1.75,1.669,1.51,4.767-.54,6.918l-49.02,51.417c-2.05,2.152-5.14,2.542-6.89.872l-63.454-60.462c-1.752-1.67-1.51-4.767.541-6.918l49.023-51.417C1010.68,728.467,1013.76,728.077,1015.52,729.746Z"/>
  <ellipse id="放大镜_中" data-name="放大镜 中" class="cls-10" cx="824" cy="601" rx="218" ry="215"/>
  <circle id="放大镜_外" data-name="放大镜 外" class="cls-11" cx="825" cy="601" r="236"/>
</svg>
