<svg id="书" xmlns="http://www.w3.org/2000/svg" baseProfile="full" width="100%" height="100%" viewBox="0 0 1643 1607">
  <defs>
    <style>
      .cls-1 {
        fill: #4671c6;
      }

      .cls-1, .cls-11, .cls-2, .cls-3, .cls-5, .cls-8, .cls-9 {
        stroke: #3762cc;
      }

      .cls-1, .cls-2 {
        stroke-width: 16px;
      }

      .cls-2, .cls-5 {
        fill: #e0ebfc;
      }

      .cls-2, .cls-3, .cls-4, .cls-6, .cls-7, .cls-8, .cls-9 {
        fill-rule: evenodd;
      }

      .cls-10, .cls-11, .cls-3 {
        fill: none;
      }

      .cls-11, .cls-3, .cls-5, .cls-6 {
        stroke-width: 20px;
      }

      .cls-4 {
        fill: #b9befc;
      }

      .cls-6, .cls-7 {
        fill: #6bdddd;
      }

      .cls-6 {
        stroke: #6bdddd;
      }

      .cls-8 {
        fill: #a4c9ff;
      }

      .cls-8, .cls-9 {
        stroke-width: 10px;
      }

      .cls-9 {
        fill: #ffea92;
      }

      .cls-10 {
        stroke: #c9c9c9;
        stroke-width: 30px;
      }
    </style>
  </defs>
  <rect id="外框" class="cls-1" x="225" y="592.938" width="1181" height="721.062" rx="30" ry="30"/>
  <path id="内框" class="cls-2" d="M306.819,603.548l512.449-183.9,505.992,183.9a21.583,21.583,0,0,1,21.53,21.635v616.6a21.587,21.587,0,0,1-21.53,21.64H306.819a21.587,21.587,0,0,1-21.531-21.64v-616.6A21.583,21.583,0,0,1,306.819,603.548Z"/>
  <path id="书页_左" data-name="书页 左" class="cls-3" d="M808,1300s-0.2-42.9,0-57c0.882-61.7-61.723-108.03-134-107-209.855,2.99-385,81-385,81"/>
  <path id="书页_右" data-name="书页 右" class="cls-3" d="M810,1286s0.2-39.9,0-54c-0.883-61.7,70.244-105.2,148-106,153.37-1.58,388,70,388,70"/>
  <path id="书_中线" data-name="书 中线" class="cls-3" d="M808.5,1307.54V426.108"/>
  <g id="内容">
    <g id="左">
      <path id="内容_左_1" data-name="内容 左 1" class="cls-4" d="M347.693,1030.07c135.154-47.451,310.836-82.4,402.21-36.02,11.576,6.24,1.214,28.05-9,28.02-22.651-.07-82-57.078-381.2,37.02C339.567,1065.42,329.124,1036.59,347.693,1030.07Z"/>
      <path id="内容_左_2" data-name="内容 左 2" class="cls-4" d="M347.693,914c135.154-47.456,310.836-82.4,402.21-36.024,11.576,6.241,1.214,28.049-9,28.018-22.651-.067-82-57.076-381.2,37.025C339.567,949.348,329.124,920.518,347.693,914Z"/>
      <path id="内容_左_3" data-name="内容 左 3" class="cls-4" d="M347.693,805.927c135.154-47.456,310.836-82.4,402.21-36.024,11.576,6.241,1.214,28.049-9,28.018-22.651-.067-82-57.076-381.2,37.025C339.567,841.277,329.124,812.447,347.693,805.927Z"/>
      <path id="内容_左_4" data-name="内容 左 4" class="cls-4" d="M347.693,689.85c135.154-47.455,310.836-82.4,402.21-36.023,11.576,6.241,1.214,28.048-9,28.018-22.651-.067-82-57.076-381.2,37.024C339.567,725.2,329.124,696.37,347.693,689.85Z"/>
    </g>
    <g id="右">
      <path id="内容_右_1" data-name="内容 右 1" class="cls-4" d="M1271.31,1030.07c-135.16-47.451-310.84-82.4-402.214-36.02-11.576,6.24-1.214,28.05,9,28.02,22.651-.07,82-57.078,381.2,37.02C1279.43,1065.42,1289.88,1036.59,1271.31,1030.07Z"/>
      <path id="内容_右_2" data-name="内容 右 2" class="cls-4" d="M1271.31,914c-135.16-47.456-310.84-82.4-402.214-36.024-11.576,6.241-1.214,28.049,9,28.018,22.651-.067,82-57.076,381.2,37.025C1279.43,949.348,1289.88,920.518,1271.31,914Z"/>
      <path id="内容_右_3" data-name="内容 右 3" class="cls-4" d="M1271.31,805.927c-135.16-47.456-310.84-82.4-402.214-36.024-11.576,6.241-1.214,28.049,9,28.018,22.651-.067,82-57.076,381.2,37.025C1279.43,841.277,1289.88,812.447,1271.31,805.927Z"/>
      <path id="内容_右_4" data-name="内容 右 4" class="cls-4" d="M1271.31,689.85C1136.15,642.4,960.47,607.45,869.1,653.827c-11.576,6.241-1.214,28.048,9,28.018,22.651-.067,82-57.076,381.2,37.024C1279.43,725.2,1289.88,696.37,1271.31,689.85Z"/>
    </g>
  </g>
  <circle id="地球" class="cls-5" cx="813.892" cy="518.656" r="404.798"/>
  <path id="地图_左" data-name="地图 左" class="cls-6" d="M591.417,245.148s-12.12,62.217,47.37,69.955c7.822,1.018,46.292,44.126,46.292,44.126v50.583l-29.067,45.2-49.523,2.153s-30.022-21.772-47.369,21.525c-3.8,9.48,1.287,24.756,6.46,72.107,0.291,2.669-15.886,27-39.834,68.879-7.724,13.508-21.4-2.319-38.756,26.906-2.835,4.772-20.761,21.869,17.225,62.421,2.818,3.008,10.421,20.571,39.833,2.153,10.322-6.464,33.861,12.017,33.374,31.211-0.037,1.452-.293,17.674,19.378,33.363,23.485,18.731,21.966.655,60.288,11.838,4.984,1.455,20.941,12.48,18.3,38.745-1.849,18.407,23.067,32.031,30.144,44.125C716.544,889.255,718.613,891.144,718,891,593.769,861.792,430,732.574,430,518c0-119.838,58.215-233.273,136-294C566.691,224.265,591.417,245.148,591.417,245.148Z"/>
  <path id="地图_右" data-name="地图 右" class="cls-6" d="M1029.74,255.063s-16.4,16.014-25.84,31.21c-4.157,6.7-17.223,22.6-17.223,22.6s-7.823,4.764,3.23,24.754c5.586,10.1,15.573,15.761,30.143,8.61,11.54-5.666,17.53-19.809,35.53-1.077,9.8,10.2,14.17,30.834-34.45,36.592-37.091,4.392-59.214,53.812-59.214,53.812s-19.779,24.556,16.149,54.888c8.135,6.868,20.438,34.373,38.755,30.134,18.92-4.378,45.18-7.82,68.9-23.677,17.21-11.5,54.77-9.515,72.13,34.44,4.85,12.267-11.25,38.233-40.18,45.772C997.011,604.56,988.88,569.486,972.682,615.6c-5.422,15.436-14.94,28.143-30.144,40.9-7.457,6.255-7.124,5.435,0,43.049,3.393,17.918,12.714,33.247,37.68,36.592,19.952,2.674,31.252,41.383,9.689,68.879-1.436,1.831,5.834,7.13,11.843,27.982,2.56,8.885-7.741,25.464-6.75,25,45.58-21.337,203-126.48,203-341,0-119.808-51.02-208.932-117-275C1080.31,242.265,1029.74,255.063,1029.74,255.063Z"/>
  <path id="地图_岛_左" data-name="地图 岛 左" class="cls-7" d="M585.652,634.9c16.134,2.962,30.739,2.176,43.063,19.372,7.26,10.132,23.811,12.426,38.756,12.915,11.51,0.376,27.407,13.353,33.374,31.211,6.282,18.8-3.681,19.306-32.3,15.067-22.534-3.338-41.841-6.442-50.6-19.372-6.443-9.512-14-5.479-19.378-25.83-2.671-10.1-12.554-11.567-25.838-10.762-16.108.976-17.335-14.4-15.8-22.25C557.4,632.851,558.74,629.956,585.652,634.9Z"/>
  <path id="地图_岛_右" data-name="地图 岛 右" class="cls-7" d="M863.407,350.771c2.982-2.79,17.352-23.089,32.3-22.6,8.122,0.266,10.727,9.4,14,21.525,1.643,6.1-6.227,22.953-8.613,24.753-14.9,11.252-15.086-5.016-27.99,8.61-13.631,14.394-30.14,25.942-36.6,20.449C825.9,394.5,872.651,342.119,863.407,350.771Z"/>
  <path id="手柄" class="cls-8" d="M1207.31,806.557l180.04,171.267c3.82,3.638,3.03,10.674-1.76,15.714l-52.13,54.762c-4.8,5.04-11.79,6.18-15.61,2.54L1137.8,879.575c-3.82-3.638-3.03-10.673,1.77-15.714l52.12-54.764C1196.49,804.057,1203.48,802.919,1207.31,806.557Z"/>
  <path id="手柄_黄" data-name="手柄 黄" class="cls-9" d="M1128.52,745.746l63.45,60.463c1.75,1.669,1.51,4.767-.54,6.918l-49.02,51.417c-2.05,2.152-5.14,2.542-6.89.872l-63.45-60.462c-1.76-1.67-1.51-4.767.54-6.918l49.02-51.417C1123.68,744.467,1126.76,744.077,1128.52,745.746Z"/>
  <ellipse id="放大镜_中" data-name="放大镜 中" class="cls-10" cx="937" cy="617" rx="218" ry="215"/>
  <circle id="放大镜_外" data-name="放大镜 外" class="cls-11" cx="938" cy="617" r="236"/>
</svg>
