<svg id="太阳" xmlns="http://www.w3.org/2000/svg" baseProfile="full" width="100%" height="100%" viewBox="0 0 6667 3750">
	<defs>
		<style>
			.cls-a, .cls-d {
			fill: #fff442;
			}

			.cls-a, .cls-b, .cls-c, .cls-e, .cls-f {
			fill-rule: evenodd;
			}

			.cls-b {
			fill: #fdca00;
			mix-blend-mode: saturation;
			}

			.cls-c {
			fill: #ffe402;
			}

			.cls-e {
			fill: #b8e9fa;
			}

			.cls-f {
			fill: #e6f8fc;
			}

			.cls-10, .cls-11, .cls-12, .cls-2, .cls-7, .cls-8, .cls-9 {
			fill-rule: evenodd;
			}

			.cls-3 {
			fill: #d97ffe;
			}

			.cls-4 {
			fill: #81c995;
			}

			.cls-5 {
			fill: #626cfc;
			}

			.cls-6 {
			fill: #ff4444;
			}

			.cls-7 {
			fill: #020205;
			}

			.cls-7, .cls-8, .cls-9, .cls-10, .cls-11, .cls-12, .cls-13 {
			fill-rule: evenodd;
			}

			.cls-8 {
			fill: #43c3ff;
			}

			.cls-9 {
			fill: #ffcd7e;
			}

			.cls-10, .cls-14 {
			fill: #4de4ca;
			}

			.cls-11 {
			fill: none;
			stroke: #020205;
			stroke-width: 5px;
			}

			.cls-12 {
			fill: #a0a0a0;
			}

			.cls-13 {
			fill: #dcdcdc;
			}
		</style>
		<linearGradient id="orange_red" x1="0%" y1="0%" x2="100%" y2="0%">
			// 色彩渐变
			<stop offset="0%" style="stop-color:rgb(255,0,0);stop-opacity:1"/>
			<stop offset="16%" style="stop-color:rgb(255,165,0);stop-opacity:1"/>
			<stop offset="32%" style="stop-color:rgb(255,255,0);stop-opacity:1"/>
			<stop offset="48%" style="stop-color:rgb(0,255,0);stop-opacity:1"/>
			<stop offset="64%" style="stop-color:rgb(0,255,255);stop-opacity:1"/>
			<stop offset="80%" style="stop-color:rgb(0,0,255);stop-opacity:1"/>
			<stop offset="100%" style="stop-color:rgb(255,0,255);stop-opacity:1"/>
		</linearGradient>
		<filter id="Gaussian_Blur">
			//fegaussianblur- 高斯模糊,stdDeviation - 设置模糊程度
			<feGaussianBlur in="SourceGraphic" stdDeviation="3" />
		</filter>
	</defs>

	<circle id="太阳" class="cls-b" cx="1581.5" cy="617.5" r="188.5"/>
	<path id="太阳环" class="cls-a" d="M1844.87,617.609v1.228h0c-0.09,16.817-3.98,20.571-29.58,26.415-14.31,3.266-23.82,15.941-28.25,30.716-11.16,37.264,37.49,45.507,25.18,74.331-13.23,30.96-60.03-7.3-81.66,20.886-30.41,39.64,13.75,55.206-14.12,77.4-21.25,16.929-47.92-30.7-79.81-23.958-19.44,4.109-29.25,17.838-34.38,35.015-1.51,8.914-2.61,20.856-19.69,23a1.863,1.863,0,1,1-.01.224c-0.73,0-1.43,0-2.12-.014-0.88.064-1.78,0.113-2.74,0.129v-0.225c-13.76-.792-17.37-6.321-22.76-29.976-3.27-14.309-15.93-23.818-30.69-28.244-37.24-11.163-45.47,37.49-74.27,25.174-30.94-13.229,7.29-60.032-20.87-81.662-39.61-30.417-55.16,13.744-77.34-14.122-16.92-21.253,30.67-47.927,23.94-79.82-4.11-19.44-17.83-29.251-34.99-34.383-9.5-1.611-20.67-2.769-21.44-23.327-1.09-.006-1.52-0.014-1.15-0.024-0.09-17.874,3.86-21.659,30.08-27.644,14.31-3.265,23.81-15.94,28.24-30.715,11.16-37.265-37.49-45.507-25.17-74.331,13.22-30.96,60.02,7.3,81.65-20.886,30.41-39.64-13.74-55.206,14.12-77.4,21.25-16.929,47.92,30.7,79.81,23.958,19.44-4.109,29.25-17.838,34.38-35.015,1.51-8.914,2.61-20.856,19.69-23a0.791,0.791,0,1,1,.02-0.224c0.73,0,1.43,0,2.11.014,0.88-.064,1.78-0.113,2.74-0.129v0.225c13.76,0.792,17.37,6.321,22.77,29.976,3.26,14.309,15.92,23.818,30.69,28.244,37.23,11.163,45.47-37.49,74.27-25.174,30.93,13.228-7.3,60.032,20.87,81.662,39.6,30.417,55.16-13.744,77.33,14.122,16.92,21.253-30.67,47.927-23.93,79.819,4.1,19.441,17.82,29.252,34.98,34.384,9.5,1.611,21.26,2.77,22.06,23.337C1845.03,617.6,1845.05,617.6,1844.87,617.609ZM1581.43,429.631c-103.43,0-187.29,83.886-187.29,187.363S1478,804.358,1581.43,804.358s187.3-83.886,187.3-187.364S1684.87,429.631,1581.43,429.631Z">
		<animateTransform attributeType="XML" attributeName="transform" begin="0s" dur="15s" type="rotate" from="360 1581.5 617.5" to="0 1581.5 617.5" repeatCount="indefinite"/>
	</path>
	<path id="太阳_右" data-name="太阳 右" class="cls-c" d="M1629,797.986c-80.46-20.446-140-93.723-140-181S1548.54,456.441,1629,436c80.46,20.446,140.01,93.723,140.01,181S1709.46,777.54,1629,797.986Z"/>
	<circle id="太阳_右小" data-name="太阳 右小" class="cls-d" cx="1662.625" cy="548.515" r="50.685"/>
	<path id="云_右" data-name="云 右" class="cls-e" d="M2130.06,849.408v0.145H1987.48a83.346,83.346,0,0,1-92.49-70.1A127.86,127.86,0,1,1,2022.82,631.83a84.242,84.242,0,0,1,9.21-.509,83.314,83.314,0,0,1,75.47,118.533A51.629,51.629,0,1,1,2130.06,849.408Z">
		<animateMotion path="M 15 0 L 0 0 Z" dur="5s" repeatCount="indefinite"/>
	</path>	
	<path id="云_中" data-name="云 中" class="cls-f" d="M1943.22,1009.02v0.37H1790.06a113.082,113.082,0,0,1-11.56.61,109.516,109.516,0,0,1-105.29-139.237,127.834,127.834,0,1,1,165.01-61.879,109.536,109.536,0,0,1,47.7,112.468A58.7,58.7,0,1,1,1943.22,1009.02Z"/>
	<path id="云_左" data-name="云 左" class="cls-e" d="M1736.71,1010a89.233,89.233,0,0,1-10.4-.61H1390.15a62.268,62.268,0,0,1-8.69.61,61.474,61.474,0,1,1,31.41-114.321,127.852,127.852,0,1,1,251.31-33.216q0,5.36-.44,10.61A87.9,87.9,0,1,1,1736.71,1010Z">
		<animateMotion path="M 0 0 L -50 0 Z" dur="5s" repeatCount="indefinite"/>
	</path>


	<rect id="紫红" class="cls-3" x="6119" y="2323" width="193" height="590" rx="10" ry="10">
		<animateMotion path="M 0 0 L 0 50 Z" dur="5s" repeatCount="indefinite"/>
	</rect>
	<rect id="绿" class="cls-4" x="5226" y="2578" width="193" height="590" rx="10" ry="10">
		<animateMotion path="M 0 0 L 0 50 Z" dur="5s" repeatCount="indefinite"/>
	</rect>
	<rect id="蓝" class="cls-5" x="354" y="2323" width="193" height="590" rx="10" ry="10">
		<animateMotion path="M 0 0 L 0 50 Z" dur="5s" repeatCount="indefinite"/>
	</rect>
	<rect id="红" class="cls-6" x="1249" y="2578" width="193" height="590" rx="10" ry="10">
		<animateMotion path="M 0 0 L 0 50 Z" dur="5s" repeatCount="indefinite"/>
	</rect>

	<path id="下" class="cls-7" d="M4977.46,582.98l-3.57,7.311L4943.6,575.44l3.57-7.311Z">
		<animateMotion path="M 0 0 L 40 20 Z" dur="3s" repeatCount="indefinite"/>
	</path>
	<path id="上" class="cls-7" d="M5135.82,659.721l-3.28,6.467-27.8-13.136,3.27-6.467Z">
		<animateMotion path="M 0 0 L 40 20 Z" dur="3s" repeatCount="indefinite"/>
	</path>
	<path id="电池板_上" data-name="电池板 上" class="cls-8" d="M5277.94,800.8L5108.6,719.542c-2.19-1.053-2.68-4.608-1.09-7.941l47.27-98.955c1.6-3.332,4.67-5.18,6.86-4.126l169.34,81.254c2.19,1.054,2.68,4.609,1.09,7.942l-47.27,98.955C5283.2,800,5280.13,801.851,5277.94,800.8Z">
		<animateMotion path="M 0 0 L 40 20 Z" dur="3s" repeatCount="indefinite"/>
	</path>
	<path id="电池板下" class="cls-8" d="M4916.36,629.568l-169.33-81.255c-2.2-1.053-2.69-4.609-1.09-7.941l47.27-98.955c1.59-3.333,4.66-5.18,6.86-4.127l169.33,81.255c2.2,1.054,2.69,4.609,1.09,7.941l-47.27,98.955C4921.63,628.774,4918.56,630.621,4916.36,629.568Z">
		<animateMotion path="M 0 0 L 40 20 Z" dur="3s" repeatCount="indefinite"/>
	</path>
	<path id="身子" class="cls-9" d="M5061.15,739.381l-126.33-61.4a5.083,5.083,0,0,1-2.48-6.725l81.94-169.345a5.058,5.058,0,0,1,6.81-2.211l126.33,61.4a5.084,5.084,0,0,1,2.48,6.725L5067.96,737.17A5.06,5.06,0,0,1,5061.15,739.381Z">
		<animateMotion path="M 0 0 L 40 20 Z" dur="3s" repeatCount="indefinite"/>
	</path>
	<path id="绿_下" data-name="绿 下" class="cls-10" d="M5125.24,550.193l-81.2-38.767a5.426,5.426,0,0,1-2.56-7.23l14.68-30.835a5.425,5.425,0,0,1,7.23-2.56l81.2,38.768a5.435,5.435,0,0,1,2.56,7.23l-14.69,30.835A5.413,5.413,0,0,1,5125.24,550.193Z">
		<animateMotion path="M 0 0 L 40 20 Z" dur="3s" repeatCount="indefinite"/>
	</path>
	<path id="绿_上" data-name="绿 上" class="cls-10" d="M5005.07,739.136l-44.68-21.664a2.794,2.794,0,0,1-1.26-3.9l9.02-16.362a3.167,3.167,0,0,1,4.12-1.291l44.68,21.664a2.786,2.786,0,0,1,1.26,3.9l-9.01,16.361A3.18,3.18,0,0,1,5005.07,739.136Z">
		<animateMotion path="M 0 0 L 40 20 Z" dur="3s" repeatCount="indefinite"/>
	</path>
	<path id="信号_3" data-name="信号 3" class="cls-11" d="M4913.65,1004.71a95.321,95.321,0,0,1-121.3-58.988">
		<animateMotion path="M 0 0 L 40 20 Z" dur="3s" repeatCount="indefinite"/>
	</path>
	<path id="信号_2" data-name="信号 2" class="cls-11" d="M4901.76,970.354a59.024,59.024,0,0,1-75.12-36.532">
		<animateMotion path="M 0 0 L 40 20 Z" dur="3s" repeatCount="indefinite"/>
	</path>
	<path id="信号_1" data-name="信号 1" class="cls-11" d="M4886,929.892a15.7,15.7,0,0,1-19.98-9.72">
		<animateMotion path="M 0 0 L 40 20 Z" dur="3s" repeatCount="indefinite"/>
	</path>
	<path id="信号挡板" class="cls-12" d="M5046.6,920.057L4784.56,794.276a5.411,5.411,0,1,1,4.69-9.752l262.04,125.781A5.411,5.411,0,1,1,5046.6,920.057Z">
		<animateMotion path="M 0 0 L 40 20 Z" dur="3s" repeatCount="indefinite"/>
	</path>
	<path id="发射装置" class="cls-13" d="M4799.89,789.458c32.81-68.156,114.39-97.049,182.21-64.535s96.2,114.123,63.39,182.278">
		<animateMotion path="M 0 0 L 40 20 Z" dur="3s" repeatCount="indefinite"/>
	</path>
	<path id="挡板与信号球连接" class="cls-12" d="M4917.74,847.662a6.338,6.338,0,0,1,2.94,8.471l-8.52,17.643a6.334,6.334,0,1,1-11.4-5.525l8.52-17.644A6.331,6.331,0,0,1,4917.74,847.662Z">
		<animateMotion path="M 0 0 L 40 20 Z" dur="3s" repeatCount="indefinite"/>
	</path>
	<circle id="信号球" class="cls-14" cx="4896.33" cy="887.563" r="21.89">
		<animateMotion path="M 0 0 L 40 20 Z" dur="3s" repeatCount="indefinite"/>
	</circle>
</svg>
