<?xml version="1.0" encoding="utf-8" standalone="no"?>
<!DOCTYPE svg PUBLIC "-//W3C//DTD SVG 1.1//EN"
  "http://www.w3.org/Graphics/SVG/1.1/DTD/svg11.dtd">
<svg xmlns:xlink="http://www.w3.org/1999/xlink" width="1092.537016pt" height="597.59875pt" viewBox="0 0 1092.537016 597.59875" xmlns="http://www.w3.org/2000/svg" version="1.1">
 <metadata>
  <rdf:RDF xmlns:dc="http://purl.org/dc/elements/1.1/" xmlns:cc="http://creativecommons.org/ns#" xmlns:rdf="http://www.w3.org/1999/02/22-rdf-syntax-ns#">
   <cc:Work>
    <dc:type rdf:resource="http://purl.org/dc/dcmitype/StillImage"/>
    <dc:date>2024-07-04T09:38:34.477046</dc:date>
    <dc:format>image/svg+xml</dc:format>
    <dc:creator>
     <cc:Agent>
      <dc:title>Matplotlib v3.8.4, https://matplotlib.org/</dc:title>
     </cc:Agent>
    </dc:creator>
   </cc:Work>
  </rdf:RDF>
 </metadata>
 <defs>
  <style type="text/css">*{stroke-linejoin: round; stroke-linecap: butt}</style>
 </defs>
 <g id="figure_1">
  <g id="patch_1">
   <path d="M 0 597.59875 
L 1092.537016 597.59875 
L 1092.537016 0 
L 0 0 
z
" style="fill: #ffffff"/>
  </g>
  <g id="axes_1">
   <g id="patch_2">
    <path d="M 63.99875 561.6 
L 1068.39875 561.6 
L 1068.39875 7.2 
L 63.99875 7.2 
z
" style="fill: #ffffff"/>
   </g>
   <g id="matplotlib.axis_1">
    <g id="xtick_1">
     <g id="line2d_1">
      <path d="M 217.950124 561.6 
L 217.950124 7.2 
" clip-path="url(#p13303bd036)" style="fill: none; stroke-dasharray: 6,6; stroke-dashoffset: 0; stroke: #b0b0b0"/>
     </g>
     <g id="line2d_2">
      <defs>
       <path id="m8eaede025f" d="M 0 0 
L 0 3.5 
" style="stroke: #000000; stroke-width: 0.8"/>
      </defs>
      <g>
       <use xlink:href="#m8eaede025f" x="217.950124" y="561.6" style="stroke: #000000; stroke-width: 0.8"/>
      </g>
     </g>
     <g id="text_1">
      <!-- 100 -->
      <g transform="translate(199.950124 585.265) scale(0.24 -0.24)">
       <defs>
        <path id="TimesNewRomanPSMT-31" d="M 750 3822 
L 1781 4325 
L 1884 4325 
L 1884 747 
Q 1884 391 1914 303 
Q 1944 216 2037 169 
Q 2131 122 2419 116 
L 2419 0 
L 825 0 
L 825 116 
Q 1125 122 1212 167 
Q 1300 213 1334 289 
Q 1369 366 1369 747 
L 1369 3034 
Q 1369 3497 1338 3628 
Q 1316 3728 1258 3775 
Q 1200 3822 1119 3822 
Q 1003 3822 797 3725 
L 750 3822 
z
" transform="scale(0.015625)"/>
        <path id="TimesNewRomanPSMT-30" d="M 231 2094 
Q 231 2819 450 3342 
Q 669 3866 1031 4122 
Q 1313 4325 1613 4325 
Q 2100 4325 2488 3828 
Q 2972 3213 2972 2159 
Q 2972 1422 2759 906 
Q 2547 391 2217 158 
Q 1888 -75 1581 -75 
Q 975 -75 572 641 
Q 231 1244 231 2094 
z
M 844 2016 
Q 844 1141 1059 588 
Q 1238 122 1591 122 
Q 1759 122 1940 273 
Q 2122 425 2216 781 
Q 2359 1319 2359 2297 
Q 2359 3022 2209 3506 
Q 2097 3866 1919 4016 
Q 1791 4119 1609 4119 
Q 1397 4119 1231 3928 
Q 1006 3669 925 3112 
Q 844 2556 844 2016 
z
" transform="scale(0.015625)"/>
       </defs>
       <use xlink:href="#TimesNewRomanPSMT-31"/>
       <use xlink:href="#TimesNewRomanPSMT-30" x="50"/>
       <use xlink:href="#TimesNewRomanPSMT-30" x="100"/>
      </g>
     </g>
    </g>
    <g id="xtick_2">
     <g id="line2d_3">
      <path d="M 430.296847 561.6 
L 430.296847 7.2 
" clip-path="url(#p13303bd036)" style="fill: none; stroke-dasharray: 6,6; stroke-dashoffset: 0; stroke: #b0b0b0"/>
     </g>
     <g id="line2d_4">
      <g>
       <use xlink:href="#m8eaede025f" x="430.296847" y="561.6" style="stroke: #000000; stroke-width: 0.8"/>
      </g>
     </g>
     <g id="text_2">
      <!-- 200 -->
      <g transform="translate(412.296847 585.265) scale(0.24 -0.24)">
       <defs>
        <path id="TimesNewRomanPSMT-32" d="M 2934 816 
L 2638 0 
L 138 0 
L 138 116 
Q 1241 1122 1691 1759 
Q 2141 2397 2141 2925 
Q 2141 3328 1894 3587 
Q 1647 3847 1303 3847 
Q 991 3847 742 3664 
Q 494 3481 375 3128 
L 259 3128 
Q 338 3706 661 4015 
Q 984 4325 1469 4325 
Q 1984 4325 2329 3994 
Q 2675 3663 2675 3213 
Q 2675 2891 2525 2569 
Q 2294 2063 1775 1497 
Q 997 647 803 472 
L 1909 472 
Q 2247 472 2383 497 
Q 2519 522 2628 598 
Q 2738 675 2819 816 
L 2934 816 
z
" transform="scale(0.015625)"/>
       </defs>
       <use xlink:href="#TimesNewRomanPSMT-32"/>
       <use xlink:href="#TimesNewRomanPSMT-30" x="50"/>
       <use xlink:href="#TimesNewRomanPSMT-30" x="100"/>
      </g>
     </g>
    </g>
    <g id="xtick_3">
     <g id="line2d_5">
      <path d="M 642.64357 561.6 
L 642.64357 7.2 
" clip-path="url(#p13303bd036)" style="fill: none; stroke-dasharray: 6,6; stroke-dashoffset: 0; stroke: #b0b0b0"/>
     </g>
     <g id="line2d_6">
      <g>
       <use xlink:href="#m8eaede025f" x="642.64357" y="561.6" style="stroke: #000000; stroke-width: 0.8"/>
      </g>
     </g>
     <g id="text_3">
      <!-- 300 -->
      <g transform="translate(624.64357 585.265) scale(0.24 -0.24)">
       <defs>
        <path id="TimesNewRomanPSMT-33" d="M 325 3431 
Q 506 3859 782 4092 
Q 1059 4325 1472 4325 
Q 1981 4325 2253 3994 
Q 2459 3747 2459 3466 
Q 2459 3003 1878 2509 
Q 2269 2356 2469 2072 
Q 2669 1788 2669 1403 
Q 2669 853 2319 450 
Q 1863 -75 997 -75 
Q 569 -75 414 31 
Q 259 138 259 259 
Q 259 350 332 419 
Q 406 488 509 488 
Q 588 488 669 463 
Q 722 447 909 348 
Q 1097 250 1169 231 
Q 1284 197 1416 197 
Q 1734 197 1970 444 
Q 2206 691 2206 1028 
Q 2206 1275 2097 1509 
Q 2016 1684 1919 1775 
Q 1784 1900 1550 2001 
Q 1316 2103 1072 2103 
L 972 2103 
L 972 2197 
Q 1219 2228 1467 2375 
Q 1716 2522 1828 2728 
Q 1941 2934 1941 3181 
Q 1941 3503 1739 3701 
Q 1538 3900 1238 3900 
Q 753 3900 428 3381 
L 325 3431 
z
" transform="scale(0.015625)"/>
       </defs>
       <use xlink:href="#TimesNewRomanPSMT-33"/>
       <use xlink:href="#TimesNewRomanPSMT-30" x="50"/>
       <use xlink:href="#TimesNewRomanPSMT-30" x="100"/>
      </g>
     </g>
    </g>
    <g id="xtick_4">
     <g id="line2d_7">
      <path d="M 854.990293 561.6 
L 854.990293 7.2 
" clip-path="url(#p13303bd036)" style="fill: none; stroke-dasharray: 6,6; stroke-dashoffset: 0; stroke: #b0b0b0"/>
     </g>
     <g id="line2d_8">
      <g>
       <use xlink:href="#m8eaede025f" x="854.990293" y="561.6" style="stroke: #000000; stroke-width: 0.8"/>
      </g>
     </g>
     <g id="text_4">
      <!-- 400 -->
      <g transform="translate(836.990293 585.265) scale(0.24 -0.24)">
       <defs>
        <path id="TimesNewRomanPSMT-34" d="M 2978 1563 
L 2978 1119 
L 2409 1119 
L 2409 0 
L 1894 0 
L 1894 1119 
L 100 1119 
L 100 1519 
L 2066 4325 
L 2409 4325 
L 2409 1563 
L 2978 1563 
z
M 1894 1563 
L 1894 3666 
L 406 1563 
L 1894 1563 
z
" transform="scale(0.015625)"/>
       </defs>
       <use xlink:href="#TimesNewRomanPSMT-34"/>
       <use xlink:href="#TimesNewRomanPSMT-30" x="50"/>
       <use xlink:href="#TimesNewRomanPSMT-30" x="100"/>
      </g>
     </g>
    </g>
    <g id="xtick_5">
     <g id="line2d_9">
      <path d="M 1067.337016 561.6 
L 1067.337016 7.2 
" clip-path="url(#p13303bd036)" style="fill: none; stroke-dasharray: 6,6; stroke-dashoffset: 0; stroke: #b0b0b0"/>
     </g>
     <g id="line2d_10">
      <g>
       <use xlink:href="#m8eaede025f" x="1067.337016" y="561.6" style="stroke: #000000; stroke-width: 0.8"/>
      </g>
     </g>
     <g id="text_5">
      <!-- 500 -->
      <g transform="translate(1049.337016 585.265) scale(0.24 -0.24)">
       <defs>
        <path id="TimesNewRomanPSMT-35" d="M 2778 4238 
L 2534 3706 
L 1259 3706 
L 981 3138 
Q 1809 3016 2294 2522 
Q 2709 2097 2709 1522 
Q 2709 1188 2573 903 
Q 2438 619 2231 419 
Q 2025 219 1772 97 
Q 1413 -75 1034 -75 
Q 653 -75 479 54 
Q 306 184 306 341 
Q 306 428 378 495 
Q 450 563 559 563 
Q 641 563 702 538 
Q 763 513 909 409 
Q 1144 247 1384 247 
Q 1750 247 2026 523 
Q 2303 800 2303 1197 
Q 2303 1581 2056 1914 
Q 1809 2247 1375 2428 
Q 1034 2569 447 2591 
L 1259 4238 
L 2778 4238 
z
" transform="scale(0.015625)"/>
       </defs>
       <use xlink:href="#TimesNewRomanPSMT-35"/>
       <use xlink:href="#TimesNewRomanPSMT-30" x="50"/>
       <use xlink:href="#TimesNewRomanPSMT-30" x="100"/>
      </g>
     </g>
    </g>
   </g>
   <g id="matplotlib.axis_2">
    <g id="ytick_1">
     <g id="line2d_11">
      <path d="M 63.99875 517.468103 
L 1068.39875 517.468103 
" clip-path="url(#p13303bd036)" style="fill: none; stroke-dasharray: 6,6; stroke-dashoffset: 0; stroke: #b0b0b0"/>
     </g>
     <g id="line2d_12">
      <defs>
       <path id="m2f6c4b745c" d="M 0 0 
L -3.5 0 
" style="stroke: #000000; stroke-width: 0.8"/>
      </defs>
      <g>
       <use xlink:href="#m2f6c4b745c" x="63.99875" y="517.468103" style="stroke: #000000; stroke-width: 0.8"/>
      </g>
     </g>
     <g id="text_6">
      <!-- 40 -->
      <g transform="translate(32.99875 525.800603) scale(0.24 -0.24)">
       <use xlink:href="#TimesNewRomanPSMT-34"/>
       <use xlink:href="#TimesNewRomanPSMT-30" x="50"/>
      </g>
     </g>
    </g>
    <g id="ytick_2">
     <g id="line2d_13">
      <path d="M 63.99875 401.478917 
L 1068.39875 401.478917 
" clip-path="url(#p13303bd036)" style="fill: none; stroke-dasharray: 6,6; stroke-dashoffset: 0; stroke: #b0b0b0"/>
     </g>
     <g id="line2d_14">
      <g>
       <use xlink:href="#m2f6c4b745c" x="63.99875" y="401.478917" style="stroke: #000000; stroke-width: 0.8"/>
      </g>
     </g>
     <g id="text_7">
      <!-- 45 -->
      <g transform="translate(32.99875 409.811417) scale(0.24 -0.24)">
       <use xlink:href="#TimesNewRomanPSMT-34"/>
       <use xlink:href="#TimesNewRomanPSMT-35" x="50"/>
      </g>
     </g>
    </g>
    <g id="ytick_3">
     <g id="line2d_15">
      <path d="M 63.99875 285.48973 
L 1068.39875 285.48973 
" clip-path="url(#p13303bd036)" style="fill: none; stroke-dasharray: 6,6; stroke-dashoffset: 0; stroke: #b0b0b0"/>
     </g>
     <g id="line2d_16">
      <g>
       <use xlink:href="#m2f6c4b745c" x="63.99875" y="285.48973" style="stroke: #000000; stroke-width: 0.8"/>
      </g>
     </g>
     <g id="text_8">
      <!-- 50 -->
      <g transform="translate(32.99875 293.82223) scale(0.24 -0.24)">
       <use xlink:href="#TimesNewRomanPSMT-35"/>
       <use xlink:href="#TimesNewRomanPSMT-30" x="50"/>
      </g>
     </g>
    </g>
    <g id="ytick_4">
     <g id="line2d_17">
      <path d="M 63.99875 169.500544 
L 1068.39875 169.500544 
" clip-path="url(#p13303bd036)" style="fill: none; stroke-dasharray: 6,6; stroke-dashoffset: 0; stroke: #b0b0b0"/>
     </g>
     <g id="line2d_18">
      <g>
       <use xlink:href="#m2f6c4b745c" x="63.99875" y="169.500544" style="stroke: #000000; stroke-width: 0.8"/>
      </g>
     </g>
     <g id="text_9">
      <!-- 55 -->
      <g transform="translate(32.99875 177.833044) scale(0.24 -0.24)">
       <use xlink:href="#TimesNewRomanPSMT-35"/>
       <use xlink:href="#TimesNewRomanPSMT-35" x="50"/>
      </g>
     </g>
    </g>
    <g id="ytick_5">
     <g id="line2d_19">
      <path d="M 63.99875 53.511357 
L 1068.39875 53.511357 
" clip-path="url(#p13303bd036)" style="fill: none; stroke-dasharray: 6,6; stroke-dashoffset: 0; stroke: #b0b0b0"/>
     </g>
     <g id="line2d_20">
      <g>
       <use xlink:href="#m2f6c4b745c" x="63.99875" y="53.511357" style="stroke: #000000; stroke-width: 0.8"/>
      </g>
     </g>
     <g id="text_10">
      <!-- 60 -->
      <g transform="translate(32.99875 61.843857) scale(0.24 -0.24)">
       <defs>
        <path id="TimesNewRomanPSMT-36" d="M 2869 4325 
L 2869 4209 
Q 2456 4169 2195 4045 
Q 1934 3922 1679 3669 
Q 1425 3416 1258 3105 
Q 1091 2794 978 2366 
Q 1428 2675 1881 2675 
Q 2316 2675 2634 2325 
Q 2953 1975 2953 1425 
Q 2953 894 2631 456 
Q 2244 -75 1606 -75 
Q 1172 -75 869 213 
Q 275 772 275 1663 
Q 275 2231 503 2743 
Q 731 3256 1154 3653 
Q 1578 4050 1965 4187 
Q 2353 4325 2688 4325 
L 2869 4325 
z
M 925 2138 
Q 869 1716 869 1456 
Q 869 1156 980 804 
Q 1091 453 1309 247 
Q 1469 100 1697 100 
Q 1969 100 2183 356 
Q 2397 613 2397 1088 
Q 2397 1622 2184 2012 
Q 1972 2403 1581 2403 
Q 1463 2403 1327 2353 
Q 1191 2303 925 2138 
z
" transform="scale(0.015625)"/>
       </defs>
       <use xlink:href="#TimesNewRomanPSMT-36"/>
       <use xlink:href="#TimesNewRomanPSMT-30" x="50"/>
      </g>
     </g>
    </g>
    <g id="text_11">
     <!-- CWDI (%) -->
     <g transform="translate(23.865 337.38) rotate(-90) scale(0.24 -0.24)">
      <defs>
       <path id="TimesNewRomanPSMT-43" d="M 3853 4334 
L 3950 2894 
L 3853 2894 
Q 3659 3541 3300 3825 
Q 2941 4109 2438 4109 
Q 2016 4109 1675 3895 
Q 1334 3681 1139 3212 
Q 944 2744 944 2047 
Q 944 1472 1128 1050 
Q 1313 628 1683 403 
Q 2053 178 2528 178 
Q 2941 178 3256 354 
Q 3572 531 3950 1056 
L 4047 994 
Q 3728 428 3303 165 
Q 2878 -97 2294 -97 
Q 1241 -97 663 684 
Q 231 1266 231 2053 
Q 231 2688 515 3219 
Q 800 3750 1298 4042 
Q 1797 4334 2388 4334 
Q 2847 4334 3294 4109 
Q 3425 4041 3481 4041 
Q 3566 4041 3628 4100 
Q 3709 4184 3744 4334 
L 3853 4334 
z
" transform="scale(0.015625)"/>
       <path id="TimesNewRomanPSMT-57" d="M 5991 4238 
L 5991 4122 
Q 5825 4122 5722 4062 
Q 5619 4003 5525 3841 
Q 5463 3731 5328 3319 
L 4147 -97 
L 4022 -97 
L 3056 2613 
L 2097 -97 
L 1984 -97 
L 725 3422 
Q 584 3816 547 3888 
Q 484 4006 376 4064 
Q 269 4122 84 4122 
L 84 4238 
L 1653 4238 
L 1653 4122 
L 1578 4122 
Q 1413 4122 1325 4047 
Q 1238 3972 1238 3866 
Q 1238 3756 1375 3363 
L 2209 984 
L 2913 3006 
L 2788 3363 
L 2688 3647 
Q 2622 3803 2541 3922 
Q 2500 3981 2441 4022 
Q 2363 4078 2284 4103 
Q 2225 4122 2097 4122 
L 2097 4238 
L 3747 4238 
L 3747 4122 
L 3634 4122 
Q 3459 4122 3378 4047 
Q 3297 3972 3297 3844 
Q 3297 3684 3438 3288 
L 4250 984 
L 5056 3319 
Q 5194 3706 5194 3856 
Q 5194 3928 5148 3990 
Q 5103 4053 5034 4078 
Q 4916 4122 4725 4122 
L 4725 4238 
L 5991 4238 
z
" transform="scale(0.015625)"/>
       <path id="TimesNewRomanPSMT-44" d="M 109 0 
L 109 116 
L 269 116 
Q 538 116 650 288 
Q 719 391 719 750 
L 719 3488 
Q 719 3884 631 3984 
Q 509 4122 269 4122 
L 109 4122 
L 109 4238 
L 1834 4238 
Q 2784 4238 3279 4022 
Q 3775 3806 4076 3303 
Q 4378 2800 4378 2141 
Q 4378 1256 3841 663 
Q 3238 0 2003 0 
L 109 0 
z
M 1319 306 
Q 1716 219 1984 219 
Q 2709 219 3187 728 
Q 3666 1238 3666 2109 
Q 3666 2988 3187 3494 
Q 2709 4000 1959 4000 
Q 1678 4000 1319 3909 
L 1319 306 
z
" transform="scale(0.015625)"/>
       <path id="TimesNewRomanPSMT-49" d="M 1975 116 
L 1975 0 
L 159 0 
L 159 116 
L 309 116 
Q 572 116 691 269 
Q 766 369 766 750 
L 766 3488 
Q 766 3809 725 3913 
Q 694 3991 597 4047 
Q 459 4122 309 4122 
L 159 4122 
L 159 4238 
L 1975 4238 
L 1975 4122 
L 1822 4122 
Q 1563 4122 1444 3969 
Q 1366 3869 1366 3488 
L 1366 750 
Q 1366 428 1406 325 
Q 1438 247 1538 191 
Q 1672 116 1822 116 
L 1975 116 
z
" transform="scale(0.015625)"/>
       <path id="TimesNewRomanPSMT-20" transform="scale(0.015625)"/>
       <path id="TimesNewRomanPSMT-28" d="M 1988 -1253 
L 1988 -1369 
Q 1516 -1131 1200 -813 
Q 750 -359 506 256 
Q 263 872 263 1534 
Q 263 2503 741 3301 
Q 1219 4100 1988 4444 
L 1988 4313 
Q 1603 4100 1356 3731 
Q 1109 3363 987 2797 
Q 866 2231 866 1616 
Q 866 947 969 400 
Q 1050 -31 1165 -292 
Q 1281 -553 1476 -793 
Q 1672 -1034 1988 -1253 
z
" transform="scale(0.015625)"/>
       <path id="TimesNewRomanPSMT-25" d="M 4350 4334 
L 1263 -175 
L 984 -175 
L 4072 4334 
L 4350 4334 
z
M 1138 4334 
Q 1559 4334 1792 3984 
Q 2025 3634 2025 3181 
Q 2025 2638 1762 2341 
Q 1500 2044 1131 2044 
Q 884 2044 678 2180 
Q 472 2316 348 2584 
Q 225 2853 225 3181 
Q 225 3509 350 3786 
Q 475 4063 692 4198 
Q 909 4334 1138 4334 
z
M 1128 4159 
Q 969 4159 845 3971 
Q 722 3784 722 3184 
Q 722 2750 791 2522 
Q 844 2350 956 2256 
Q 1022 2200 1119 2200 
Q 1269 2200 1375 2363 
Q 1531 2603 1531 3166 
Q 1531 3759 1378 4000 
Q 1278 4159 1128 4159 
z
M 4206 2103 
Q 4428 2103 4648 1962 
Q 4869 1822 4989 1553 
Q 5109 1284 5109 963 
Q 5109 409 4843 117 
Q 4578 -175 4216 -175 
Q 3988 -175 3773 -34 
Q 3559 106 3436 367 
Q 3313 628 3313 963 
Q 3313 1291 3436 1562 
Q 3559 1834 3773 1968 
Q 3988 2103 4206 2103 
z
M 4209 1938 
Q 4059 1938 3950 1769 
Q 3809 1550 3809 941 
Q 3809 381 3953 159 
Q 4059 0 4209 0 
Q 4353 0 4466 172 
Q 4616 400 4616 956 
Q 4616 1544 4466 1778 
Q 4363 1938 4209 1938 
z
" transform="scale(0.015625)"/>
       <path id="TimesNewRomanPSMT-29" d="M 144 4313 
L 144 4444 
Q 619 4209 934 3891 
Q 1381 3434 1625 2820 
Q 1869 2206 1869 1541 
Q 1869 572 1392 -226 
Q 916 -1025 144 -1369 
L 144 -1253 
Q 528 -1038 776 -670 
Q 1025 -303 1145 264 
Q 1266 831 1266 1447 
Q 1266 2113 1163 2663 
Q 1084 3094 967 3353 
Q 850 3613 656 3853 
Q 463 4094 144 4313 
z
" transform="scale(0.015625)"/>
      </defs>
      <use xlink:href="#TimesNewRomanPSMT-43"/>
      <use xlink:href="#TimesNewRomanPSMT-57" x="66.699219"/>
      <use xlink:href="#TimesNewRomanPSMT-44" x="161.083984"/>
      <use xlink:href="#TimesNewRomanPSMT-49" x="233.300781"/>
      <use xlink:href="#TimesNewRomanPSMT-20" x="266.601562"/>
      <use xlink:href="#TimesNewRomanPSMT-28" x="291.601562"/>
      <use xlink:href="#TimesNewRomanPSMT-25" x="324.902344"/>
      <use xlink:href="#TimesNewRomanPSMT-29" x="408.203125"/>
     </g>
    </g>
   </g>
   <g id="line2d_21">
    <path d="M 109.653295 296.943485 
L 111.776763 305.633234 
L 113.90023 304.520537 
L 116.023697 351.764709 
L 118.147164 361.756286 
L 120.270632 428.151024 
L 122.394099 440.714344 
L 124.517566 406.816092 
L 126.641033 370.738172 
L 128.764501 376.798948 
L 130.887968 403.105907 
L 133.011435 407.163841 
L 135.134902 410.702288 
L 137.258369 444.104662 
L 139.381837 438.94624 
L 141.505304 441.355486 
L 143.628771 459.241863 
L 145.752238 500.446963 
L 147.875706 536.4 
L 149.999173 481.494933 
L 152.12264 361.847462 
L 154.246107 374.890305 
L 156.369575 381.221699 
L 158.493042 405.809658 
L 160.616509 405.864255 
L 162.739976 419.154275 
L 164.863443 418.518321 
L 166.986911 447.109961 
L 169.110378 504.980735 
L 171.233845 457.428285 
L 173.357312 484.392872 
L 175.48078 455.391292 
L 177.604247 414.340426 
L 181.851181 255.740618 
L 183.974649 268.452424 
L 186.098116 269.852863 
L 188.221583 292.449039 
L 192.468517 346.337246 
L 194.591985 373.143281 
L 196.715452 406.756393 
L 198.838919 420.227988 
L 200.962386 352.711418 
L 203.085854 259.770211 
L 205.209321 123.767704 
L 207.332788 127.722148 
L 209.456255 142.203909 
L 211.579723 163.533608 
L 215.826657 172.21715 
L 217.950124 187.021713 
L 220.073591 234.722784 
L 222.197059 186.133379 
L 224.320526 234.109395 
L 226.443993 217.301071 
L 228.56746 169.350873 
L 230.690928 130.529183 
L 232.814395 123.730402 
L 237.061329 167.108408 
L 239.184797 192.955969 
L 241.308264 210.113554 
L 243.431731 237.296074 
L 245.555198 276.403063 
L 247.678665 281.909374 
L 249.802133 303.574388 
L 251.9256 313.559407 
L 254.049067 311.926996 
L 256.172534 292.44396 
L 258.296002 283.032324 
L 260.419469 310.499689 
L 262.542936 311.165204 
L 264.666403 340.240169 
L 266.789871 348.847553 
L 268.913338 346.350923 
L 271.036805 365.591998 
L 273.160272 354.058626 
L 275.283739 314.360427 
L 277.407207 349.330029 
L 279.530674 318.508826 
L 281.654141 336.083335 
L 283.777608 310.429474 
L 285.901076 323.527946 
L 288.024543 333.519369 
L 290.14801 347.241207 
L 292.271477 333.679545 
L 294.394945 335.06078 
L 298.641879 381.471089 
L 300.765346 449.255982 
L 302.888813 383.768428 
L 305.012281 301.90561 
L 307.135748 293.363696 
L 309.259215 273.467282 
L 311.382682 290.986071 
L 313.50615 281.169126 
L 315.629617 251.946603 
L 317.753084 245.096673 
L 319.876551 265.486099 
L 322.000018 308.376609 
L 324.123486 333.69366 
L 326.246953 323.645462 
L 328.37042 254.384694 
L 330.493887 203.259826 
L 332.617355 227.882294 
L 334.740822 233.424252 
L 336.864289 215.018127 
L 338.987756 193.576171 
L 341.111224 195.007326 
L 343.234691 188.459571 
L 345.358158 165.460176 
L 347.481625 189.674708 
L 349.605092 186.420201 
L 351.72856 116.744739 
L 353.852027 85.417902 
L 355.975494 65.084342 
L 358.098961 66.276123 
L 360.222429 85.54034 
L 362.345896 88.428483 
L 364.469363 103.091085 
L 366.59283 97.831328 
L 368.716298 104.325664 
L 370.839765 73.633899 
L 372.963232 73.971337 
L 375.086699 99.332256 
L 377.210166 104.018715 
L 379.333634 85.935938 
L 381.457101 94.993538 
L 383.580568 82.022435 
L 385.704035 110.902529 
L 387.827503 109.368596 
L 389.95097 112.352273 
L 392.074437 113.604555 
L 394.197904 118.094831 
L 396.321372 112.755801 
L 398.444839 144.47576 
L 400.568306 186.021842 
L 402.691773 215.945801 
L 404.81524 194.748123 
L 406.938708 165.983185 
L 409.062175 116.179055 
L 411.185642 122.435801 
L 413.309109 121.26118 
L 415.432577 121.291748 
L 417.556044 138.044874 
L 419.679511 140.243969 
L 421.802978 154.376867 
L 423.926446 141.695183 
L 426.049913 140.979829 
L 428.17338 120.130425 
L 430.296847 92.939225 
L 432.420314 61.286465 
L 434.543782 84.71317 
L 436.667249 87.013508 
L 438.790716 56.085933 
L 440.914183 68.979272 
L 443.037651 96.487269 
L 445.161118 107.466632 
L 447.284585 151.726726 
L 449.408052 117.439808 
L 451.53152 179.715064 
L 453.654987 178.376684 
L 455.778454 114.836454 
L 457.901921 123.026148 
L 460.025388 147.773087 
L 462.148856 128.055298 
L 464.272323 127.528886 
L 466.39579 128.448073 
L 468.519257 162.881768 
L 470.642725 174.21072 
L 474.889659 227.97273 
L 477.013126 282.350091 
L 479.136594 293.773941 
L 481.260061 194.251742 
L 483.383528 142.442671 
L 485.506995 168.519142 
L 487.630462 129.055144 
L 489.75393 173.672116 
L 491.877397 182.816285 
L 494.000864 199.130875 
L 496.124331 204.771936 
L 498.247799 213.802496 
L 500.371266 226.403734 
L 502.494733 282.308836 
L 504.6182 294.757984 
L 506.741668 194.836088 
L 508.865135 147.670197 
L 510.988602 122.675162 
L 513.112069 116.614574 
L 515.235536 123.563516 
L 517.359004 143.272958 
L 519.482471 138.274209 
L 521.605938 129.681999 
L 523.729405 124.28844 
L 525.852873 148.154869 
L 527.97634 196.371475 
L 530.099807 228.407082 
L 532.223274 253.282817 
L 534.346742 283.05292 
L 536.470209 275.446671 
L 538.593676 304.107819 
L 540.717143 287.264527 
L 542.84061 282.967001 
L 544.964078 281.037375 
L 547.087545 293.375233 
L 549.211012 302.077875 
L 551.334479 302.641432 
L 553.457947 224.429925 
L 555.581414 242.931763 
L 557.704881 169.466706 
L 559.828348 82.658222 
L 561.951816 99.07019 
L 564.075283 118.827845 
L 566.19875 132.305641 
L 568.322217 147.792753 
L 570.445684 176.752118 
L 572.569152 189.570227 
L 574.692619 191.641301 
L 576.816086 203.946115 
L 578.939553 235.660289 
L 581.063021 283.734071 
L 583.186488 231.200753 
L 585.309955 255.485744 
L 587.433422 231.671443 
L 589.55689 202.080988 
L 591.680357 226.862278 
L 593.803824 237.500389 
L 595.927291 231.257327 
L 598.050758 240.941643 
L 600.174226 281.223688 
L 602.297693 332.203205 
L 604.42116 410.495406 
L 606.544627 406.782351 
L 608.668095 309.364551 
L 610.791562 239.188514 
L 612.915029 212.139226 
L 615.038496 194.534961 
L 617.161964 199.518567 
L 619.285431 215.578295 
L 621.408898 208.278135 
L 623.532365 217.7685 
L 625.655832 250.404142 
L 627.7793 273.894997 
L 629.902767 325.336256 
L 632.026234 334.258282 
L 634.149701 286.682881 
L 636.273169 315.307863 
L 638.396636 321.391133 
L 640.520103 319.333344 
L 642.64357 342.618352 
L 644.767038 346.696644 
L 646.890505 359.125218 
L 649.013972 373.934977 
L 651.137439 393.186068 
L 653.260906 414.749844 
L 655.384374 411.63636 
L 657.507841 406.855871 
L 659.631308 407.499163 
L 661.754775 408.933755 
L 663.878243 398.052527 
L 666.00171 405.139319 
L 668.125177 419.015578 
L 670.248644 411.904976 
L 672.372112 433.211976 
L 674.495579 427.12831 
L 676.619046 444.9437 
L 678.742513 472.015185 
L 680.86598 529.10832 
L 682.989448 509.8286 
L 685.112915 450.935861 
L 687.236382 340.927639 
L 689.359849 259.824567 
L 691.483317 202.085716 
L 693.606784 210.589382 
L 695.730251 212.404036 
L 697.853718 222.04636 
L 699.977186 237.876465 
L 702.100653 280.680547 
L 704.22412 309.17074 
L 706.347587 334.349788 
L 708.471054 319.950537 
L 710.594522 203.83882 
L 712.717989 161.664526 
L 714.841456 138.571636 
L 716.964923 151.225302 
L 719.088391 149.329124 
L 721.211858 154.241199 
L 723.335325 175.18129 
L 725.458792 169.993316 
L 727.58226 210.368205 
L 729.705727 239.313719 
L 733.952661 285.689085 
L 736.076128 268.723444 
L 738.199596 200.406642 
L 740.323063 136.676614 
L 742.44653 123.36966 
L 744.569997 146.565332 
L 746.693465 148.026 
L 748.816932 154.404623 
L 750.940399 159.493745 
L 753.063866 182.058028 
L 755.187334 195.447241 
L 757.310801 240.744527 
L 759.434268 254.240353 
L 761.557735 198.691537 
L 763.681202 184.731012 
L 765.80467 160.499951 
L 767.928137 169.667314 
L 770.051604 170.16359 
L 774.298539 191.805729 
L 776.422006 183.342816 
L 778.545473 184.014335 
L 780.66894 211.977024 
L 782.792408 262.283904 
L 784.915875 275.613624 
L 787.039342 191.776706 
L 789.162809 164.644377 
L 791.286276 204.723189 
L 793.409744 218.951579 
L 795.533211 234.0835 
L 797.656678 233.574671 
L 799.780145 248.126405 
L 801.903613 257.483465 
L 804.02708 278.751029 
L 806.150547 265.433758 
L 810.397482 330.370453 
L 812.520949 296.652759 
L 814.644416 276.896121 
L 816.767883 242.462757 
L 818.89135 245.406815 
L 821.014818 275.778726 
L 823.138285 289.199693 
L 825.261752 295.881624 
L 827.385219 278.135051 
L 829.508687 319.776271 
L 831.632154 329.611582 
L 833.755621 334.953371 
L 835.879088 358.94367 
L 838.002555 331.226384 
L 840.126023 251.914186 
L 842.24949 271.700949 
L 844.372957 278.644199 
L 846.496424 254.236875 
L 848.619892 249.92688 
L 850.743359 275.371072 
L 852.866826 281.942641 
L 854.990293 308.232559 
L 857.113761 299.589028 
L 859.237228 300.985067 
L 861.360695 339.834186 
L 863.484162 257.968906 
L 865.607629 180.761665 
L 867.731097 133.011989 
L 869.854564 133.342161 
L 871.978031 162.752831 
L 874.101498 175.120122 
L 876.224966 200.23579 
L 878.348433 198.364957 
L 880.4719 223.949311 
L 882.595367 284.466628 
L 884.718835 322.514893 
L 886.842302 364.600521 
L 888.965769 302.196418 
L 891.089236 230.645306 
L 893.212703 84.197912 
L 895.336171 75.1474 
L 897.459638 32.4 
L 899.583105 38.311621 
L 901.706572 37.406264 
L 903.83004 58.762816 
L 905.953507 65.337653 
L 908.076974 81.808562 
L 910.200441 129.797045 
L 912.323909 156.201073 
L 914.447376 113.513848 
L 916.570843 90.407025 
L 918.69431 85.286647 
L 920.817777 99.279132 
L 922.941245 108.348739 
L 925.064712 124.091739 
L 927.188179 131.764426 
L 929.311646 132.381915 
L 931.435114 160.363999 
L 933.558581 177.041869 
L 935.682048 137.278253 
L 937.805515 182.429576 
L 939.928983 129.185189 
L 942.05245 156.289044 
L 944.175917 176.331661 
L 946.299384 187.683821 
L 948.422851 182.449678 
L 950.546319 192.740173 
L 952.669786 208.376576 
L 954.793253 203.955594 
L 956.91672 236.247102 
L 959.040188 226.946568 
L 961.163655 251.891863 
L 963.287122 280.829254 
L 965.410589 315.218761 
L 967.534057 283.120756 
L 969.657524 158.205654 
L 971.780991 170.153094 
L 973.904458 179.983721 
L 976.027925 194.261729 
L 978.151393 199.900546 
L 980.27486 217.623856 
L 982.398327 213.955546 
L 984.521794 206.006404 
L 986.645262 199.691442 
L 988.768729 180.197188 
L 990.892196 202.773215 
L 993.015663 196.821988 
L 995.139131 197.740769 
L 997.262598 175.348037 
L 999.386065 150.227138 
L 1001.509532 166.797032 
L 1003.632999 170.239188 
L 1005.756467 172.874387 
L 1007.879934 193.069239 
L 1012.126868 235.99009 
L 1014.250336 241.956935 
L 1016.373803 125.125451 
L 1018.49727 129.065286 
L 1020.620737 121.629738 
L 1022.744205 78.742299 
L 1022.744205 78.742299 
" clip-path="url(#p13303bd036)" style="fill: none; stroke: #ff95a4; stroke-width: 2.4; stroke-linecap: square"/>
   </g>
   <g id="patch_3">
    <path d="M 63.99875 561.6 
L 63.99875 7.2 
" style="fill: none; stroke: #000000; stroke-width: 0.8; stroke-linejoin: miter; stroke-linecap: square"/>
   </g>
   <g id="patch_4">
    <path d="M 1068.39875 561.6 
L 1068.39875 7.2 
" style="fill: none; stroke: #000000; stroke-width: 0.8; stroke-linejoin: miter; stroke-linecap: square"/>
   </g>
   <g id="patch_5">
    <path d="M 63.99875 561.6 
L 1068.39875 561.6 
" style="fill: none; stroke: #000000; stroke-width: 0.8; stroke-linejoin: miter; stroke-linecap: square"/>
   </g>
   <g id="patch_6">
    <path d="M 63.99875 7.2 
L 1068.39875 7.2 
" style="fill: none; stroke: #000000; stroke-width: 0.8; stroke-linejoin: miter; stroke-linecap: square"/>
   </g>
  </g>
 </g>
 <defs>
  <clipPath id="p13303bd036">
   <rect x="63.99875" y="7.2" width="1004.4" height="554.4"/>
  </clipPath>
 </defs>
</svg>
