<svg id="Logo" xmlns="http://www.w3.org/2000/svg" baseProfile="full" width="100%" height="100%" viewBox="0 0 2835 2835">
  <defs>
    <style>
      .cls-1, .cls-6 {
        fill: none;
      }

      .cls-1 {
        stroke: #1b29e4;
        stroke-width: 30px;
      }

      .cls-1, .cls-10, .cls-11, .cls-7, .cls-9 {
        fill-rule: evenodd;
      }

      .cls-11, .cls-2 {
        fill: #616ae5;
      }

      .cls-3 {
        fill: #ee675c;
      }

      .cls-4 {
        fill: #81c995;
      }

      .cls-5 {
        fill: #cb5cf9;
      }

      .cls-6 {
        stroke: #44d683;
        stroke-width: 90px;
      }

      .cls-7, .cls-8 {
        fill: #fb0000;
      }

      .cls-9 {
        fill: #565656;
      }
    </style>
  </defs>
  <path id="形状_1" data-name="形状 1" class="cls-1" d="M274,1944s259.927-247.15,527-237c267.78,10.18,353.38,158.47,591,163,297.71,5.67,324.04-169.22,603-166,163.71,1.89,407.75,131.32,531,207"/>
  <rect id="光谱_蓝" data-name="光谱 蓝" class="cls-2" x="731" y="1862" width="142" height="437" rx="10" ry="10"/>
  <rect id="光谱_红" data-name="光谱 红" class="cls-3" x="1053" y="2014" width="142" height="437" rx="10" ry="10"/>
  <rect id="光谱_绿" data-name="光谱 绿" class="cls-4" x="1564" y="2014" width="142" height="437" rx="10" ry="10"/>
  <rect id="光谱_紫红" data-name="光谱 紫红" class="cls-5" x="1942" y="1862" width="142" height="437" rx="10" ry="10"/>
  <circle id="大圆" class="cls-6" cx="1389.5" cy="1416.5" r="1270.5"/>
  <path id="小太阳-2" data-name="小太阳" class="cls-7" d="M835.5,631A29.5,29.5,0,1,1,806,660.5,29.5,29.5,0,0,1,835.5,631Zm194,51a29.5,29.5,0,1,1-29.5,29.5A29.5,29.5,0,0,1,1029.5,682Zm125,142a29.5,29.5,0,1,1-29.5,29.5A29.5,29.5,0,0,1,1154.5,824Zm45,178a29.5,29.5,0,1,1-29.5,29.5A29.5,29.5,0,0,1,1199.5,1002Zm-57,197a29.5,29.5,0,1,1-29.5,29.5A29.5,29.5,0,0,1,1142.5,1199Zm-129,128a29.5,29.5,0,1,1-29.5,29.5A29.5,29.5,0,0,1,1013.5,1327Zm-179,46a29.5,29.5,0,1,1-29.5,29.5A29.5,29.5,0,0,1,834.5,1373Zm-199-58a29.5,29.5,0,1,1-29.5,29.5A29.5,29.5,0,0,1,635.5,1315Zm-120-126a29.5,29.5,0,1,1-29.5,29.5A29.5,29.5,0,0,1,515.5,1189Zm-57-192a29.5,29.5,0,1,1-29.5,29.5A29.5,29.5,0,0,1,458.5,997Zm57-187A29.5,29.5,0,1,1,486,839.5,29.5,29.5,0,0,1,515.5,810Zm137-135A29.5,29.5,0,1,1,623,704.5,29.5,29.5,0,0,1,652.5,675Z"/>
  <ellipse id="大太阳" class="cls-8" cx="831" cy="1031.5" rx="298" ry="296.5"/>
  <path id="卫星左" class="cls-9" d="M1565,506l247,101v59L1565,565V506Z"/>
  <path id="卫星右" class="cls-9" d="M1998,669l247,101v59L1998,728V669Z"/>
  <path id="卫星-2" data-name="卫星" class="cls-10" d="M1831,588l144,49-1,95-142-47Z"/>
  <path id="卫星下" class="cls-11" d="M1476,941l310-222,26,25L1497,974Zm266,187,123-353,30,10-113,359Zm349,34L1958,806l36-11,136,353Z"/>
</svg>
