<?xml version="1.0" encoding="utf-8"?>
<!-- Generator: Adobe Illustrator 26.0.0, SVG Export Plug-In . SVG Version: 6.00 Build 0)  -->
<svg version="1.1" id="Logo" xmlns="http://www.w3.org/2000/svg" xmlns:xlink="http://www.w3.org/1999/xlink" x="0px" y="0px"
	 viewBox="0 0 573.5 573.5" style="enable-background:new 0 0 573.5 573.5;" xml:space="preserve">
<style type="text/css">
	.st0{fill:#FFFFFF;}
	.st1{fill:none;stroke:#3366E1;stroke-width:20;stroke-miterlimit:10;}
	.st2{fill:#616AE5;}
	.st3{fill:#EE675C;}
	.st4{fill:#81C995;}
	.st5{fill:#CB5CF9;}
	.st6{fill:none;stroke:#44D683;stroke-width:40;stroke-miterlimit:10;}
	.st7{fill-rule:evenodd;clip-rule:evenodd;fill:#020205;}
	.st8{fill-rule:evenodd;clip-rule:evenodd;fill:#43C3FF;}
	.st9{fill-rule:evenodd;clip-rule:evenodd;fill:#FFCD7E;}
	.st10{fill-rule:evenodd;clip-rule:evenodd;fill:#4DE4CA;}
	.st11{fill-rule:evenodd;clip-rule:evenodd;fill:#A0A0A0;}
	.st12{fill-rule:evenodd;clip-rule:evenodd;fill:#DCDCDC;}
	.st13{fill:#4DE4CA;}
	.st14{fill:#FD4100;}
	.st15{fill-rule:evenodd;clip-rule:evenodd;fill:#FFC142;}
	.st16{fill-rule:evenodd;clip-rule:evenodd;fill:#FF7E02;}
	.st17{fill:#FFB842;}
</style>
<circle id="大圆" class="st0" cx="286.8" cy="286.8" r="266.8"/>
<path id="形状_1" class="st1" d="M52.5,408.5c0,0,54.6-51.9,110.7-49.8c56.2,2.1,74.2,33.3,124.1,34.2
	c62.5,1.2,68-35.5,126.6-34.9c34.4,0.4,85.6,27.6,111.5,43.5"/>
<path id="光谱_蓝" class="st2" d="M150.6,391.3h25.6c1.2,0,2.1,0.9,2.1,2.1V481c0,1.2-0.9,2.1-2.1,2.1h-25.6
	c-1.2,0-2.1-0.9-2.1-2.1v-87.6C148.5,392.3,149.4,391.3,150.6,391.3z"/>
<path id="光谱_红" class="st3" d="M218.2,423.2h25.6c1.2,0,2.1,0.9,2.1,2.1v87.6c0,1.2-0.9,2.1-2.1,2.1h-25.6
	c-1.2,0-2.1-0.9-2.1-2.1v-87.6C216.1,424.2,217.1,423.2,218.2,423.2z"/>
<path id="光谱_绿" class="st4" d="M325.5,423.2h25.6c1.2,0,2.1,0.9,2.1,2.1v87.6c0,1.2-0.9,2.1-2.1,2.1h-25.6
	c-1.2,0-2.1-0.9-2.1-2.1v-87.6C323.4,424.2,324.4,423.2,325.5,423.2z"/>
<path id="光谱_紫红" class="st5" d="M404.9,391.3h25.6c1.2,0,2.1,0.9,2.1,2.1V481c0,1.2-0.9,2.1-2.1,2.1h-25.6
	c-1.2,0-2.1-0.9-2.1-2.1v-87.6C402.8,392.3,403.7,391.3,404.9,391.3z"/>
<circle id="大圆-2" class="st6" cx="286.8" cy="286.8" r="266.8"/>
<path id="下" class="st7" d="M372.5,159l-1.2,2.4l-9.8-4.8l1.2-2.4L372.5,159z"/>
<path id="上" class="st7" d="M423.8,183.9l-1.1,2.1l-9-4.3l1.1-2.1L423.8,183.9z"/>
<path id="电池板_上" class="st8" d="M469.9,229.6L415,203.2c-0.7-0.3-0.9-1.5-0.4-2.6l15.4-32.1c0.5-1.1,1.5-1.7,2.2-1.3
	l54.8,26.3c0.7,0.3,0.9,1.5,0.4,2.6L472,228.2C471.6,229.3,470.6,229.9,469.9,229.6z"/>
<path id="电池板下" class="st8" d="M352.7,174.1l-54.9-26.3c-0.7-0.3-0.9-1.5-0.4-2.6l15.3-32.1c0.5-1.1,1.5-1.7,2.2-1.3
	l54.9,26.3c0.7,0.3,0.9,1.5,0.4,2.6l-15.3,32.1C354.4,173.8,353.4,174.4,352.7,174.1z"/>
<path id="身子" class="st9" d="M399.6,209.7l-40.9-19.9c-0.8-0.4-1.2-1.3-0.8-2.2l0,0l26.5-54.9c0.4-0.8,1.4-1.1,2.2-0.7l0,0l0,0
	l40.9,19.9c0.8,0.4,1.2,1.4,0.8,2.2l0,0L401.8,209C401.4,209.8,400.4,210.1,399.6,209.7L399.6,209.7L399.6,209.7z"/>
<path id="绿_下" class="st10" d="M420.4,148.4l-26.3-12.6c-0.9-0.4-1.2-1.5-0.8-2.3l0,0l4.8-10c0.4-0.9,1.5-1.2,2.3-0.8l0,0
	l26.3,12.6c0.9,0.4,1.2,1.5,0.8,2.3l0,0l-4.8,10C422.3,148.4,421.2,148.8,420.4,148.4L420.4,148.4L420.4,148.4z"/>
<path id="绿_上" class="st10" d="M381.5,209.6l-14.5-7c-0.5-0.2-0.7-0.8-0.4-1.2l0,0v-0.1l2.9-5.3c0.3-0.5,0.9-0.7,1.3-0.4l14.5,7
	c0.5,0.2,0.7,0.7,0.4,1.2l0,0v0.1l-2.9,5.3C382.6,209.7,382,209.9,381.5,209.6L381.5,209.6z"/>
<path id="信号挡板" class="st11" d="M394.9,268.2L310,227.5c-0.9-0.4-1.3-1.4-0.9-2.3c0.4-0.9,1.4-1.3,2.3-0.9
	c0,0,0.1,0,0.1,0.1l0,0l84.9,40.8c0.9,0.4,1.2,1.5,0.8,2.3C396.8,268.3,395.8,268.6,394.9,268.2L394.9,268.2z"/>
<path id="发射装置" class="st12" d="M315,225.9c10.5-22,36.9-31.2,58.9-20.7s31.2,36.9,20.7,58.9"/>
<path id="挡板与信号球连接" class="st11" d="M353.2,244.8c1,0.5,1.5,1.7,1,2.8l-2.8,5.7c-0.5,1-1.7,1.5-2.7,1
	s-1.5-1.7-1-2.7l0,0l2.8-5.7C350.9,244.7,352.2,244.3,353.2,244.8C353.2,244.7,353.2,244.7,353.2,244.8L353.2,244.8z"/>
<circle id="信号球" class="st13" cx="346.2" cy="257.7" r="7.1"/>
<circle id="太阳" class="st14" cx="169.5" cy="198.6" r="64.1"/>
<path id="太阳环" class="st15" d="M259.1,198.6v0.4l0,0c0,5.7-1.4,7-10.1,9c-4.9,1.1-8.1,5.4-9.6,10.4
	c-3.8,12.7,12.8,15.5,8.6,25.3c-4.5,10.5-20.4-2.5-27.8,7.1c-10.4,13.5,4.7,18.8-4.8,26.3c-7.2,5.8-16.3-10.5-27.2-8.1
	c-6.6,1.4-9.9,6.1-11.7,11.9c-0.5,3-0.9,7.1-6.7,7.8c0-0.2,0.2-0.3,0.4-0.3s0.3,0.2,0.3,0.4l0,0c0,0.2-0.2,0.3-0.4,0.3
	s-0.3-0.2-0.3-0.4h-0.7h-0.9v-0.1c-4.7-0.3-5.9-2.1-7.8-10.2c-1.1-4.9-5.4-8.1-10.4-9.6c-12.7-3.8-15.5,12.8-25.3,8.6
	c-10.5-4.5,2.5-20.4-7.1-27.8c-13.5-10.4-18.8,4.7-26.3-4.8c-5.8-7.2,10.4-16.3,8.2-27.2c-1.4-6.6-6.1-10-11.9-11.7
	c-3.2-0.6-7-0.9-7.3-7.9h-0.4c0-6.1,1.3-7.4,10.2-9.4c4.9-1.1,8.1-5.4,9.6-10.4c3.8-12.7-12.8-15.5-8.6-25.3
	c4.5-10.5,20.4,2.5,27.8-7.1c10.3-13.5-4.7-18.8,4.8-26.3c7.2-5.8,16.3,10.4,27.2,8.1c6.6-1.4,10-6.1,11.7-11.9
	c0.5-3,0.9-7.1,6.7-7.8c0,0.2-0.2,0.3-0.4,0.3l0,0c-0.2,0-0.4-0.2-0.3-0.4c0-0.2,0.2-0.4,0.4-0.3c0.2,0,0.3,0.2,0.3,0.3h0.7
	c0.3,0,0.6,0,0.9-0.1v0.1c4.7,0.3,5.9,2.2,7.8,10.2c1.1,4.9,5.4,8.1,10.4,9.6c12.7,3.8,15.5-12.8,25.3-8.6
	c10.5,4.5-2.5,20.4,7.1,27.8c13.5,10.4,18.8-4.7,26.3,4.8c5.8,7.2-10.4,16.3-8.1,27.2c1.4,6.6,6.1,10,11.9,11.7
	C254.8,191.2,258.8,191.6,259.1,198.6C259.2,198.6,259.2,198.6,259.1,198.6z M169.5,134.6c-35.2,0-63.8,28.5-63.8,63.7
	s28.5,63.8,63.7,63.8s63.8-28.5,63.8-63.7l0,0C233.2,163.2,204.7,134.7,169.5,134.6L169.5,134.6z"/>
<path id="太阳_右" class="st16" d="M185.7,260c-34-8.8-54.4-43.6-45.6-77.6c5.8-22.4,23.3-39.8,45.6-45.6
	c34,8.8,54.4,43.6,45.6,77.6C225.4,236.8,208,254.2,185.7,260z"/>
<circle id="太阳_右小" class="st17" cx="197.1" cy="175.1" r="17.2"/>
</svg>
