<svg id="水" xmlns="http://www.w3.org/2000/svg" baseProfile="full" width="100%" height="100%" viewBox="0 0 2480 1395">
  <defs>
    <style>
      .cls-1 {
        fill: #7dbff0;
      }

      .cls-1, .cls-10, .cls-2, .cls-3, .cls-4, .cls-5, .cls-6, .cls-7, .cls-8, .cls-9 {
        fill-rule: evenodd;
      }

      .cls-2 {
        fill: #c9e7fd;
      }

      .cls-3 {
        fill: #e6eaf0;
      }

      .cls-4 {
        fill: #d6dbe0;
      }

      .cls-5 {
        fill: #a0e5fc;
      }

      .cls-6 {
        fill: #a0fcc3;
      }

      .cls-7 {
        fill: #c9a4f7;
      }

      .cls-8 {
        fill: #bcc5d1;
      }

      .cls-9 {
        fill: #616ae5;
      }

      .cls-10 {
        fill: #69d798;
      }
    </style>
  </defs>
  <path id="水-2" data-name="水" class="cls-1" d="M1910.59,939.24h-98.26a55.214,55.214,0,0,1,14.5,37.361v1.289a55.4,55.4,0,0,1-55.41,55.4H1613.64a55.391,55.391,0,0,1-35.52,97.91H905.456a55.392,55.392,0,0,1-35.523-97.91H710.872a55.4,55.4,0,0,1-55.411-55.4V976.6a55.186,55.186,0,0,1,14.5-37.361h-99.55a55.4,55.4,0,1,1,0-110.8H1910.59A55.4,55.4,0,1,1,1910.59,939.24Z"/>
  <path id="波浪" class="cls-2" d="M886.951,879.977H1104.37a15,15,0,0,1,15,15v8.65a15,15,0,0,1-15,15H886.951a15,15,0,0,1-15-15v-8.65A15,15,0,0,1,886.951,879.977Zm496.119,18.036h217.42a15,15,0,0,1,15,15v8.65a15,15,0,0,1-15,15H1383.07a15,15,0,0,1-15-15v-8.65A15,15,0,0,1,1383.07,898.013ZM1252.92,1038.44h182.63a15.005,15.005,0,0,1,15,15v8.65a15,15,0,0,1-15,15H1252.92a15,15,0,0,1-15-15v-8.65A15.005,15.005,0,0,1,1252.92,1038.44Zm-204.89-59.262h137.52a15,15,0,0,1,15,15v8.652a15,15,0,0,1-15,15H1048.03a15.005,15.005,0,0,1-15-15v-8.652A15,15,0,0,1,1048.03,979.178Z"/>
  <path id="右山_上" data-name="右山 上" class="cls-3" d="M1686.1,534.6l-342.24-4.424,138-192.452s24.39-43.782,62.93,0C1544.91,337.863,1686.1,534.6,1686.1,534.6Z"/>
  <path id="右山_下" data-name="右山 下" class="cls-4" d="M1362.62,504.737s52.41,68.718,108.2-34.288c3.68-6.8,15.67-22.074,15.45-22.12-0.16-.036,24.49,34.265,55.2-1.106,0.33-.377,49.13,91.771,98.26,22.12,0.35-.486,18.77,27.652,18.77,27.652L1900.28,831.02l-770.6-1.106Z"/>
  <path id="星_下" data-name="星 下" class="cls-5" d="M1301.34,1329q-16.47-56.52-73.18-77.17,58.53-16.56,80.46-71.7,16.485,56.5,73.18,77.17Q1323.27,1273.86,1301.34,1329Z">
	  <animate attributeType="XML" attributeName="fill"	values="rgba(160,229,252,1);rgba(255,255,255,0);rgba(160,229,252,1);" dur="5s" repeatCount="indefinite"/>
  </path>
  <path id="星_上_左" data-name="星 上 左" class="cls-6" d="M850.318,215.878q-16.474-56.508-73.18-77.168,58.527-16.556,80.464-71.694,16.473,56.507,73.18,77.168Q872.255,160.738,850.318,215.878Z">
	  <animate attributeType="XML" attributeName="fill"	values="rgba(255,255,255,0);rgba(160,252,195,1);rgba(255,255,255,0);" dur="4.7s" repeatCount="indefinite"/>
  </path>
  <path id="星_上_右" data-name="星 上 右" class="cls-7" d="M1671.18,330.54Q1654.7,274.032,1598,253.372q58.515-16.555,80.46-71.7,16.47,56.508,73.18,77.168Q1693.11,275.4,1671.18,330.54Z">
	  <animate attributeType="XML" attributeName="fill"	values="rgba(255,255,255,0);rgba(201,164,247,1);rgba(255,255,255,0);" dur="5.8s" repeatCount="indefinite"/>
  </path>
  <path id="阴影" class="cls-8" d="M1324.26,555.317l204.89,275.7h-39.94L1304.93,582.372Z"/>
  <path id="左山_上" data-name="左山 上" class="cls-3" d="M1232.77,485.748l-399.478-5.154L994.371,256.425s28.469-51,73.449,0C1067.97,256.587,1232.77,485.748,1232.77,485.748Z"/>
  <path id="左山_下" data-name="左山 下" class="cls-4" d="M855.2,450.963s61.166,80.043,126.286-39.939c4.3-7.915,18.3-25.713,18.041-25.766-0.2-.041,28.584,39.912,64.434-1.289,0.38-.438,57.34,106.9,114.69,25.767,0.4-.566,21.9,32.208,21.9,32.208L1482.76,831.02,583.3,829.732Z"/>
  <path id="树干" class="cls-9" d="M1716.01,749.855h37.37v85.03h-37.37v-85.03Z"/>
  <path id="树叶" class="cls-10" d="M1879.66,691.236a83.093,83.093,0,0,1-82.47,83.081v0.017H1667.04v-0.126a83.1,83.1,0,0,1-20.54-162.221c-0.04-1.065-.08-2.129-0.08-3.2a83.115,83.115,0,0,1,166.23,0c0,0.31-.01.617-0.02,0.926A83.114,83.114,0,0,1,1879.66,691.236Z"/>
</svg>
