<svg id="雪人" xmlns="http://www.w3.org/2000/svg" baseProfile="full" width="100%" height="100%" viewBox="0 0 2480 1395">
  <defs>
    <style>
      .cls-1 {
        fill: #705f00;
      }

      .cls-1, .cls-2, .cls-3, .cls-4, .cls-5, .cls-6, .cls-7 {
        fill-rule: evenodd;
      }

      .cls-2 {
        fill: #ebf7fb;
      }

      .cls-3 {
        fill: none;
        stroke: #020205;
        stroke-width: 1.116px;
      }

      .cls-5 {
        fill: #d2d2d2;
      }

      .cls-6 {
        fill: #f6cf7c;
      }

      .cls-7 {
        fill: #ffb0bb;
      }
    </style>
  </defs>
  <path id="手_右" data-name="手 右" class="cls-1" d="M1484.75,749.2l-9.83-10.535,216.13-201.736,9.84,10.534Zm134.37-125.349,19.21-17.291,69.46-17.587,3.25,14.039Zm-22.09.961-20.18,18.252,34.51-99.4,13.6,4.755Z"/>
  <path id="手_左" data-name="手 左" class="cls-1" d="M981.287,751.379l-10.537,9.84L768.964,544.908l10.537-9.84ZM855.908,616.9l-17.3-19.228-17.591-69.516,14.042-3.253Zm0.961,22.111L875.125,659.2,775.7,624.667l4.756-13.614Z"/>
  <path id="身子" class="cls-2" d="M1237.27,598.893c180.65,0,327.1,141.278,327.1,315.554S1417.92,1230,1237.27,1230,910.178,1088.72,910.178,914.447,1056.62,598.893,1237.27,598.893Z"/>
  <path id="头" class="cls-2" d="M1243.52,246.357c99.23,0,179.67,78.918,179.67,176.268s-80.44,176.268-179.67,176.268-179.66-78.918-179.66-176.268S1144.3,246.357,1243.52,246.357Z"/>
  <path id="嘴" class="cls-3" d="M1147.79,474.387s25.76,35.009,90.66,37.038c67.9,0.4,95.62-33.031,95.63-33.017"/>
  <path id="眼睛_右" data-name="眼睛 右" class="cls-4" d="M1316.56,349.082a14.9,14.9,0,1,1-15.37,14.9A15.144,15.144,0,0,1,1316.56,349.082Z"/>
  <path id="眼睛_左" data-name="眼睛 左" class="cls-4" d="M1168.11,349.107a14.418,14.418,0,1,1-14.89,14.41A14.652,14.652,0,0,1,1168.11,349.107Z"/>
  <path id="扣子" class="cls-5" d="M1233.47,833.291c8.23,0,14.9,4.5,14.9,10.056s-6.67,10.057-14.9,10.057-14.9-4.5-14.9-10.057S1225.24,833.291,1233.47,833.291Zm0,138.345c8.23,0,14.9,4.5,14.9,10.057s-6.67,10.056-14.9,10.056-14.9-4.5-14.9-10.056S1225.24,971.636,1233.47,971.636Zm0-265.13c8.23,0,14.9,4.5,14.9,10.056s-6.67,10.056-14.9,10.056-14.9-4.5-14.9-10.056S1225.24,706.506,1233.47,706.506Zm0,380.354c8.23,0,14.9,4.52,14.9,10.1s-6.67,10.11-14.9,10.11-14.9-4.53-14.9-10.11S1225.24,1086.86,1233.47,1086.86Z"/>
  <path id="围巾" class="cls-6" d="M1388.57,632.481l-302.58.02,59.64-62.436,186.5-.007Zm12.49,282.366-138.32.09,27.26-282.4,85.26-.035Z"/>
  <path id="帽子" class="cls-7" d="M1373.67,299.621l-181.71-46.684,54.57-63.754,112,28.782Z"/>
  <path id="帽子2" class="cls-7" d="M1263.5,193.637c5.18-19.881,25.9-31.655,46.27-26.3s32.7,25.817,27.52,45.7"/>
</svg>
