<svg xmlns="http://www.w3.org/2000/svg" baseProfile="full" width="100%" height="100%" viewBox="0 0 2480 1395">
  <defs>
    <style>
      .cls-1 {
        fill: #bef0b6;
      }

      .cls-1, .cls-2, .cls-3, .cls-4, .cls-5, .cls-6, .cls-7 {
        fill-rule: evenodd;
      }

      .cls-2 {
        fill: #d2ca9c;
      }

      .cls-3 {
        fill: #f6cf7c;
      }

      .cls-4 {
        fill: #a0e5fc;
      }

      .cls-5 {
        fill: #16d523;
      }

      .cls-6 {
        fill: none;
        stroke: #705f00;
        stroke-width: 0.744px;
      }

      .cls-7 {
        fill: #7e9cff;
      }
    </style>
  </defs>
  <path id="风车底" class="cls-1" d="M1570.03,1236.62l-659,.1L1035.1,917.7l410.68-.039Z"/>
  <path id="风车上" class="cls-2" d="M1364.81,693.233l-242.2-.6,119.83-294.683Z"/>
  <path id="风车中" class="cls-3" d="M1438.3,896.223l-394.69.065L1121.4,693.26l243.28-.025Z"/>
  <path id="风车中-2" data-name="风车中" class="cls-4" d="M1446.16,917.657H1035.12l7.86-21.373h396.3Z"/>
  <path id="风车轴" class="cls-5" d="M1490.26,124.291l13.5,13.546L992.076,646.145l-13.5-13.546Zm12.22,508.379-13.56,13.481L979.856,135.22l13.566-13.481Z">
	  <animateTransform attributeType="XML" attributeName="transform" begin="0s" dur="6s" type="rotate" from="360 1242 383" to="0 1242 383" repeatCount="indefinite"/>
  </path>
  <path id="风车叶" class="cls-6" d="M992.623,645.929l31.5-31.329,30.51,28.742-31.5,31.329Zm31.5-31.329,31.49-31.329,30.51,28.742-31.49,31.329Zm31.49-31.329,31.5-31.329,30.51,28.742-31.5,31.329Zm30.51,28.742,31.5-31.329,30.51,28.742-31.5,31.329Zm-31.49,31.329,31.49-31.329,30.51,28.742-31.49,31.329Zm-31.5,31.329,31.5-31.329,30.51,28.742-31.5,31.329ZM1335.51,161l31.5-31.329,30.51,28.741-31.5,31.329Zm31.5-31.329,31.49-31.33,30.51,28.742-31.49,31.329Zm31.49-31.33L1430,67.01l30.51,28.742-31.5,31.329Zm30.51,28.742,31.5-31.329,30.51,28.742-31.5,31.329Zm-31.49,31.329,31.49-31.329,30.51,28.742-31.49,31.329Zm-31.5,31.329,31.5-31.329,30.51,28.742-31.5,31.329ZM981.347,135.766l31.373,31.449L983.938,197.68l-31.376-31.449Zm31.373,31.449,31.38,31.449-28.79,30.465L983.938,197.68Zm31.38,31.449,31.37,31.449-28.78,30.465-31.38-31.449Zm-28.79,30.465,31.38,31.449-28.79,30.465-31.371-31.449ZM983.938,197.68l31.372,31.449-28.781,30.465-31.376-31.449Zm-31.376-31.449,31.376,31.449-28.785,30.465L923.778,196.7ZM1467,478.146l31.37,31.449-28.78,30.465-31.38-31.449Zm31.37,31.449,31.38,31.449-28.79,30.465-31.37-31.449Zm31.38,31.449,31.37,31.449-28.78,30.465-31.38-31.449Zm-28.79,30.465,31.38,31.449-28.78,30.465-31.38-31.449Zm-31.37-31.449,31.37,31.449-28.78,30.465-31.38-31.449Zm-31.38-31.449,31.38,31.449-28.79,30.465-31.37-31.449Z">
	  <animateTransform attributeType="XML" attributeName="transform" begin="0s" dur="6s" type="rotate" from="360 1242 383" to="0 1242 383" repeatCount="indefinite"/>
  </path>
  <path id="门" class="cls-7" d="M1168.51,1071.25H1315.1a12.741,12.741,0,0,1,12.75,12.73v154.01H1155.77V1083.98A12.733,12.733,0,0,1,1168.51,1071.25Z"/>
</svg>
