<?xml version="1.0" encoding="UTF-8" standalone="no"?>
<!DOCTYPE svg PUBLIC "-//W3C//DTD SVG 1.1//EN" "http://www.w3.org/Graphics/SVG/1.1/DTD/svg11.dtd">
<!-- 由 Microsoft Visio, SVG Export 生成 gma栅格处理思路.svg Page-1 -->
<svg xmlns="http://www.w3.org/2000/svg" xmlns:xlink="http://www.w3.org/1999/xlink" xmlns:ev="http://www.w3.org/2001/xml-events"
		viewBox="0 0 842.822 466.127" xml:space="preserve" color-interpolation-filters="sRGB"
		class="st18">
	<style type="text/css">
	<![CDATA[
		.st1 {fill:#fff2cc;stroke:#7f7f7f;stroke-width:0.75}
		.st2 {fill:#000000;font-family:微软雅黑;font-size:1.00001em}
		.st3 {fill:#deebf6;stroke:#7f7f7f;stroke-width:0.75}
		.st4 {marker-end:url(#mrkr4-12);stroke:#7f7f7f;stroke-linecap:round;stroke-linejoin:round;stroke-width:0.75}
		.st5 {fill:#7f7f7f;fill-opacity:1;stroke:#7f7f7f;stroke-opacity:1;stroke-width:0.22935779816514}
		.st6 {fill:none;stroke:none;stroke-width:0.75}
		.st7 {fill:#305497;font-family:微软雅黑;font-size:0.833336em}
		.st8 {fill:none;stroke:#7f7f7f;stroke-dasharray:5.25,3.75;stroke-width:0.75}
		.st9 {fill:#000000;font-family:微软雅黑;font-size:0.833336em}
		.st10 {fill:#f2f2f2;fill-opacity:0.6;stroke:#7f7f7f;stroke-width:0.75}
		.st11 {fill:#deebf6}
		.st12 {stroke:#c8c8c8;stroke-width:0.75}
		.st13 {fill:#000000;font-family:微软雅黑;font-size:0.75em}
		.st14 {fill:#305497;font-size:1em}
		.st15 {fill:#1e4e79;font-size:1em}
		.st16 {marker-end:url(#mrkr4-174);stroke:#a5a5a5;stroke-linecap:round;stroke-linejoin:round;stroke-width:1}
		.st17 {fill:#a5a5a5;fill-opacity:1;stroke:#a5a5a5;stroke-opacity:1;stroke-width:0.28409090909091}
		.st18 {fill:none;fill-rule:evenodd;font-size:12px;overflow:visible;stroke-linecap:square;stroke-miterlimit:3}
	]]>
	</style>

	<defs id="Markers">
		<g id="lend4">
			<path d="M 2 1 L 0 0 L 2 -1 L 2 1 " style="stroke:none"/>
		</g>
		<marker id="mrkr4-12" class="st5" refX="-8.72" orient="auto" markerUnits="strokeWidth" overflow="visible">
			<use xlink:href="#lend4" transform="scale(-4.36,-4.36) "/>
		</marker>
		<marker id="mrkr4-174" class="st17" refX="-7.04" orient="auto" markerUnits="strokeWidth" overflow="visible">
			<use xlink:href="#lend4" transform="scale(-3.52,-3.52) "/>
		</marker>
	</defs>
	<g>
		<title>页-1</title>
		<g id="shape5-1" transform="translate(360.413,-410.002)">
			<title>圆角矩形</title>
			<desc>文件-File</desc>
			<path d="M11.42 466.13 L102.75 466.13 A11.4159 11.4159 -180 0 0 114.16 454.71 L114.16 440.42 A11.4159 11.4159 -180 0
						 0 102.75 429 L11.42 429 A11.4159 11.4159 -180 0 0 -0 440.42 L0 454.71 A11.4159 11.4159 -180 0 0 11.42 466.13
						 Z" class="st1"/>
			<text x="32.7" y="451.16" class="st2">文件-File</text>		</g>
		<g id="shape6-4" transform="translate(360.413,-291.85)">
			<title>圆角矩形.6</title>
			<desc>数据集-DataSet</desc>
			<path d="M11.42 466.13 L102.75 466.13 A11.4159 11.4159 -180 0 0 114.16 454.71 L114.16 440.42 A11.4159 11.4159 -180 0
						 0 102.75 429 L11.42 429 A11.4159 11.4159 -180 0 0 -0 440.42 L0 454.71 A11.4159 11.4159 -180 0 0 11.42 466.13
						 Z" class="st3"/>
			<text x="13.94" y="451.16" class="st2">数据集-DataSet</text>		</g>
		<g id="shape8-7" transform="translate(410.407,-410.002)">
			<title>动态连接线</title>
			<path d="M7.09 466.13 L7.09 540.61" class="st4"/>
		</g>
		<g id="shape9-13" transform="translate(181.417,-347.538)">
			<title>圆角矩形.9</title>
			<desc>子数据集-SubDataSet</desc>
			<path d="M15.95 466.13 L143.52 466.13 A15.9466 15.9466 -180 0 0 159.47 450.18 L159.47 444.95 A15.9466 15.9466 -180 0
						 0 143.52 429 L15.95 429 A15.9466 15.9466 -180 0 0 -0 444.95 L0 450.18 A15.9466 15.9466 -180 0 0 15.95 466.13
						 Z" class="st3"/>
			<text x="19.6" y="452.06" class="st2">子数据集-SubDataSet</text>		</g>
		<g id="shape10-16" transform="translate(417.494,-410.002)">
			<title>动态连接线.10</title>
			<path d="M0 466.13 L0 510.03 L-70.07 510.03" class="st4"/>
		</g>
		<g id="shape14-21" transform="translate(420.366,-378.115)">
			<title>工作表.14</title>
			<desc>Open</desc>
			<rect x="0" y="453.03" width="35.2693" height="13.0971" class="st6"/>
			<text x="4.45" y="462.58" class="st7">Open</text>		</g>
		<g id="shape16-24" transform="translate(261.152,-347.538)">
			<title>动态连接线.16</title>
			<path d="M0 466.13 L0 503.25 L92.72 503.25" class="st4"/>
		</g>
		<g id="shape19-29" transform="translate(518.122,-191.245)">
			<title>流程</title>
			<path d="M0 466.13 L158.22 466.13 L158.22 227.79 L0 227.79 L0 466.13 Z" class="st8"/>
		</g>
		<g id="shape20-31" transform="translate(474.574,-317.499)">
			<title>动态连接线.20</title>
			<path d="M0 473.21 L37.01 473.21" class="st4"/>
		</g>
		<g id="shape22-36" transform="translate(474.967,-312.661)">
			<title>工作表.22</title>
			<desc>属性</desc>
			<rect x="0" y="453.03" width="35.2693" height="13.0971" class="st6"/>
			<text x="7.63" y="462.58" class="st9">属性</text>		</g>
		<g id="shape35-39" transform="translate(360.413,-189.754)">
			<title>圆角矩形.35</title>
			<desc>数组-array</desc>
			<path d="M11.42 466.13 L102.75 466.13 A11.4159 11.4159 -180 0 0 114.16 454.71 L114.16 440.42 A11.4159 11.4159 -180 0
						 0 102.75 429 L11.42 429 A11.4159 11.4159 -180 0 0 -0 440.42 L0 454.71 A11.4159 11.4159 -180 0 0 11.42 466.13
						 Z" class="st10"/>
			<text x="28.09" y="451.16" class="st2">数组-array</text>		</g>
		<g id="shape36-42" transform="translate(410.407,-291.85)">
			<title>动态连接线.36</title>
			<path d="M7.09 466.13 L7.09 524.56" class="st4"/>
		</g>
		<g id="shape37-47" transform="translate(420.945,-242.862)">
			<title>工作表.37</title>
			<desc>ToArray</desc>
			<rect x="0" y="453.03" width="48.189" height="13.0971" class="st6"/>
			<text x="5.3" y="462.58" class="st7">ToArray</text>		</g>
		<g id="shape38-50" transform="translate(360.413,-111.275)">
			<title>圆角矩形.38</title>
			<desc>新数组-array</desc>
			<path d="M11.42 466.13 L102.75 466.13 A11.4159 11.4159 -180 0 0 114.16 454.71 L114.16 440.42 A11.4159 11.4159 -180 0
						 0 102.75 429 L11.42 429 A11.4159 11.4159 -180 0 0 -0 440.42 L0 454.71 A11.4159 11.4159 -180 0 0 11.42 466.13
						 Z" class="st10"/>
			<text x="22.09" y="451.16" class="st2">新数组-array</text>		</g>
		<g id="shape39-53" transform="translate(410.407,-189.754)">
			<title>动态连接线.39</title>
			<path d="M7.09 466.13 L7.09 500.94" class="st4"/>
		</g>
		<g id="shape40-58" transform="translate(420.366,-162.323)">
			<title>工作表.40</title>
			<desc>数学科学运算</desc>
			<rect x="0" y="453.03" width="89.8702" height="13.0971" class="st6"/>
			<text x="4.94" y="462.58" class="st9">数学（科学）运算</text>		</g>
		<g id="shape42-61" transform="translate(360.413,-19)">
			<title>圆角矩形.42</title>
			<desc>新文件-NewFile</desc>
			<path d="M11.42 466.13 L102.75 466.13 A11.4159 11.4159 -180 0 0 114.16 454.71 L114.16 440.42 A11.4159 11.4159 -180 0
						 0 102.75 429 L11.42 429 A11.4159 11.4159 -180 0 0 -0 440.42 L0 454.71 A11.4159 11.4159 -180 0 0 11.42 466.13
						 Z" class="st1"/>
			<text x="13.68" y="451.16" class="st2">新文件-NewFile</text>		</g>
		<g id="shape43-64" transform="translate(424.58,-111.275)">
			<title>动态连接线.43</title>
			<path d="M-7.09 466.13 L-7.09 514.74" class="st4"/>
		</g>
		<g id="shape44-69" transform="translate(597.234,-191.245)">
			<title>动态连接线.44</title>
			<path d="M0 466.13 L0 568.4 L-179.74 568.4 L-179.74 594.71" class="st4"/>
		</g>
		<g id="shape47-74" transform="translate(420.366,-66.5156)">
			<title>工作表.47</title>
			<desc>WriteRaster</desc>
			<rect x="0" y="453.03" width="67.193" height="13.0971" class="st6"/>
			<text x="5.62" y="462.62" class="st7">WriteRaster</text>		</g>
		<g id="shape50-77" transform="translate(184.252,-215.018)">
			<title>圆角矩形.50</title>
			<desc>gdal 数据集-GDALDataset</desc>
			<path d="M15.95 466.13 L143.52 466.13 A15.9466 15.9466 -180 0 0 159.47 450.18 L159.47 444.95 A15.9466 15.9466 -180 0
						 0 143.52 429 L15.95 429 A15.9466 15.9466 -180 0 0 -0 444.95 L0 450.18 A15.9466 15.9466 -180 0 0 15.95 466.13
						 Z" class="st8"/>
			<text x="6.58" y="451.16" class="st2">gdal 数据集-GDALDataset</text>		</g>
		<g id="shape52-80" transform="translate(417.494,-291.85)">
			<title>动态连接线.52</title>
			<path d="M0 466.13 L0 493.16 L-153.51 493.16 L-153.51 499.29" class="st4"/>
		</g>
		<g id="shape53-85" transform="translate(294.803,-269.801)">
			<title>工作表.53</title>
			<desc>GetGDALDataset</desc>
			<rect x="0" y="453.03" width="99.5749" height="13.0971" class="st6"/>
			<text x="9.55" y="462.58" class="st7">GetGDALDataset</text>		</g>
		<g id="group56-88" transform="translate(527.478,-196.303)">
			<title>工作表.56</title>
			<g id="shape23-89" transform="translate(0,-211.181)">
				<title>子流程</title>
				<desc>WKT坐标系/投影-Projection</desc>
				<path d="M0 466.13 L141.5 466.13 L141.5 447.56 L0 447.56 L0 466.13 Z" class="st11"/>
				<path d="M0 466.13 L141.5 466.13 L141.5 447.56 L0 447.56 L0 466.13" class="st12"/>
				<path d="M8.5 466.13 L8.5 447.56" class="st12"/>
				<path d="M132.99 466.13 L132.99 447.56" class="st12"/>
				<text x="12.51" y="459.55" class="st13">WKT坐标系/投影-<tspan class="st14">Projection</tspan></text>			</g>
			<g id="shape24-96" transform="translate(0,-187.717)">
				<title>子流程.24</title>
				<desc>仿射变换-GeoTransform</desc>
				<path d="M0 466.13 L141.5 466.13 L141.5 447.56 L0 447.56 L0 466.13 Z" class="st11"/>
				<path d="M0 466.13 L141.5 466.13 L141.5 447.56 L0 447.56 L0 466.13" class="st12"/>
				<path d="M8.5 466.13 L8.5 447.56" class="st12"/>
				<path d="M132.99 466.13 L132.99 447.56" class="st12"/>
				<text x="20.05" y="459.55" class="st13">仿射变换-<tspan class="st14">GeoTransform</tspan></text>			</g>
			<g id="shape25-103" transform="translate(0,-164.252)">
				<title>子流程.25</title>
				<desc>元数据-Metadata</desc>
				<path d="M0 466.13 L141.5 466.13 L141.5 447.56 L0 447.56 L0 466.13 Z" class="st11"/>
				<path d="M0 466.13 L141.5 466.13 L141.5 447.56 L0 447.56 L0 466.13" class="st12"/>
				<path d="M8.5 466.13 L8.5 447.56" class="st12"/>
				<path d="M132.99 466.13 L132.99 447.56" class="st12"/>
				<text x="34.66" y="459.55" class="st13">元数据-<tspan class="st14">Metadata</tspan></text>			</g>
			<g id="shape26-110" transform="translate(0,-140.787)">
				<title>子流程.26</title>
				<desc>栅格信息-Info</desc>
				<path d="M0 466.13 L141.5 466.13 L141.5 447.56 L0 447.56 L0 466.13 Z" class="st11"/>
				<path d="M0 466.13 L141.5 466.13 L141.5 447.56 L0 447.56 L0 466.13" class="st12"/>
				<path d="M8.5 466.13 L8.5 447.56" class="st12"/>
				<path d="M132.99 466.13 L132.99 447.56" class="st12"/>
				<text x="42.29" y="459.55" class="st13">栅格信息-<tspan class="st14">Info</tspan></text>			</g>
			<g id="shape28-117" transform="translate(0,-117.323)">
				<title>子流程.28</title>
				<desc>波段数-Bands</desc>
				<path d="M0 466.13 L141.5 466.13 L141.5 447.56 L0 447.56 L0 466.13 Z" class="st11"/>
				<path d="M0 466.13 L141.5 466.13 L141.5 447.56 L0 447.56 L0 466.13" class="st12"/>
				<path d="M8.5 466.13 L8.5 447.56" class="st12"/>
				<path d="M132.99 466.13 L132.99 447.56" class="st12"/>
				<text x="42.26" y="459.55" class="st13">波段数-<tspan class="st14">Bands</tspan></text>			</g>
			<g id="shape29-124" transform="translate(0,-93.8583)">
				<title>子流程.29</title>
				<desc>行数-Rows</desc>
				<path d="M0 466.13 L141.5 466.13 L141.5 447.56 L0 447.56 L0 466.13 Z" class="st11"/>
				<path d="M0 466.13 L141.5 466.13 L141.5 447.56 L0 447.56 L0 466.13" class="st12"/>
				<path d="M8.5 466.13 L8.5 447.56" class="st12"/>
				<path d="M132.99 466.13 L132.99 447.56" class="st12"/>
				<text x="48.37" y="459.55" class="st13">行数-<tspan class="st14">Rows</tspan></text>			</g>
			<g id="shape30-131" transform="translate(0,-70.3937)">
				<title>子流程.30</title>
				<desc>列数-Columns</desc>
				<path d="M0 466.13 L141.5 466.13 L141.5 447.56 L0 447.56 L0 466.13 Z" class="st11"/>
				<path d="M0 466.13 L141.5 466.13 L141.5 447.56 L0 447.56 L0 466.13" class="st12"/>
				<path d="M8.5 466.13 L8.5 447.56" class="st12"/>
				<path d="M132.99 466.13 L132.99 447.56" class="st12"/>
				<text x="40.89" y="459.55" class="st13">列数-<tspan class="st14">Columns</tspan></text>			</g>
			<g id="shape31-138" transform="translate(0,-46.9291)">
				<title>子流程.31</title>
				<desc>数据类型-DataType</desc>
				<path d="M0 466.13 L141.5 466.13 L141.5 447.56 L0 447.56 L0 466.13 Z" class="st11"/>
				<path d="M0 466.13 L141.5 466.13 L141.5 447.56 L0 447.56 L0 466.13" class="st12"/>
				<path d="M8.5 466.13 L8.5 447.56" class="st12"/>
				<path d="M132.99 466.13 L132.99 447.56" class="st12"/>
				<text x="30.33" y="459.55" class="st13">数据类型-<tspan class="st14">DataType</tspan></text>			</g>
			<g id="shape32-145" transform="translate(0,-23.4646)">
				<title>子流程.32</title>
				<desc>栅格驱动-Driver</desc>
				<path d="M0 466.13 L141.5 466.13 L141.5 447.56 L0 447.56 L0 466.13 Z" class="st11"/>
				<path d="M0 466.13 L141.5 466.13 L141.5 447.56 L0 447.56 L0 466.13" class="st12"/>
				<path d="M8.5 466.13 L8.5 447.56" class="st12"/>
				<path d="M132.99 466.13 L132.99 447.56" class="st12"/>
				<text x="37.83" y="459.55" class="st13">栅格驱动-<tspan class="st14">Driver</tspan></text>			</g>
			<g id="shape33-152">
				<title>子流程.33</title>
				<desc>无数据值-NoData</desc>
				<path d="M0 466.13 L141.5 466.13 L141.5 447.56 L0 447.56 L0 466.13 Z" class="st11"/>
				<path d="M0 466.13 L141.5 466.13 L141.5 447.56 L0 447.56 L0 466.13" class="st12"/>
				<path d="M8.5 466.13 L8.5 447.56" class="st12"/>
				<path d="M132.99 466.13 L132.99 447.56" class="st12"/>
				<text x="34.2" y="459.55" class="st13">无数据值-<tspan class="st15">NoData</tspan></text>			</g>
		</g>
		<g id="shape1000-159" transform="translate(221.102,-389.197)">
			<title>工作表.1000</title>
			<desc>属性</desc>
			<rect x="0" y="453.03" width="35.2693" height="13.0971" class="st6"/>
			<text x="7.63" y="462.58" class="st9">属性</text>		</g>
		<g id="shape1001-162" transform="translate(200.207,-410.002)">
			<title>子流程</title>
			<desc>子数据集信息-SubInfo</desc>
			<path d="M0 466.13 L121.89 466.13 L121.89 447.56 L0 447.56 L0 466.13 Z" class="st11"/>
			<path d="M0 466.13 L121.89 466.13 L121.89 447.56 L0 447.56 L0 466.13" class="st12"/>
			<path d="M8.5 466.13 L8.5 447.56" class="st12"/>
			<path d="M113.39 466.13 L113.39 447.56" class="st12"/>
			<text x="15.24" y="459.55" class="st13">子数据集信息-<tspan class="st14">SubInfo</tspan></text>		</g>
		<g id="shape1002-169" transform="translate(254.065,-384.664)">
			<title>动态连接线.1002</title>
			<path d="M7.09 466.13 L7.09 447.83" class="st16"/>
		</g>
		<g id="shape1003-175" transform="translate(177.091,-321.165)">
			<title>工作表.1003</title>
			<desc>GetSubDataSet</desc>
			<rect x="0" y="453.03" width="84.0607" height="13.0971" class="st6"/>
			<text x="5.67" y="462.58" class="st7">GetSubDataSet</text>		</g>
	</g>
</svg>
