<?xml version="1.0" encoding="UTF-8" standalone="no"?>
<!DOCTYPE svg PUBLIC "-//W3C//DTD SVG 1.1//EN" "http://www.w3.org/Graphics/SVG/1.1/DTD/svg11.dtd">
<!-- 由 Microsoft Visio, SVG Export 生成 gma矢量处理思路.svg Page-1 -->
<svg xmlns="http://www.w3.org/2000/svg" xmlns:xlink="http://www.w3.org/1999/xlink" xmlns:ev="http://www.w3.org/2001/xml-events"
		width="11.6777in" height="13.1291in" viewBox="0 0 840.797 945.297" xml:space="preserve" color-interpolation-filters="sRGB"
		class="st38">
	<style type="text/css">
	<![CDATA[
		.st1 {fill:#deebf6;stroke:#7f7f7f;stroke-width:0.75}
		.st2 {fill:#000000;font-family:微软雅黑;font-size:1.00001em}
		.st3 {marker-end:url(#mrkr4-9);stroke:#7f7f7f;stroke-linecap:round;stroke-linejoin:round;stroke-width:0.75}
		.st4 {fill:#7f7f7f;fill-opacity:1;stroke:#7f7f7f;stroke-opacity:1;stroke-width:0.22935779816514}
		.st5 {fill:none;stroke:#7f7f7f;stroke-dasharray:5.25,3.75;stroke-width:0.75}
		.st6 {font-size:1em}
		.st7 {fill:none;stroke:none;stroke-width:0.75}
		.st8 {fill:#305497;font-family:微软雅黑;font-size:0.833336em}
		.st9 {fill:#fff2cc;stroke:#7f7f7f;stroke-width:0.75}
		.st10 {marker-end:url(#mrkr4-38);stroke:#7f7f7f;stroke-linecap:round;stroke-linejoin:round;stroke-width:1}
		.st11 {fill:#7f7f7f;fill-opacity:1;stroke:#7f7f7f;stroke-opacity:1;stroke-width:0.28409090909091}
		.st12 {fill:#000000;font-family:微软雅黑;font-size:0.833336em}
		.st13 {fill:#deebf6}
		.st14 {stroke:#c8c8c8;stroke-width:0.75}
		.st15 {fill:#000000;font-family:微软雅黑;font-size:0.75em}
		.st16 {fill:#305497;font-size:1em}
		.st17 {fill:#fbe5d5}
		.st18 {stroke:#c8c8c8;stroke-dasharray:5.25,3.75;stroke-width:0.75}
		.st19 {fill:#deebf6;fill-opacity:0.6;stroke:#7f7f7f;stroke-dasharray:5.25,3.75;stroke-width:0.75}
		.st20 {fill:#ff0000;font-family:微软雅黑;font-size:0.833336em}
		.st21 {fill:#41719c;font-size:1em}
		.st22 {fill:none;stroke:#7f7f7f;stroke-width:0.25}
		.st23 {fill:#fbe5d5;stroke:#c7c8c8;stroke-width:0.25}
		.st24 {fill:#a8d08d;stroke:#c7c8c8;stroke-width:0.25}
		.st25 {fill:#90aadb;stroke:#c7c8c8;stroke-width:0.25}
		.st26 {stroke:#4672c4;stroke-dasharray:10.5,7.5;stroke-linecap:round;stroke-linejoin:round;stroke-width:1.5}
		.st27 {fill:#c5e0b3;fill-opacity:0.9;stroke:#7f7f7f;stroke-dasharray:5.25,3.75;stroke-width:0.75}
		.st28 {fill:#dae2f3;stroke:none;stroke-width:0.25}
		.st29 {fill:#0c0c0c;font-family:Calibri;font-size:1.00001em}
		.st30 {fill:#f2f2f2;stroke:none;stroke-width:0.25}
		.st31 {fill:#000000;font-family:微软雅黑;font-size:0.666664em}
		.st32 {marker-end:url(#mrkr4-438);stroke:#7f7f7f;stroke-linecap:round;stroke-linejoin:round;stroke-width:0.5}
		.st33 {fill:#7f7f7f;fill-opacity:1;stroke:#7f7f7f;stroke-opacity:1;stroke-width:0.16556291390728}
		.st34 {fill:#3f3f3f;stroke:none;stroke-width:0.25}
		.st35 {fill:#dae2f3;stroke:#c7c8c8;stroke-width:0.25}
		.st36 {fill:#c5e0b3;stroke:#c7c8c8;stroke-width:0.25}
		.st37 {fill:#f2f2f2;stroke:#c7c8c8;stroke-width:0.25}
		.st38 {fill:none;fill-rule:evenodd;font-size:12px;overflow:visible;stroke-linecap:square;stroke-miterlimit:3}
	]]>
	</style>

	<defs id="Markers">
		<g id="lend4">
			<path d="M 2 1 L -0 0 L 2 -1 L 2 1 " style="stroke:none"/>
		</g>
		<marker id="mrkr4-9" class="st4" refX="-8.72" orient="auto" markerUnits="strokeWidth" overflow="visible">
			<use xlink:href="#lend4" transform="scale(-4.36,-4.36) "/>
		</marker>
		<marker id="mrkr4-38" class="st11" refX="-7.04" orient="auto" markerUnits="strokeWidth" overflow="visible">
			<use xlink:href="#lend4" transform="scale(-3.52,-3.52) "/>
		</marker>
		<marker id="mrkr4-438" class="st33" refX="-12.08" orient="auto" markerUnits="strokeWidth" overflow="visible">
			<use xlink:href="#lend4" transform="scale(-6.04,-6.04) "/>
		</marker>
	</defs>
	<g>
		<title>页-1</title>
		<g id="shape6-1" transform="translate(377.54,-802.918)">
			<title>圆角矩形.6</title>
			<desc>数据集-DataSet</desc>
			<path d="M11.42 945.3 L102.75 945.3 A11.4159 11.4159 -180 0 0 114.16 933.88 L114.16 919.59 A11.4159 11.4159 -180 0 0
						 102.75 908.17 L11.42 908.17 A11.4159 11.4159 -180 0 0 -0 919.59 L0 933.88 A11.4159 11.4159 -180 0 0 11.42
						 945.3 Z" class="st1"/>
			<text x="13.94" y="930.33" class="st2">数据集-DataSet</text>		</g>
		<g id="shape8-4" transform="translate(427.534,-889.421)">
			<title>动态连接线</title>
			<path d="M7.09 945.3 L7.09 988.13" class="st3"/>
		</g>
		<g id="shape36-10" transform="translate(427.534,-802.918)">
			<title>动态连接线.36</title>
			<path d="M7.09 945.3 L7.09 1058.3" class="st3"/>
		</g>
		<g id="shape39-15" transform="translate(427.534,-646.249)">
			<title>动态连接线.39</title>
			<path d="M7.09 945.3 L7.09 1043.85" class="st3"/>
		</g>
		<g id="shape50-20" transform="translate(168.622,-766.155)">
			<title>圆角矩形.50</title>
			<desc>ogr 数据集-OGRDataSourceShadow</desc>
			<path d="M15.95 945.3 L143.52 945.3 A15.9466 15.9466 -180 0 0 159.47 929.35 L159.47 924.12 A15.9466 15.9466 -180 0 0
						 143.52 908.17 L15.95 908.17 A15.9466 15.9466 -180 0 0 -0 924.12 L0 929.35 A15.9466 15.9466 -180 0 0 15.95
						 945.3 Z" class="st5"/>
			<text x="47.42" y="923.13" class="st2">ogr 数据集-<tspan x="10.48" dy="1.2em" class="st6">OGRDataSourceShadow</tspan></text>		</g>
		<g id="shape53-24" transform="translate(255.159,-821.746)">
			<title>工作表.53</title>
			<desc>GetOGRDataSource</desc>
			<rect x="0" y="932.2" width="106.583" height="13.0971" class="st7"/>
			<text x="6.22" y="941.75" class="st8">GetOGRDataSource</text>		</g>
		<g id="shape5-27" transform="translate(377.54,-889.421)">
			<title>圆角矩形</title>
			<desc>文件-File</desc>
			<path d="M11.42 945.3 L102.75 945.3 A11.4159 11.4159 -180 0 0 114.16 933.88 L114.16 919.59 A11.4159 11.4159 -180 0 0
						 102.75 908.17 L11.42 908.17 A11.4159 11.4159 -180 0 0 -0 919.59 L0 933.88 A11.4159 11.4159 -180 0 0 11.42
						 945.3 Z" class="st9"/>
			<text x="32.7" y="930.33" class="st2">文件-File</text>		</g>
		<g id="shape14-30" transform="translate(437.493,-862.151)">
			<title>工作表.14</title>
			<desc>Open</desc>
			<rect x="0" y="932.2" width="35.2693" height="13.0971" class="st7"/>
			<text x="4.45" y="941.75" class="st8">Open</text>		</g>
		<g id="shape1009-33" transform="translate(377.54,-657.725)">
			<title>动态连接线.1009</title>
			<path d="M0 938.21 L-32.69 938.21" class="st10"/>
		</g>
		<g id="shape1010-39" transform="translate(342.365,-670.274)">
			<title>工作表.1010</title>
			<desc>属性</desc>
			<rect x="0" y="932.2" width="35.2693" height="13.0971" class="st7"/>
			<text x="7.63" y="941.75" class="st12">属性</text>		</g>
		<g id="shape35-42" transform="translate(377.54,-646.249)">
			<title>圆角矩形.35</title>
			<desc>图层-Layer</desc>
			<path d="M11.42 945.3 L102.75 945.3 A11.4159 11.4159 -180 0 0 114.16 933.88 L114.16 919.59 A11.4159 11.4159 -180 0 0
						 102.75 908.17 L11.42 908.17 A11.4159 11.4159 -180 0 0 -0 919.59 L0 933.88 A11.4159 11.4159 -180 0 0 11.42
						 945.3 Z" class="st1"/>
			<text x="27.22" y="930.33" class="st2">图层-Layer</text>		</g>
		<g id="shape37-45" transform="translate(438.072,-709.312)">
			<title>工作表.37</title>
			<desc>GetLayer</desc>
			<rect x="0" y="932.2" width="53.6294" height="13.0971" class="st7"/>
			<text x="5.67" y="941.75" class="st8">GetLayer</text>		</g>
		<g id="shape1014-48" transform="translate(377.54,-504.029)">
			<title>圆角矩形.1014</title>
			<desc>要素-Feature</desc>
			<path d="M11.42 945.3 L102.75 945.3 A11.4159 11.4159 -180 0 0 114.16 933.88 L114.16 919.59 A11.4159 11.4159 -180 0 0
						 102.75 908.17 L11.42 908.17 A11.4159 11.4159 -180 0 0 -0 919.59 L0 933.88 A11.4159 11.4159 -180 0 0 11.42
						 945.3 Z" class="st1"/>
			<text x="20.95" y="930.33" class="st2">要素-Feature</text>		</g>
		<g id="shape1016-51" transform="translate(438.072,-552.727)">
			<title>工作表.1016</title>
			<desc>GetFeature</desc>
			<rect x="0" y="932.2" width="60.9449" height="13.0971" class="st7"/>
			<text x="4.11" y="941.75" class="st8">GetFeature</text>		</g>
		<g id="group1018-54" transform="translate(521.381,-761.953)">
			<title>工作表.1018</title>
			<g id="shape23-55" transform="translate(6.75272,-98.7655)">
				<title>子流程</title>
				<desc>图层数量-LayerCount</desc>
				<path d="M0 945.3 L114.25 945.3 L114.25 926.73 L0 926.73 L0 945.3 Z" class="st13"/>
				<path d="M0 945.3 L114.25 945.3 L114.25 926.73 L0 926.73 L0 945.3" class="st14"/>
				<path d="M8.5 945.3 L8.5 926.73" class="st14"/>
				<path d="M105.74 945.3 L105.74 926.73" class="st14"/>
				<text x="12.63" y="938.72" class="st15">图层数量-<tspan class="st16">LayerCount</tspan></text>			</g>
			<g id="shape24-62" transform="translate(6.75272,-75.1027)">
				<title>子流程.24</title>
				<desc>图层名-LayerNames</desc>
				<path d="M0 945.3 L114.25 945.3 L114.25 926.73 L0 926.73 L0 945.3 Z" class="st13"/>
				<path d="M0 945.3 L114.25 945.3 L114.25 926.73 L0 926.73 L0 945.3" class="st14"/>
				<path d="M8.5 945.3 L8.5 926.73" class="st14"/>
				<path d="M105.74 945.3 L105.74 926.73" class="st14"/>
				<text x="15.23" y="938.72" class="st15">图层名-<tspan class="st16">LayerNames</tspan></text>			</g>
			<g id="shape32-69" transform="translate(6.75272,-51.44)">
				<title>子流程.32</title>
				<desc>矢量驱动-Driver</desc>
				<path d="M0 945.3 L114.25 945.3 L114.25 926.73 L0 926.73 L0 945.3 Z" class="st13"/>
				<path d="M0 945.3 L114.25 945.3 L114.25 926.73 L0 926.73 L0 945.3" class="st14"/>
				<path d="M8.5 945.3 L8.5 926.73" class="st14"/>
				<path d="M105.74 945.3 L105.74 926.73" class="st14"/>
				<text x="24.2" y="938.72" class="st15">矢量驱动-<tspan class="st16">Driver</tspan></text>			</g>
			<g id="shape33-76" transform="translate(6.75272,-4.11436)">
				<title>子流程.33</title>
				<desc>…...</desc>
				<path d="M0 945.3 L114.25 945.3 L114.25 926.73 L0 926.73 L0 945.3 Z" class="st13"/>
				<path d="M0 945.3 L114.25 945.3 L114.25 926.73 L0 926.73 L0 945.3" class="st14"/>
				<path d="M8.5 945.3 L8.5 926.73" class="st14"/>
				<path d="M105.74 945.3 L105.74 926.73" class="st14"/>
				<text x="50.21" y="938.72" class="st15">…...</text>			</g>
			<g id="shape19-82" transform="translate(-1.59872E-14,1.41733)">
				<title>流程</title>
				<path d="M0 945.3 L127.75 945.3 L127.75 823.41 L0 823.41 L0 945.3 Z" class="st5"/>
			</g>
			<g id="shape1017-84" transform="translate(6.75272,-27.7772)">
				<title>子流程.1017</title>
				<desc>元数据-Metadata</desc>
				<path d="M0 945.3 L114.25 945.3 L114.25 926.73 L0 926.73 L0 945.3 Z" class="st17"/>
				<path d="M0 945.3 L114.25 945.3 L114.25 926.73 L0 926.73 L0 945.3" class="st18"/>
				<path d="M8.5 945.3 L8.5 926.73" class="st18"/>
				<path d="M105.74 945.3 L105.74 926.73" class="st18"/>
				<text x="21.03" y="938.72" class="st15">元数据-<tspan class="st16">Metadata</tspan></text>			</g>
		</g>
		<g id="group1020-91" transform="translate(179.581,-581.934)">
			<title>工作表.1020</title>
			<g id="shape1004-92">
				<title>流程</title>
				<path d="M0 945.3 L158.22 945.3 L158.22 779.54 L0 779.54 L0 945.3 Z" class="st5"/>
			</g>
			<g id="shape1005-94" transform="translate(7.74169,-121.182)">
				<title>子流程</title>
				<desc>四至范围-Boundary</desc>
				<path d="M0 945.3 L141.5 945.3 L141.5 926.73 L0 926.73 L0 945.3 Z" class="st13"/>
				<path d="M0 945.3 L141.5 945.3 L141.5 926.73 L0 926.73 L0 945.3" class="st14"/>
				<path d="M8.5 945.3 L8.5 926.73" class="st14"/>
				<path d="M132.99 945.3 L132.99 926.73" class="st14"/>
				<text x="30.11" y="938.72" class="st15">四至范围-<tspan class="st16">Boundary</tspan></text>			</g>
			<g id="shape1006-101" transform="translate(7.74169,-98.0791)">
				<title>子流程.24</title>
				<desc>要素数量-FeatureCount</desc>
				<path d="M0 945.3 L141.5 945.3 L141.5 926.73 L0 926.73 L0 945.3 Z" class="st13"/>
				<path d="M0 945.3 L141.5 945.3 L141.5 926.73 L0 926.73 L0 945.3" class="st14"/>
				<path d="M8.5 945.3 L8.5 926.73" class="st14"/>
				<path d="M132.99 945.3 L132.99 926.73" class="st14"/>
				<text x="21.56" y="938.72" class="st15">要素数量-<tspan class="st16">FeatureCount</tspan></text>			</g>
			<g id="shape1007-108" transform="translate(7.74169,-74.9767)">
				<title>子流程.32</title>
				<desc>字段类型-FieldDataTypes</desc>
				<path d="M0 945.3 L141.5 945.3 L141.5 926.73 L0 926.73 L0 945.3 Z" class="st13"/>
				<path d="M0 945.3 L141.5 945.3 L141.5 926.73 L0 926.73 L0 945.3" class="st14"/>
				<path d="M8.5 945.3 L8.5 926.73" class="st14"/>
				<path d="M132.99 945.3 L132.99 926.73" class="st14"/>
				<text x="18.03" y="938.72" class="st15">字段类型<tspan class="st16">-</tspan><tspan class="st16">FieldDataTypes</tspan></text>			</g>
			<g id="shape1008-116" transform="translate(7.74169,-5.66929)">
				<title>子流程.33</title>
				<desc>…...</desc>
				<path d="M0 945.3 L141.5 945.3 L141.5 926.73 L0 926.73 L0 945.3 Z" class="st13"/>
				<path d="M0 945.3 L141.5 945.3 L141.5 926.73 L0 926.73 L0 945.3" class="st14"/>
				<path d="M8.5 945.3 L8.5 926.73" class="st14"/>
				<path d="M132.99 945.3 L132.99 926.73" class="st14"/>
				<text x="63.84" y="938.72" class="st15">…...</text>			</g>
			<g id="shape1011-122" transform="translate(7.74169,-51.8742)">
				<title>子流程.1011</title>
				<desc>属性表名称-FieldNames</desc>
				<path d="M0 945.3 L141.5 945.3 L141.5 926.73 L0 926.73 L0 945.3 Z" class="st13"/>
				<path d="M0 945.3 L141.5 945.3 L141.5 926.73 L0 926.73 L0 945.3" class="st14"/>
				<path d="M8.5 945.3 L8.5 926.73" class="st14"/>
				<path d="M132.99 945.3 L132.99 926.73" class="st14"/>
				<text x="21.09" y="938.72" class="st15">属性表名称-<tspan class="st16">FieldNames</tspan></text>			</g>
			<g id="shape1012-129" transform="translate(7.74169,-28.7718)">
				<title>子流程.1012</title>
				<desc>WKT坐标系/投影-Projection</desc>
				<path d="M0 945.3 L141.5 945.3 L141.5 926.73 L0 926.73 L0 945.3 Z" class="st13"/>
				<path d="M0 945.3 L141.5 945.3 L141.5 926.73 L0 926.73 L0 945.3" class="st14"/>
				<path d="M8.5 945.3 L8.5 926.73" class="st14"/>
				<path d="M132.99 945.3 L132.99 926.73" class="st14"/>
				<text x="12.51" y="938.72" class="st15">WKT坐标系/投影-<tspan class="st16">Projection</tspan></text>			</g>
			<g id="shape1019-136" transform="translate(7.74169,-144.284)">
				<title>子流程.1019</title>
				<desc>几何类型-GeomType</desc>
				<path d="M0 945.3 L141.5 945.3 L141.5 926.73 L0 926.73 L0 945.3 Z" class="st17"/>
				<path d="M0 945.3 L141.5 945.3 L141.5 926.73 L0 926.73 L0 945.3" class="st18"/>
				<path d="M8.5 945.3 L8.5 926.73" class="st18"/>
				<path d="M132.99 945.3 L132.99 926.73" class="st18"/>
				<text x="27.44" y="938.72" class="st15">几何类型-<tspan class="st16">GeomType</tspan></text>			</g>
		</g>
		<g id="shape1021-143" transform="translate(282.309,-400.427)">
			<title>圆角矩形.1021</title>
			<desc>几何形状-Geometry</desc>
			<path d="M13.93 945.3 L125.36 945.3 A13.9283 13.9283 -180 0 0 139.29 931.37 L139.29 922.1 A13.9283 13.9283 -180 0 0 125.36
						 908.17 L13.93 908.17 A13.9283 13.9283 -180 0 0 0 922.1 L0 931.37 A13.9283 13.9283 -180 0 0 13.93 945.3 Z"
					class="st19"/>
			<text x="14.64" y="930.33" class="st2">几何形状-Geometry</text>		</g>
		<g id="shape1022-146" transform="translate(449.657,-401.682)">
			<title>圆角矩形.1022</title>
			<desc>属性表字段-FieldDefn</desc>
			<path d="M14.35 945.3 L129.19 945.3 A14.3539 14.3539 -180 0 0 143.54 930.94 L143.54 922.53 A14.3539 14.3539 -180 0 0
						 129.19 908.17 L14.35 908.17 A14.3539 14.3539 -180 0 0 0 922.53 L0 930.94 A14.3539 14.3539 -180 0 0 14.35
						 945.3 Z" class="st19"/>
			<text x="11.8" y="930.33" class="st2">属性表字段-FieldDefn</text>		</g>
		<g id="shape1023-149" transform="translate(434.62,-504.029)">
			<title>动态连接线.1023</title>
			<path d="M0 945.3 L0 973.64 L-82.67 973.64 L-82.67 1004.73" class="st10"/>
		</g>
		<g id="shape1024-154" transform="translate(434.62,-504.029)">
			<title>动态连接线.1024</title>
			<path d="M0 945.3 L0 973.64 L86.81 973.64 L86.81 1003.48" class="st10"/>
		</g>
		<g id="shape1025-159" transform="translate(348.661,-476.759)">
			<title>工作表.1025</title>
			<desc>GetGeometry</desc>
			<rect x="0" y="932.2" width="76.5354" height="13.0971" class="st7"/>
			<text x="6.18" y="941.75" class="st20">GetGeometry</text>		</g>
		<g id="shape1026-162" transform="translate(445.039,-476.759)">
			<title>工作表.1026</title>
			<desc>GetFieldDefn</desc>
			<rect x="0" y="932.2" width="73.7008" height="13.0971" class="st7"/>
			<text x="5.62" y="941.75" class="st20">GetFieldDefn</text>		</g>
		<g id="group1036-165" transform="translate(120.696,-370.464)">
			<title>工作表.1036</title>
			<g id="shape1028-166">
				<title>流程</title>
				<path d="M0 945.3 L133.65 945.3 L133.65 848.25 L0 848.25 L0 945.3 Z" class="st5"/>
			</g>
			<g id="shape1029-168" transform="translate(6.70647,-51.657)">
				<title>子流程</title>
				<desc>长度-Length</desc>
				<path d="M0 945.3 L119.52 945.3 L119.52 926.73 L0 926.73 L0 945.3 Z" class="st17"/>
				<path d="M0 945.3 L119.52 945.3 L119.52 926.73 L0 926.73 L0 945.3" class="st18"/>
				<path d="M8.5 945.3 L8.5 926.73" class="st18"/>
				<path d="M111.02 945.3 L111.02 926.73" class="st18"/>
				<text x="33.85" y="938.72" class="st15">长度-<tspan class="st16">Length</tspan></text>			</g>
			<g id="shape1030-175" transform="translate(6.70647,-27.7339)">
				<title>子流程.24</title>
				<desc>折点坐标-Points</desc>
				<path d="M0 945.3 L119.52 945.3 L119.52 926.73 L0 926.73 L0 945.3 Z" class="st17"/>
				<path d="M0 945.3 L119.52 945.3 L119.52 926.73 L0 926.73 L0 945.3" class="st18"/>
				<path d="M8.5 945.3 L8.5 926.73" class="st18"/>
				<path d="M111.02 945.3 L111.02 926.73" class="st18"/>
				<text x="26.47" y="938.72" class="st15">折点坐标-<tspan class="st16">Points</tspan></text>			</g>
			<g id="shape1032-182" transform="translate(6.67652,-3.81077)">
				<title>子流程.33</title>
				<desc>…...</desc>
				<path d="M0 945.3 L119.52 945.3 L119.52 926.73 L0 926.73 L0 945.3 Z" class="st17"/>
				<path d="M0 945.3 L119.52 945.3 L119.52 926.73 L0 926.73 L0 945.3" class="st18"/>
				<path d="M8.5 945.3 L8.5 926.73" class="st18"/>
				<path d="M111.02 945.3 L111.02 926.73" class="st18"/>
				<text x="52.85" y="938.72" class="st15">…...</text>			</g>
			<g id="shape1035-188" transform="translate(6.53947,-75.5801)">
				<title>子流程.1019</title>
				<desc>面积-Area</desc>
				<path d="M0 945.3 L119.52 945.3 L119.52 926.73 L0 926.73 L0 945.3 Z" class="st17"/>
				<path d="M0 945.3 L119.52 945.3 L119.52 926.73 L0 926.73 L0 945.3" class="st18"/>
				<path d="M8.5 945.3 L8.5 926.73" class="st18"/>
				<path d="M111.02 945.3 L111.02 926.73" class="st18"/>
				<text x="38.89" y="938.72" class="st15">面积-<tspan class="st16">Area</tspan></text>			</g>
		</g>
		<g id="shape1037-195" transform="translate(282.309,-411.903)">
			<title>动态连接线.1037</title>
			<path d="M0 938.21 L-20.92 938.21" class="st10"/>
		</g>
		<g id="group1038-200" transform="translate(638.03,-371.675)">
			<title>工作表.1038</title>
			<g id="shape1039-201">
				<title>流程</title>
				<path d="M0 945.3 L127.75 945.3 L127.75 848.25 L0 848.25 L0 945.3 Z" class="st5"/>
			</g>
			<g id="shape1040-203" transform="translate(6.41037,-51.657)">
				<title>子流程</title>
				<desc>数据宽度-Width</desc>
				<path d="M0 945.3 L114.25 945.3 L114.25 926.73 L0 926.73 L0 945.3 Z" class="st17"/>
				<path d="M0 945.3 L114.25 945.3 L114.25 926.73 L0 926.73 L0 945.3" class="st18"/>
				<path d="M8.5 945.3 L8.5 926.73" class="st18"/>
				<path d="M105.74 945.3 L105.74 926.73" class="st18"/>
				<text x="24.07" y="938.72" class="st15">数据宽度-<tspan class="st16">Width</tspan></text>			</g>
			<g id="shape1041-210" transform="translate(6.41037,-27.7339)">
				<title>子流程.24</title>
				<desc>精度-Precision</desc>
				<path d="M0 945.3 L114.25 945.3 L114.25 926.73 L0 926.73 L0 945.3 Z" class="st17"/>
				<path d="M0 945.3 L114.25 945.3 L114.25 926.73 L0 926.73 L0 945.3" class="st18"/>
				<path d="M8.5 945.3 L8.5 926.73" class="st18"/>
				<path d="M105.74 945.3 L105.74 926.73" class="st18"/>
				<text x="26.78" y="938.72" class="st15">精度-<tspan class="st16">Precision</tspan></text>			</g>
			<g id="shape1042-217" transform="translate(6.38174,-3.81077)">
				<title>子流程.33</title>
				<desc>…...</desc>
				<path d="M0 945.3 L114.25 945.3 L114.25 926.73 L0 926.73 L0 945.3 Z" class="st17"/>
				<path d="M0 945.3 L114.25 945.3 L114.25 926.73 L0 926.73 L0 945.3" class="st18"/>
				<path d="M8.5 945.3 L8.5 926.73" class="st18"/>
				<path d="M105.74 945.3 L105.74 926.73" class="st18"/>
				<text x="50.21" y="938.72" class="st15">…...</text>			</g>
			<g id="shape1043-223" transform="translate(6.25074,-75.5801)">
				<title>子流程.1019</title>
				<desc>数据类型-DataType</desc>
				<path d="M0 945.3 L114.25 945.3 L114.25 926.73 L0 926.73 L0 945.3 Z" class="st17"/>
				<path d="M0 945.3 L114.25 945.3 L114.25 926.73 L0 926.73 L0 945.3" class="st18"/>
				<path d="M8.5 945.3 L8.5 926.73" class="st18"/>
				<path d="M105.74 945.3 L105.74 926.73" class="st18"/>
				<text x="16.71" y="938.72" class="st15">数据类型-<tspan class="st21">DataType</tspan></text>			</g>
		</g>
		<g id="shape1044-230" transform="translate(593.199,-427.309)">
			<title>动态连接线.1044</title>
			<path d="M0 952.36 L6.34 952.36 L6.34 952.41 L37.79 952.41" class="st10"/>
		</g>
		<g id="shape1045-235" transform="translate(251.516,-424.63)">
			<title>工作表.1045</title>
			<desc>属性</desc>
			<rect x="0" y="932.2" width="35.2693" height="13.0971" class="st7"/>
			<text x="7.63" y="941.75" class="st12">属性</text>		</g>
		<g id="shape1046-238" transform="translate(596.833,-424.908)">
			<title>工作表.1046</title>
			<desc>属性</desc>
			<rect x="0" y="932.2" width="35.2693" height="13.0971" class="st7"/>
			<text x="7.63" y="941.75" class="st12">属性</text>		</g>
		<g id="shape1047-241" transform="translate(282.309,-299.27)">
			<title>圆角矩形.1047</title>
			<desc>新几何形状-Geometry</desc>
			<path d="M13.93 945.3 L125.36 945.3 A13.9283 13.9283 -180 0 0 139.29 931.37 L139.29 922.1 A13.9283 13.9283 -180 0 0 125.36
						 908.17 L13.93 908.17 A13.9283 13.9283 -180 0 0 0 922.1 L0 931.37 A13.9283 13.9283 -180 0 0 13.93 945.3 Z"
					class="st19"/>
			<text x="8.64" y="930.33" class="st2">新几何形状-Geometry</text>		</g>
		<g id="shape1048-244" transform="translate(449.657,-300.525)">
			<title>圆角矩形.1048</title>
			<desc>新属性表字段-FieldDefn</desc>
			<path d="M14.35 945.3 L129.19 945.3 A14.3539 14.3539 -180 0 0 143.54 930.94 L143.54 922.53 A14.3539 14.3539 -180 0 0
						 129.19 908.17 L14.35 908.17 A14.3539 14.3539 -180 0 0 0 922.53 L0 930.94 A14.3539 14.3539 -180 0 0 14.35
						 945.3 Z" class="st19"/>
			<text x="5.8" y="930.33" class="st2">新属性表字段-FieldDefn</text>		</g>
		<g id="shape1049-247" transform="translate(378.35,-157.375)">
			<title>圆角矩形.1049</title>
			<desc>更新要素-Feature</desc>
			<path d="M11.42 945.3 L102.75 945.3 A11.4159 11.4159 -180 0 0 114.16 933.88 L114.16 919.59 A11.4159 11.4159 -180 0 0
						 102.75 908.17 L11.42 908.17 A11.4159 11.4159 -180 0 0 -0 919.59 L0 933.88 A11.4159 11.4159 -180 0 0 11.42
						 945.3 Z" class="st19"/>
			<text x="8.95" y="930.33" class="st2">更新要素-Feature</text>		</g>
		<g id="shape1050-250" transform="translate(344.865,-400.427)">
			<title>动态连接线.1050</title>
			<path d="M7.09 945.3 L7.09 1002.29" class="st10"/>
		</g>
		<g id="shape1051-255" transform="translate(514.342,-401.682)">
			<title>动态连接线.1051</title>
			<path d="M7.09 945.3 L7.09 1002.29" class="st10"/>
		</g>
		<g id="shape1052-260" transform="translate(351.952,-299.27)">
			<title>动态连接线.1052</title>
			<path d="M0 945.3 L0 970.81 L83.48 970.81 L83.48 1043.03" class="st10"/>
		</g>
		<g id="shape1053-265" transform="translate(521.428,-300.525)">
			<title>动态连接线.1053</title>
			<path d="M0 945.3 L0 972.06 L-86 972.06 L-86 1044.28" class="st10"/>
		</g>
		<g id="shape1054-270" transform="translate(350.056,-342.955)">
			<title>工作表.1054</title>
			<desc>更新、修改</desc>
			<rect x="0" y="932.2" width="60.9449" height="13.0971" class="st7"/>
			<text x="5.47" y="941.75" class="st12">更新、修改</text>		</g>
		<g id="shape1055-273" transform="translate(460.465,-344.21)">
			<title>工作表.1055</title>
			<desc>更新、修改</desc>
			<rect x="0" y="932.2" width="60.9449" height="13.0971" class="st7"/>
			<text x="5.47" y="941.75" class="st12">更新、修改</text>		</g>
		<g id="shape1056-276" transform="translate(378.35,-80.3362)">
			<title>圆角矩形.1056</title>
			<desc>更新图层-Layer</desc>
			<path d="M11.42 945.3 L102.75 945.3 A11.4159 11.4159 -180 0 0 114.16 933.88 L114.16 919.59 A11.4159 11.4159 -180 0 0
						 102.75 908.17 L11.42 908.17 A11.4159 11.4159 -180 0 0 -0 919.59 L0 933.88 A11.4159 11.4159 -180 0 0 11.42
						 945.3 Z" class="st19"/>
			<text x="15.22" y="930.33" class="st2">更新图层-Layer</text>		</g>
		<g id="shape1058-279" transform="translate(428.344,-157.375)">
			<title>动态连接线.1058</title>
			<path d="M7.09 945.3 L7.09 978.17" class="st10"/>
		</g>
		<g id="shape1087-284" transform="translate(488.048,-826.19)">
			<title>工作表.1087</title>
			<desc>属性</desc>
			<rect x="0" y="932.2" width="35.2693" height="13.0971" class="st7"/>
			<text x="7.63" y="941.75" class="st12">属性</text>		</g>
		<g id="group1088-287" transform="translate(651.968,-594.226)">
			<title>工作表.1088</title>
			<g id="shape1076-288">
				<title>工作表.1076</title>
				<rect x="0" y="801.755" width="143.542" height="143.542" class="st22"/>
			</g>
			<g id="shape1077-290" transform="translate(34.0912,-101.873)">
				<title>工作表.1077</title>
				<rect x="0" y="925.56" width="80.7422" height="19.737" class="st23"/>
			</g>
			<g id="shape1078-292" transform="translate(19.737,-17.9427)">
				<title>工作表.1078</title>
				<rect x="0" y="873.526" width="41.2683" height="71.7709" class="st24"/>
			</g>
			<g id="shape1079-294" transform="translate(75.3594,-19.737)">
				<title>工作表.1079</title>
				<ellipse cx="24.2227" cy="911.206" rx="24.2227" ry="34.0912" class="st25"/>
			</g>
			<g id="shape1080-296" transform="translate(-6.79456E-14,-125.599)">
				<title>工作表.1080</title>
				<desc>图层</desc>
				<rect x="0" y="930.706" width="43.1725" height="14.5909" class="st7"/>
				<text x="11.59" y="941" class="st12">图层</text>			</g>
			<g id="shape1081-299" transform="translate(50.1847,-104.068)">
				<title>工作表.1081</title>
				<desc>要素1</desc>
				<rect x="0" y="930.706" width="43.1725" height="14.5909" class="st7"/>
				<text x="8.65" y="941" class="st12">要素1</text>			</g>
			<g id="shape1082-302" transform="translate(17.9427,-48.4453)">
				<title>工作表.1082</title>
				<desc>要素2</desc>
				<rect x="0" y="930.706" width="43.1725" height="14.5909" class="st7"/>
				<text x="8.65" y="941" class="st12">要素2</text>			</g>
			<g id="shape1083-305" transform="translate(77.0987,-48.4453)">
				<title>工作表.1083</title>
				<desc>要素3</desc>
				<rect x="0" y="930.706" width="43.1725" height="14.5909" class="st7"/>
				<text x="8.65" y="941" class="st12">要素3</text>			</g>
		</g>
		<g id="shape1061-308" transform="translate(18.75,-754.023)">
			<title>工作表.1061</title>
			<path d="M0 945.3 L803.3 945.3" class="st26"/>
		</g>
		<g id="shape1062-311" transform="translate(18.75,-574.09)">
			<title>工作表.1062</title>
			<path d="M0 945.3 L803.3 945.3" class="st26"/>
		</g>
		<g id="shape1063-314" transform="translate(18.75,-364.304)">
			<title>工作表.1063</title>
			<path d="M0 945.3 L803.3 945.3" class="st26"/>
		</g>
		<g id="shape1121-317" transform="translate(94.7488,-299.27)">
			<title>圆角矩形.1121</title>
			<desc>创建空几何-Geometry</desc>
			<path d="M13.93 945.3 L125.36 945.3 A13.9283 13.9283 -180 0 0 139.29 931.37 L139.29 922.1 A13.9283 13.9283 -180 0 0 125.36
						 908.17 L13.93 908.17 A13.9283 13.9283 -180 0 0 0 922.1 L0 931.37 A13.9283 13.9283 -180 0 0 13.93 945.3 Z"
					class="st27"/>
			<text x="8.64" y="930.33" class="st2">创建空几何-Geometry</text>		</g>
		<g id="shape1122-320" transform="translate(94.8978,-228.075)">
			<title>圆角矩形.1122</title>
			<desc>新几何形状-Geometry</desc>
			<path d="M13.93 945.3 L125.36 945.3 A13.9283 13.9283 -180 0 0 139.29 931.37 L139.29 922.1 A13.9283 13.9283 -180 0 0 125.36
						 908.17 L13.93 908.17 A13.9283 13.9283 -180 0 0 0 922.1 L0 931.37 A13.9283 13.9283 -180 0 0 13.93 945.3 Z"
					class="st27"/>
			<text x="8.64" y="930.33" class="st2">新几何形状-Geometry</text>		</g>
		<g id="shape1124-323" transform="translate(167.244,-275.687)">
			<title>工作表.1124</title>
			<desc>添加点</desc>
			<rect x="0" y="932.2" width="41.1024" height="13.0971" class="st7"/>
			<text x="5.55" y="941.75" class="st12">添加点</text>		</g>
		<g id="shape1126-326" transform="translate(247.219,-228.075)">
			<title>圆角矩形.1126</title>
			<desc>新属性表字段-FieldDefn</desc>
			<path d="M14.8 945.3 L133.17 945.3 A14.7966 14.7966 -180 0 0 147.97 930.5 L147.97 922.97 A14.7966 14.7966 -180 0 0 133.17
						 908.17 L14.8 908.17 A14.7966 14.7966 -180 0 0 -0 922.97 L0 930.5 A14.7966 14.7966 -180 0 0 14.8 945.3 Z"
					class="st27"/>
			<text x="8.01" y="930.33" class="st2">新属性表字段-FieldDefn</text>		</g>
		<g id="shape1127-329" transform="translate(172.455,-157.375)">
			<title>圆角矩形.1127</title>
			<desc>新要素-Feature</desc>
			<path d="M13.37 945.3 L120.29 945.3 A13.3652 13.3652 -180 0 0 133.65 931.93 L133.65 921.54 A13.3652 13.3652 -180 0 0
						 120.29 908.17 L13.37 908.17 A13.3652 13.3652 -180 0 0 0 921.54 L0 931.93 A13.3652 13.3652 -180 0 0 13.37
						 945.3 Z" class="st27"/>
			<text x="24.69" y="930.33" class="st2">新要素-Feature</text>		</g>
		<g id="shape1132-332" transform="translate(21.5846,-802.12)">
			<title>圆角矩形.1132</title>
			<desc>创建空数据集-DataSet</desc>
			<path d="M13.37 945.3 L120.29 945.3 A13.3652 13.3652 -180 0 0 133.65 931.93 L133.65 921.54 A13.3652 13.3652 -180 0 0
						 120.29 908.17 L13.37 908.17 A13.3652 13.3652 -180 0 0 0 921.54 L0 931.93 A13.3652 13.3652 -180 0 0 13.37
						 945.3 Z" class="st27"/>
			<text x="5.69" y="930.33" class="st2">创建空数据集-DataSet</text>		</g>
		<g id="shape1133-335" transform="translate(21.5846,-646.249)">
			<title>圆角矩形.1133</title>
			<desc>创建空图层-Layer</desc>
			<path d="M13.37 945.3 L120.29 945.3 A13.3652 13.3652 -180 0 0 133.65 931.93 L133.65 921.54 A13.3652 13.3652 -180 0 0
						 120.29 908.17 L13.37 908.17 A13.3652 13.3652 -180 0 0 0 921.54 L0 931.93 A13.3652 13.3652 -180 0 0 13.37
						 945.3 Z" class="st27"/>
			<text x="18.96" y="930.33" class="st2">创建空图层-Layer</text>		</g>
		<g id="shape1134-338" transform="translate(157.379,-299.27)">
			<title>动态连接线.1134</title>
			<path d="M7.01 945.3 L7.01 948.46 L7.16 948.46 L7.16 972.33" class="st10"/>
		</g>
		<g id="shape1135-343" transform="translate(164.54,-228.075)">
			<title>动态连接线.1135</title>
			<path d="M0 945.3 L0 963.82 L74.74 963.82 L74.74 971.83" class="st10"/>
		</g>
		<g id="shape1136-348" transform="translate(321.203,-228.075)">
			<title>动态连接线.1136</title>
			<path d="M0 945.3 L0 963.82 L-81.92 963.82 L-81.92 971.83" class="st10"/>
		</g>
		<g id="shape1137-353" transform="translate(88.4116,-646.249)">
			<title>动态连接线.1137</title>
			<path d="M0 945.3 L0 1452.07 L347.02 1452.07 L347.02 1467.04" class="st10"/>
		</g>
		<g id="shape1138-358" transform="translate(239.282,-157.375)">
			<title>动态连接线.1138</title>
			<path d="M0 945.3 L0 963.2 L196.15 963.2 L196.15 978.17" class="st10"/>
		</g>
		<g id="shape1139-363" transform="translate(81.325,-802.12)">
			<title>动态连接线.1139</title>
			<path d="M7.09 945.3 L7.09 1057" class="st10"/>
		</g>
		<g id="shape1143-368" transform="translate(31.331,-889.421)">
			<title>圆角矩形.1143</title>
			<desc>新文件路径-Path</desc>
			<path d="M11.42 945.3 L102.75 945.3 A11.4159 11.4159 -180 0 0 114.16 933.88 L114.16 919.59 A11.4159 11.4159 -180 0 0
						 102.75 908.17 L11.42 908.17 A11.4159 11.4159 -180 0 0 -0 919.59 L0 933.88 A11.4159 11.4159 -180 0 0 11.42
						 945.3 Z" class="st9"/>
			<text x="11.57" y="930.33" class="st2">新文件路径-Path</text>		</g>
		<g id="shape1144-371" transform="translate(81.325,-889.421)">
			<title>动态连接线.1144</title>
			<path d="M7.09 945.3 L7.09 988.43" class="st10"/>
		</g>
		<g id="group1145-376" transform="translate(561.26,-494.139)">
			<title>工作表.1145</title>
			<g id="shape1107-377" transform="translate(49.4197,-22.6173)">
				<title>工作表.1107</title>
				<desc>Shape</desc>
				<rect x="0" y="931.124" width="59.652" height="14.1732" class="st28"/>
				<text x="14.9" y="941.81" class="st29">Shape</text>			</g>
			<g id="shape1108-380" transform="translate(109.072,-22.6173)">
				<title>工作表.1108</title>
				<desc>Area</desc>
				<rect x="0" y="931.124" width="59.652" height="14.1732" class="st28"/>
				<text x="18.4" y="941.81" class="st29">Area</text>			</g>
			<g id="shape1109-383" transform="translate(168.724,-22.6173)">
				<title>工作表.1109</title>
				<desc>Length</desc>
				<rect x="0" y="931.124" width="59.652" height="14.1732" class="st28"/>
				<text x="13.18" y="941.81" class="st29">Length</text>			</g>
			<g id="shape1110-386" transform="translate(49.4197,-8.44408)">
				<title>工作表.1110</title>
				<desc>Rectangle</desc>
				<rect x="0" y="931.124" width="59.652" height="14.1732" class="st30"/>
				<text x="5.82" y="941.81" class="st29">Rectangle</text>			</g>
			<g id="shape1111-389" transform="translate(109.072,-8.44408)">
				<title>工作表.1111</title>
				<desc>4.0</desc>
				<rect x="0" y="931.124" width="59.652" height="14.1732" class="st30"/>
				<text x="22.23" y="941.81" class="st29">4.0</text>			</g>
			<g id="shape1112-392" transform="translate(168.724,-8.44408)">
				<title>工作表.1112</title>
				<desc>10</desc>
				<rect x="0" y="931.124" width="59.652" height="14.1732" class="st30"/>
				<text x="23.74" y="941.81" class="st29">10</text>			</g>
			<g id="shape1114-395">
				<title>工作表.1114</title>
				<rect x="0" y="883.054" width="238.11" height="62.2425" class="st22"/>
			</g>
			<g id="shape1115-397" transform="translate(1.28523,-44.2353)">
				<title>工作表.1115</title>
				<desc>属性表</desc>
				<rect x="0" y="931.84" width="39.8171" height="13.4569" class="st7"/>
				<text x="4.91" y="941.57" class="st12">属性表</text>			</g>
			<g id="shape1117-400" transform="translate(10.8538,-23.0228)">
				<title>工作表.1117</title>
				<desc>字段名</desc>
				<rect x="0" y="931.84" width="35.2693" height="13.4569" class="st7"/>
				<text x="5.63" y="940.97" class="st31">字段名</text>			</g>
			<g id="shape1118-403" transform="translate(14.3152,-8.45311)">
				<title>工作表.1118</title>
				<desc>值</desc>
				<rect x="0" y="931.84" width="28.3465" height="13.4569" class="st7"/>
				<text x="10.17" y="940.97" class="st31">值</text>			</g>
		</g>
		<g id="shape1146-406" transform="translate(378.35,-18.75)">
			<title>圆角矩形.1146</title>
			<desc>更新文件-File</desc>
			<path d="M11.42 945.3 L102.75 945.3 A11.4159 11.4159 -180 0 0 114.16 933.88 L114.16 919.59 A11.4159 11.4159 -180 0 0
						 102.75 908.17 L11.42 908.17 A11.4159 11.4159 -180 0 0 -0 919.59 L0 933.88 A11.4159 11.4159 -180 0 0 11.42
						 945.3 Z" class="st9"/>
			<text x="20.7" y="930.33" class="st2">更新文件-File</text>		</g>
		<g id="shape1147-409" transform="translate(428.344,-80.3362)">
			<title>动态连接线.1147</title>
			<path d="M7.09 945.3 L7.09 962.72" class="st10"/>
		</g>
		<g id="shape1148-414" transform="translate(377.54,-821.48)">
			<title>动态连接线.1148</title>
			<path d="M0 945.3 L-129.18 945.3 L-129.18 956.46" class="st10"/>
		</g>
		<g id="group1149-419" transform="translate(142.221,-493.303)">
			<title>工作表.1149</title>
			<g id="shape1090-420" transform="translate(2.67089,1.13687E-13)">
				<title>工作表.1090</title>
				<rect x="0" y="883.054" width="135.033" height="62.2425" class="st22"/>
			</g>
			<g id="shape1094-422" transform="translate(3.76341,-45.0712)">
				<title>工作表.1094</title>
				<desc>几何</desc>
				<rect x="0" y="931.84" width="30.5455" height="13.4569" class="st7"/>
				<text x="5.27" y="941.57" class="st12">几何</text>			</g>
			<g id="shape1100-425" transform="translate(98.4113,-46.0707)">
				<title>工作表.1100</title>
				<desc>形状</desc>
				<rect x="0" y="931.84" width="47.6675" height="13.4569" class="st7"/>
				<text x="15.83" y="940.97" class="st31">形状</text>			</g>
			<g id="shape1103-428" transform="translate(1.39888E-14,-2.499)">
				<title>工作表.1103</title>
				<desc>折点</desc>
				<rect x="0" y="931.84" width="35.2693" height="13.4569" class="st7"/>
				<text x="9.63" y="940.97" class="st31">折点</text>			</g>
			<g id="shape1091-431" transform="translate(47.8126,-14.9431)">
				<title>工作表.1091</title>
				<rect x="0" y="927.094" width="74.467" height="18.203" class="st23"/>
			</g>
			<g id="shape1104-433" transform="translate(-472.785,147.136) rotate(-35.9739)">
				<title>工作表.1104</title>
				<path d="M0 945.3 L21.98 945.3" class="st32"/>
			</g>
			<g id="shape1105-439" transform="translate(304.978,1840.03) rotate(164.22)">
				<title>工作表.1105</title>
				<path d="M0 945.3 L13.99 945.3" class="st32"/>
			</g>
			<g id="group1106-444" transform="translate(46.7017,-13.9716)">
				<title>工作表.1106</title>
				<g id="shape1095-445" transform="translate(74.5512,-18.1417)">
					<title>工作表.1095</title>
					<ellipse cx="0.992126" cy="944.305" rx="0.992126" ry="0.992126" class="st34"/>
				</g>
				<g id="shape1096-447" transform="translate(74.5512,-0.141733)">
					<title>工作表.1096</title>
					<ellipse cx="0.992126" cy="944.305" rx="0.992126" ry="0.992126" class="st34"/>
				</g>
				<g id="shape1097-449" transform="translate(0.141732,1.13687E-13)">
					<title>工作表.1097</title>
					<ellipse cx="0.992126" cy="944.305" rx="0.992126" ry="0.992126" class="st34"/>
				</g>
				<g id="shape1098-451" transform="translate(0,-18)">
					<title>工作表.1098</title>
					<ellipse cx="0.992126" cy="944.305" rx="0.992126" ry="0.992126" class="st34"/>
				</g>
			</g>
		</g>
		<g id="group1150-453" transform="translate(656.22,-759.027)">
			<title>工作表.1150</title>
			<g id="shape1085-454" transform="translate(0,-2.35726)">
				<title>工作表.1085</title>
				<rect x="0" y="788.914" width="158.225" height="156.383" class="st22"/>
			</g>
			<g id="group1068-456" transform="translate(9.92124,-24.0945)">
				<title>工作表.1068</title>
				<g id="shape1064-457">
					<title>工作表.1064</title>
					<rect x="0" y="831.911" width="113.386" height="113.386" class="st35"/>
				</g>
				<g id="shape1065-459" transform="translate(26.9291,-80.4712)">
					<title>工作表.1065</title>
					<rect x="0" y="929.706" width="63.7795" height="15.5906" class="st36"/>
				</g>
				<g id="shape1066-461" transform="translate(15.5906,-14.1732)">
					<title>工作表.1066</title>
					<rect x="0" y="888.604" width="32.5984" height="56.6929" class="st36"/>
				</g>
				<g id="shape1067-463" transform="translate(59.5276,-15.5906)">
					<title>工作表.1067</title>
					<ellipse cx="19.1339" cy="918.368" rx="19.1339" ry="26.9291" class="st36"/>
				</g>
				<g id="shape22-465" transform="translate(6.4948E-14,-73.5138)">
					<title>工作表.22</title>
					<desc>图层1</desc>
					<rect x="0" y="908.072" width="17.0079" height="37.2243" class="st7"/>
					<text x="4" y="917.68" class="st12">图<tspan x="4" dy="1.2em" class="st6">层</tspan><tspan x="5.57" dy="1.2em"
								class="st6">1</tspan></text>				</g>
			</g>
			<g id="group1069-470" transform="translate(33.1732,-9.92126)">
				<title>工作表.1069</title>
				<g id="shape1070-471">
					<title>工作表.1070</title>
					<rect x="0" y="831.911" width="113.386" height="113.386" class="st37"/>
				</g>
				<g id="shape1071-473" transform="translate(26.9291,-80.4712)">
					<title>工作表.1071</title>
					<rect x="0" y="929.706" width="63.7795" height="15.5906" class="st36"/>
				</g>
				<g id="shape1072-475" transform="translate(15.5906,-14.1732)">
					<title>工作表.1072</title>
					<rect x="0" y="888.604" width="32.5984" height="56.6929" class="st36"/>
				</g>
				<g id="shape1073-477" transform="translate(59.5276,-15.5906)">
					<title>工作表.1073</title>
					<ellipse cx="19.1339" cy="918.368" rx="19.1339" ry="26.9291" class="st36"/>
				</g>
				<g id="shape1074-479" transform="translate(6.4948E-14,-73.5138)">
					<title>工作表.1074</title>
					<desc>图层2</desc>
					<rect x="0" y="908.072" width="17.0079" height="37.2243" class="st7"/>
					<text x="4" y="917.68" class="st12">图<tspan x="4" dy="1.2em" class="st6">层</tspan><tspan x="5.57" dy="1.2em"
								class="st6">2</tspan></text>				</g>
			</g>
			<g id="shape1086-484" transform="translate(-4.39648E-14,-141.732)">
				<title>工作表.1086</title>
				<desc>数据集</desc>
				<rect x="0" y="930.89" width="42.6282" height="14.407" class="st7"/>
				<text x="6.31" y="941.09" class="st12">数据集</text>			</g>
		</g>
		<g id="shape1151-487" transform="translate(491.701,-814.394)">
			<title>动态连接线.1151</title>
			<path d="M0 938.21 L22.64 938.21" class="st10"/>
		</g>
	</g>
</svg>
